<?xml version="1.0" encoding="UTF-8"?>
<!DOCTYPE svg PUBLIC "-//W3C//DTD SVG 1.1//EN" "http://www.w3.org/Graphics/SVG/1.1/DTD/svg11.dtd">
<!-- Creator: CorelDRAW -->
<svg xmlns="http://www.w3.org/2000/svg" xml:space="preserve" width="486px" height="339px" version="1.1" style="shape-rendering:geometricPrecision; text-rendering:geometricPrecision; image-rendering:optimizeQuality; fill-rule:evenodd; clip-rule:evenodd"
viewBox="0 0 702.79 490.7"
 xmlns:xlink="http://www.w3.org/1999/xlink"
 xmlns:xodm="http://www.corel.com/coreldraw/odm/2003">
 <defs>
  <style type="text/css">
   <![CDATA[
    .fil0 {fill:black;fill-rule:nonzero}
   ]]>
  </style>
 </defs>
 <g id="Слой_x0020_1">
  <metadata id="CorelCorpID_0Corel-Layer"/>
  <path class="fil0" d="M289.29 237.27c6.67,8.77 13.05,17.62 19.26,26.65 6.12,9.04 11.77,17.8 16.97,26.38 4.29,7.21 8.31,14.32 12.05,21.44 3.83,7.12 7.12,13.97 9.95,20.36 2.74,6.47 4.38,13.32 5.02,20.8 0.55,7.39 0.64,14.24 0.09,20.44 -0.18,3.75 -0.64,7.21 -1.37,10.5 -0.64,3.19 -1.28,5.75 -1.82,7.76 -0.83,2.82 -1.92,5.56 -3.02,8.12 -1.18,2.65 -2.37,4.93 -3.56,6.84 -1.82,2.65 -3.83,4.75 -6.29,6.3 -2.38,1.55 -5.11,2.28 -8.31,2.28 -1.64,0 -3.1,-0.64 -4.56,-1.92 -1.46,-1.18 -3.1,-2.46 -4.84,-3.74 -1.64,-1 -3.56,-2.1 -5.65,-3.01 -2.2,-1 -3.75,-2.28 -4.84,-3.92 -1.46,-2.01 -2.1,-4.38 -1.92,-7.12 0.18,-2.74 -0.18,-5.48 -1.09,-8.12 -0.55,-2.19 -1.83,-4.29 -4.02,-6.48 -2.1,-2.1 -3.19,-4.29 -3.19,-6.39 0,-7.03 -1.1,-14.79 -3.29,-23.27 -2.1,-8.49 -5.2,-17.34 -9.12,-26.65 -2.65,-6.21 -5.84,-12.68 -9.4,-19.44 -3.56,-6.66 -7.58,-13.5 -11.87,-20.44 -16.06,29.02 -29.66,53.2 -40.97,72.55 -11.23,19.35 -20.35,34.77 -27.29,46.36 -4.47,7.48 -7.3,13.69 -8.4,18.44 -1.18,4.83 -1.82,8.94 -2,12.32 -0.19,3.01 -0.37,6.48 -0.46,10.4 -0.09,3.92 -1,8.03 -2.74,12.32 -0.55,1.46 -1.55,3.19 -3.1,5.2 -1.55,2.1 -2.65,4.02 -3.38,6.02 -0.54,1.65 -0.64,3.29 -0.36,5.11 0.27,1.74 0.09,3.38 -0.46,4.75 -0.46,1.46 -0.82,3.1 -1,5.02 -0.18,1.82 -0.55,3.29 -1.1,4.38 -1.09,1.37 -2.55,2.28 -4.38,2.65 -1.92,0.36 -3.47,0.54 -4.83,0.54 -4.84,0 -9.04,-3.83 -12.51,-11.49 -3.47,-7.67 -6.2,-13.79 -8.12,-18.44 -3.65,-8.21 -6.57,-15.61 -8.85,-22.08 -2.37,-6.48 -2.92,-12.32 -1.65,-17.53 0.92,-3.37 2.47,-8.03 4.84,-14.05 2.28,-5.93 4.2,-12.69 5.57,-20.17 2.83,-15.7 6.48,-31.67 10.86,-48.09 4.38,-16.43 8.4,-32.67 12.14,-48.73 4.65,-19.17 9.12,-37.51 13.41,-54.76 4.29,-17.34 7.76,-31.58 10.4,-42.8 -4.83,-5.02 -8.48,-8.85 -10.95,-11.5 -2.55,-2.65 -6.2,-6.11 -11.04,-10.41 -4.56,6.94 -9.76,14.7 -15.51,23.09 -5.66,8.49 -11.59,17.53 -17.62,26.93 -5.56,8.76 -11.31,17.88 -17.43,27.47 -6.02,9.49 -12.04,18.98 -17.88,28.47 -6.57,11.04 -13.24,22.17 -19.81,33.31 -6.57,11.13 -12.86,21.81 -18.71,32.03 -7.2,12.78 -13.68,24.91 -19.71,36.32 -5.93,11.41 -10.77,21.17 -14.32,29.21 -0.92,1.91 -2.1,2.37 -3.56,1.36 -1.56,-1.09 -3.11,-3.19 -4.75,-6.2 -1.37,-2.65 -4.38,-7.12 -8.76,-13.51 -4.47,-6.3 -6.39,-10.4 -5.66,-12.41 1.64,-4.84 3.83,-9.76 6.57,-14.69 2.74,-5.02 5.2,-10.22 7.3,-15.52 2.19,-4.83 4.93,-9.4 8.31,-13.69 3.37,-4.28 6.29,-8.94 8.58,-13.87 2.55,-5.38 5.29,-10.31 8.3,-14.87 3.01,-4.57 6.02,-9.59 8.85,-15.15 3.2,-6.03 6.57,-12.32 10.04,-18.89 3.47,-6.48 6.85,-12.78 10.31,-18.8 2.65,-4.84 5.66,-9.86 9.04,-15.06 3.38,-5.11 6.57,-10.13 9.4,-14.97 2.83,-4.83 6.11,-9.4 9.85,-13.78 3.75,-4.38 7.12,-8.94 9.95,-13.78 2.65,-4.65 5.66,-8.85 8.94,-12.68 3.29,-3.84 6.48,-8.03 9.5,-12.5 2.19,-3.2 4.19,-6.58 6.2,-10.13 1.92,-3.56 4.02,-6.94 6.12,-10.23 -8.95,-7.48 -17.53,-14.42 -25.92,-20.89 -8.4,-6.39 -17.07,-12.69 -26.19,-18.71 -8.58,-5.75 -16.16,-11.04 -22.82,-16.06 -6.66,-5.02 -14.69,-10.23 -23.91,-15.52 -1.28,-0.73 -2.92,-1.28 -5.11,-1.55 -2.1,-0.27 -3.83,-0.73 -5.11,-1.46 -2.1,-1.19 -3.74,-2.83 -4.93,-4.65 -1.09,-1.92 -2.73,-3.47 -4.93,-4.75 -1.91,-1.19 -4.28,-1.55 -6.93,-0.91 -2.65,0.64 -4.47,1 -5.39,1.18 -1,0.19 -2.73,-0.36 -5.01,-1.73 -2.29,-1.28 -3.75,-2.83 -4.29,-4.66 -1.1,-3.55 1.46,-6.2 7.57,-7.84 6.21,-1.74 11.23,-3.38 15.15,-5.02 4.84,-1.74 9.03,-3.1 12.68,-4.11 3.66,-1 7.12,-1.28 10.32,-0.91 1.91,0 4.56,0.09 7.85,0.36 3.28,0.28 6.11,1.1 8.48,2.56 1.37,0.73 2.38,1.82 2.92,3.47 0.55,1.64 1.55,2.92 3.2,4.01 1.09,0.91 3.56,2.19 7.39,4.02 3.83,1.73 6.39,3.1 7.85,4.01 6.39,4.47 12.41,8.95 17.88,13.42 5.57,4.47 12.32,9.31 20.36,14.69 7.48,5.02 14.69,10.04 21.53,15.06 6.85,5.02 13.51,9.85 19.9,14.69 10.86,-15.15 21.17,-28.11 30.84,-38.87 9.77,-10.86 18.89,-20.72 27.47,-29.57 1.74,-2.01 4.2,-3.93 7.49,-5.75 3.19,-1.92 6.38,-3.1 9.58,-3.65 3.19,-0.55 6.2,0.09 8.94,1.91 2.74,1.74 4.84,5.12 6.3,10.13 1.73,6.03 3.1,11.41 3.83,15.97 0.82,4.48 0.73,8.86 -0.36,12.96 -3.38,12.69 -7.21,26.92 -11.5,42.8 -4.29,15.88 -8.95,32.77 -13.87,50.65 7.3,6.94 12.59,12.05 15.78,15.24 3.2,3.2 8.03,8.76 14.42,16.61 2.01,0.64 3.84,0.55 5.48,-0.27 1.73,-0.91 2.92,-2.19 3.65,-3.74 1.28,-2.56 2.28,-4.93 3.19,-7.39 0.92,-2.38 1.92,-4.75 2.92,-7.03 2.56,-5.02 5.2,-9.95 8.22,-14.88 2.92,-4.93 5.65,-9.94 8.12,-15.15 0.55,-1.37 0.73,-2.46 0.55,-3.28 -0.19,-0.82 0,-1.92 0.54,-3.38 2.1,-4.29 4.48,-9.31 7.21,-15.06 2.65,-5.84 4.93,-10.86 6.94,-15.14 1.19,-3.02 2.65,-6.03 4.11,-8.95 1.55,-2.92 3.01,-6.02 4.38,-9.22 1.64,-3.74 3.46,-7.75 5.38,-12.13 1.92,-4.38 3.74,-8.49 5.38,-12.23 2.47,-5.48 5.12,-12.05 7.85,-19.62 2.74,-7.58 5.3,-14.24 7.58,-19.9 1.28,-3.19 2.83,-6.48 4.56,-9.76 1.83,-3.29 3.38,-6.57 4.84,-9.77 1.09,-2.64 2.01,-5.56 2.83,-8.67 0.73,-3.1 1.73,-6.02 2.74,-8.67 0.18,-0.73 0.73,-1 1.45,-0.73 0.83,0.28 1.56,1.01 2.29,2.01 0.73,1.1 2,3.65 3.74,7.67 1.82,4.01 3.19,7.12 4.01,9.21 1.28,3.2 2.65,7.94 4.02,14.15 1.46,6.3 1.82,10.22 1.09,12.05 -1.46,3.92 -2.92,7.93 -4.38,12.13 -1.55,4.2 -3.1,8.49 -4.74,12.69 -4.2,11.41 -9.04,22.54 -14.24,33.49 -5.29,10.86 -10.49,22.18 -15.6,33.95 -4.84,11.41 -10.04,22.9 -15.7,34.59 -5.57,11.68 -11.23,23.18 -16.97,34.58 -2.47,5.02 -5.02,10.13 -7.58,15.24 -2.55,5.21 -5.11,10.23 -7.67,15.24zm-84.23 -113.43c-1.28,0 -3.1,1.28 -5.47,4.02 -2.38,2.64 -5.3,5.93 -8.67,9.85 0.91,0.55 2.19,1.28 3.83,2.28 1.73,1.01 3.1,2.01 4.2,3.11 1,0.82 1.91,1.82 2.64,2.73 0.73,1.01 1.37,1.74 1.83,2.28 2.01,-7.11 3.1,-12.95 3.28,-17.52 0.19,-4.47 -0.36,-6.75 -1.64,-6.75zm40.43 132.69c-3.92,-5.38 -8.21,-10.95 -12.87,-16.88 -4.56,-5.84 -9.03,-11.23 -13.32,-15.97 -6.39,24.18 -12.14,47.45 -17.25,69.63 -5.02,22.18 -8.67,41.61 -10.77,58.41 3.2,-5.39 6.94,-11.96 11.32,-19.9 4.38,-7.94 8.76,-15.97 13.23,-24 1.46,-2.65 2.83,-5.48 4.2,-8.4 1.28,-2.92 2.74,-5.75 4.38,-8.39 1.73,-3.2 3.83,-6.03 6.11,-8.58 2.38,-2.46 4.29,-5.2 5.94,-8.31 0.82,-1.55 1.36,-3.65 1.55,-6.2 0.18,-2.65 0.63,-4.75 1.37,-6.3 0.73,-1.46 1.73,-2.37 3.19,-2.74 1.46,-0.27 2.37,-1.09 2.92,-2.37z"/>
  <path id="_1" class="fil0" d="M442.61 390.96c0,2.46 -0.64,4.93 -2.01,7.21 -1.27,2.37 -3.28,4.56 -5.93,6.75 -0.91,2.65 -2.01,4.65 -3.37,6.02 -1.37,1.37 -3.11,2.01 -5.21,2.01 -7.3,0 -13.5,-2.55 -18.61,-7.76 -5.11,-5.2 -9.22,-12.86 -12.23,-23.08l1.82 -1.92 -2.64 -6.94c0.91,-2.83 1.73,-5.66 2.37,-8.3 0.73,-2.65 1.46,-5.39 2.19,-8.03 0.82,-3.38 2.28,-5.84 4.38,-7.4 2.01,-1.55 4.38,-2.28 7.03,-2.28 4.65,0 8.94,1.28 12.96,3.75 3.92,2.55 7.57,6.38 10.76,11.59 3.02,4.56 5.21,9.3 6.48,14.05 1.37,4.74 2.01,9.49 2.01,14.33z"/>
  <path id="_2" class="fil0" d="M478.02 304.44c-0.55,-2.01 -0.91,-3.56 -1,-4.83 -0.09,-1.28 -0.09,-2.38 -0.09,-3.2 0,-5.93 0.73,-10.95 2.09,-15.15 1.47,-4.19 3.56,-7.66 6.48,-10.58 0.73,-0.64 2.56,-1.74 5.48,-3.2 2.92,-1.37 6.84,-3.1 11.59,-5.02 3.47,-1.64 6.11,-3.56 8.21,-5.75 2.01,-2.28 3.2,-5.01 3.38,-8.21 0.46,-2.46 1.55,-5.29 3.19,-8.58 1.56,-3.19 3.47,-6.66 5.57,-10.4 0.73,-1.1 2.92,-7.21 6.48,-18.44 3.56,-11.22 8.58,-27.74 14.97,-49.55 1.82,-6.57 3.56,-12.23 5.38,-17.07 1.74,-4.83 3.29,-8.94 4.47,-12.32 5.75,-15.15 10.41,-25.09 14.06,-29.84 3.65,-4.74 6.38,-8.58 8.21,-11.59l0 -1.37 -8.3 -13.14 10.4 -12.04 13.42 -2.65c2.64,-0.37 5.11,-2.83 7.39,-7.48 2.19,-4.66 6.11,-9.77 11.59,-15.24 1.28,-0.37 3.28,-1.46 6.02,-3.38 2.74,-1.83 6.3,-4.47 10.59,-7.85 3.74,-3.1 6.93,-5.29 9.67,-6.75 2.65,-1.37 4.65,-2.1 6.11,-2.1 4.84,0 8.31,1 10.41,2.92 2.1,2.01 3.19,4.56 3.19,7.76 0,3.92 -2.01,9.67 -6.11,17.15 -4.11,7.49 -6.12,13.23 -6.12,17.16 0,1.73 0.37,3.19 1.19,4.38 0.82,1.19 1.73,1.92 2.74,2.28l32.03 17.43c1.73,0.64 3.38,3.47 4.74,8.4 1.46,4.93 2.56,11.68 3.47,20.17 1.1,7.2 1.92,13.14 2.56,17.79 0.64,4.75 0.91,8.58 0.91,11.41 -1.19,7.67 -2.46,15.42 -3.74,23.27 1.82,10.04 3.74,20.53 5.93,31.58 -1.09,10.58 -2.28,21.26 -3.47,32.12 0,1.1 0.19,2.01 0.64,2.83 0.46,0.82 1.1,1.28 2.01,1.46 3.01,0.18 5.29,1 6.75,2.37 1.55,1.46 2.28,3.47 2.28,5.93 0,3.2 -0.45,5.75 -1.46,7.67 -1,1.82 -2.37,3.28 -4.1,4.38 -2.28,1.46 -4.11,2.65 -5.48,3.74 -1.28,1.1 -2.28,1.92 -2.83,2.65l3.47 16.61 -4.74 38.05c0,3.2 -0.28,7.3 -0.83,12.23 -0.54,5.02 -1.27,10.86 -2.37,17.43 -1.82,4.84 -3.1,8.85 -4.01,12.05 -0.92,3.19 -1.28,5.38 -1.28,6.39 0.82,3.1 1.64,6.29 2.37,9.67 -1.09,4.84 -2.19,9.58 -3.38,14.42 -1.09,4.84 -2.19,9.58 -3.28,14.24 -1.92,6.2 -4.56,10.76 -7.76,13.78 -3.19,2.92 -6.84,4.38 -11.13,4.38 -2.28,0 -4.11,-1.01 -5.2,-3.11 -1.19,-2 -1.74,-5.11 -1.74,-9.21 0,-1.74 0.28,-4.38 0.91,-7.76 0.64,-3.38 0.92,-6.02 0.92,-7.76 0,-1.27 -0.18,-2.92 -0.55,-5.11 -0.37,-2.1 -0.46,-4.01 -0.46,-5.56 0,-5.02 0.46,-13.06 1.46,-24.01 0.92,-10.95 1.46,-19.25 1.46,-24.73 -0.91,-3.1 -1.82,-6.2 -2.64,-9.4 0.45,-3.37 0.82,-6.84 1,-10.31 0.18,-3.47 0.09,-6.75 -0.27,-9.77l4.01 -7.2 -3.47 -24.92 -1.82 -0.82c-1.1,0 -2.65,0.46 -4.75,1.28 -2,0.73 -4.56,2.01 -7.57,3.83 -2.19,0.73 -5.48,1.46 -10.04,2.28 -4.56,0.82 -10.59,1.28 -18.07,1.46 -3.28,1.65 -6.3,3.01 -9.12,4.29 -4.11,0.91 -9.31,2.47 -15.52,4.66 -6.3,2.28 -13.51,4.92 -21.72,8.21 -4.84,2.28 -9.22,4.11 -13.23,5.47 -4.02,1.28 -7.39,2.01 -10.04,2.01 -2.1,0 -3.92,0.73 -5.38,2.38 -1.37,1.64 -2.56,3.92 -3.47,6.93 -0.55,2.83 -1.83,6.75 -3.83,11.77 -2.1,5.02 -4.84,11.23 -8.22,18.71 -0.73,2.01 -1.64,5.02 -2.92,9.13 -1.28,4.1 -2.65,9.21 -4.29,15.24 -1.09,2.37 -2.28,5.2 -3.74,8.67 -1.46,3.47 -3.01,7.57 -4.84,12.23 0,2.1 -0.18,4.74 -0.63,7.85 -0.46,3.1 -1.1,6.75 -2.01,10.86 -0.92,2.46 -2.1,5.65 -3.65,9.49 -1.46,3.83 -3.38,8.03 -5.75,12.68 -1.37,2.83 -3.47,4.93 -6.12,6.3 -2.73,1.37 -6.2,2.01 -10.49,2.01 -3.01,0 -5.39,-1.01 -7.03,-3.11 -1.73,-2 -2.55,-5.2 -2.55,-9.49 0,-4.65 0.54,-9.95 1.64,-15.88 1,-6.02 2.74,-12.59 5.02,-19.71 2.55,-9.4 4.65,-17.16 6.48,-23 1.73,-5.93 2.74,-10.22 2.92,-13.14 0.55,-1.18 1.37,-3.47 2.37,-6.66 1.09,-3.19 2.37,-7.12 3.74,-11.77 1.65,-4.47 3.2,-9.58 4.57,-15.24l-1.28 -2.19 -8.58 1.37c-2.01,-0.19 -3.38,-1.01 -4.29,-2.38 -0.91,-1.46 -1.37,-3.37 -1.37,-5.65 0,-1.28 0.18,-2.65 0.55,-4.11 0.36,-1.55 0.91,-3.38 1.64,-5.48zm97.19 -49.19c4.11,0 10.13,-1 18.16,-2.92 8.03,-2 14.06,-2.92 18.16,-2.92 2.47,0.55 5.02,0.92 7.49,1.28 4.47,-0.82 8.85,-1.92 13.14,-3.01 4.29,-1.19 8.67,-2.19 13.14,-3.1 1.73,-0.37 3.1,-1.01 4.02,-2.01 0.82,-1 1.27,-2.28 1.27,-3.83 -0.36,-5.39 -0.54,-9.04 -0.54,-10.96 0,-3.37 0.27,-7.21 0.73,-11.4 0.45,-4.2 1.09,-8.49 2,-12.96l-3.19 -12.05 1 -10.95c-0.64,-3.92 -1.27,-7.57 -1.73,-11.04 -0.46,-3.56 -0.46,-6.39 -0.09,-8.76 -0.37,-0.73 -1.01,-1.83 -1.92,-3.47 -0.91,-1.55 -1.82,-3.29 -2.92,-5.02 -1.82,-3.1 -3.65,-5.93 -5.47,-8.76 -1.92,-2.74 -3.75,-5.57 -5.48,-8.4 -2.55,-3.37 -5.2,-5.84 -8.03,-7.48 -2.92,-1.64 -5.84,-2.37 -8.85,-2.37 -3.56,0 -7.21,2.83 -10.95,8.48 -3.75,5.75 -7.21,14.42 -10.5,26.01 -0.45,1.37 -2.01,4.29 -4.38,8.76 -2.37,4.48 -5.84,10.32 -10.31,17.43 -0.64,6.76 -3.1,15.15 -7.21,25.28 -4.11,10.04 -9.77,21.81 -17.07,35.41 -0.91,1.19 -1.37,2.28 -1.46,3.2 -0.09,0.82 -0.18,1.82 -0.18,2.92 0,1.18 0.37,2.19 0.91,2.74 0.64,0.63 1.65,1 2.83,1 1.83,0 4.66,-0.18 8.67,-0.55 4.02,-0.36 6.94,-0.55 8.76,-0.55z"/>
 </g>
</svg>
