<?xml version="1.0" encoding="UTF-8"?>
<!DOCTYPE svg PUBLIC "-//W3C//DTD SVG 1.1//EN" "http://www.w3.org/Graphics/SVG/1.1/DTD/svg11.dtd">
<!-- Creator: CorelDRAW -->
<svg xmlns="http://www.w3.org/2000/svg" xml:space="preserve" width="411px" height="235px" version="1.1" style="shape-rendering:geometricPrecision; text-rendering:geometricPrecision; image-rendering:optimizeQuality; fill-rule:evenodd; clip-rule:evenodd"
viewBox="0 0 79.82 45.73"
 xmlns:xlink="http://www.w3.org/1999/xlink"
 xmlns:xodm="http://www.corel.com/coreldraw/odm/2003">
 <defs>
  <style type="text/css">
   <![CDATA[
    .fil0 {fill:black}
    .fil1 {fill:white;fill-rule:nonzero}
   ]]>
  </style>
 </defs>
 <g id="Слой_x0020_1">
  <metadata id="CorelCorpID_0Corel-Layer"/>
  <rect class="fil0" width="79.82" height="45.73" rx="10.01" ry="5.73"/>
  <path class="fil1" d="M17.53 22.08c0.32,0.41 0.62,0.84 0.92,1.27 0.29,0.43 0.56,0.85 0.81,1.26 0.2,0.34 0.4,0.68 0.58,1.02 0.18,0.34 0.34,0.67 0.47,0.98 0.13,0.31 0.21,0.63 0.24,0.99 0.03,0.35 0.03,0.68 0,0.98 0,0.18 -0.03,0.34 -0.06,0.5 -0.03,0.15 -0.06,0.27 -0.09,0.37 -0.04,0.13 -0.09,0.27 -0.14,0.39 -0.06,0.12 -0.11,0.23 -0.17,0.32 -0.09,0.13 -0.18,0.23 -0.3,0.31 -0.12,0.07 -0.25,0.1 -0.4,0.1 -0.08,0 -0.15,-0.03 -0.22,-0.09 -0.07,-0.05 -0.15,-0.11 -0.23,-0.18 -0.08,-0.04 -0.17,-0.1 -0.27,-0.14 -0.1,-0.05 -0.18,-0.11 -0.23,-0.19 -0.07,-0.09 -0.1,-0.21 -0.09,-0.34 0.01,-0.13 -0.01,-0.26 -0.05,-0.39 -0.03,-0.1 -0.09,-0.2 -0.2,-0.3 -0.1,-0.11 -0.15,-0.21 -0.15,-0.31 0,-0.34 -0.05,-0.71 -0.16,-1.11 -0.1,-0.41 -0.24,-0.83 -0.43,-1.28 -0.13,-0.29 -0.28,-0.6 -0.45,-0.92 -0.17,-0.32 -0.36,-0.65 -0.57,-0.98 -0.77,1.39 -1.41,2.54 -1.96,3.47 -0.53,0.92 -0.97,1.66 -1.3,2.21 -0.21,0.36 -0.35,0.66 -0.4,0.88 -0.06,0.23 -0.09,0.43 -0.1,0.59 -0.01,0.14 -0.01,0.31 -0.02,0.5 0,0.19 -0.05,0.38 -0.13,0.59 -0.03,0.07 -0.07,0.15 -0.15,0.24 -0.07,0.11 -0.12,0.2 -0.16,0.29 -0.03,0.08 -0.03,0.16 -0.02,0.25 0.02,0.08 0.01,0.16 -0.02,0.22 -0.02,0.07 -0.04,0.15 -0.05,0.24 0,0.09 -0.02,0.16 -0.05,0.21 -0.05,0.07 -0.12,0.11 -0.21,0.13 -0.09,0.02 -0.16,0.03 -0.23,0.03 -0.23,0 -0.43,-0.19 -0.6,-0.55 -0.16,-0.37 -0.29,-0.66 -0.38,-0.88 -0.18,-0.4 -0.32,-0.75 -0.43,-1.06 -0.11,-0.31 -0.14,-0.59 -0.08,-0.84 0.05,-0.16 0.12,-0.38 0.24,-0.67 0.1,-0.28 0.2,-0.61 0.26,-0.96 0.14,-0.75 0.31,-1.52 0.52,-2.3 0.21,-0.79 0.4,-1.56 0.58,-2.33 0.22,-0.92 0.44,-1.79 0.64,-2.62 0.21,-0.82 0.37,-1.5 0.5,-2.04 -0.23,-0.24 -0.41,-0.42 -0.52,-0.55 -0.13,-0.13 -0.3,-0.29 -0.53,-0.5 -0.22,0.33 -0.47,0.7 -0.74,1.11 -0.27,0.4 -0.56,0.83 -0.85,1.28 -0.26,0.42 -0.54,0.86 -0.83,1.31 -0.29,0.46 -0.57,0.91 -0.85,1.37 -0.32,0.52 -0.64,1.05 -0.95,1.59 -0.31,0.53 -0.61,1.04 -0.89,1.53 -0.35,0.61 -0.66,1.19 -0.95,1.73 -0.28,0.55 -0.51,1.01 -0.68,1.4 -0.04,0.09 -0.1,0.11 -0.17,0.06 -0.07,-0.05 -0.15,-0.15 -0.23,-0.29 -0.06,-0.13 -0.21,-0.34 -0.42,-0.65 -0.21,-0.3 -0.3,-0.5 -0.27,-0.59 0.08,-0.23 0.19,-0.47 0.32,-0.7 0.13,-0.24 0.25,-0.49 0.35,-0.74 0.1,-0.24 0.23,-0.45 0.39,-0.66 0.17,-0.2 0.3,-0.43 0.41,-0.66 0.13,-0.26 0.26,-0.49 0.4,-0.71 0.14,-0.22 0.29,-0.46 0.42,-0.73 0.16,-0.28 0.32,-0.58 0.48,-0.9 0.17,-0.31 0.33,-0.61 0.5,-0.9 0.12,-0.23 0.27,-0.47 0.43,-0.72 0.16,-0.24 0.31,-0.48 0.45,-0.71 0.13,-0.23 0.29,-0.45 0.47,-0.66 0.18,-0.21 0.34,-0.43 0.47,-0.66 0.13,-0.22 0.27,-0.42 0.43,-0.6 0.16,-0.19 0.31,-0.39 0.45,-0.6 0.11,-0.15 0.2,-0.32 0.3,-0.49 0.09,-0.17 0.19,-0.33 0.29,-0.48 -0.42,-0.36 -0.83,-0.69 -1.24,-1 -0.4,-0.31 -0.81,-0.61 -1.25,-0.9 -0.41,-0.27 -0.77,-0.53 -1.09,-0.76 -0.32,-0.24 -0.7,-0.49 -1.14,-0.75 -0.06,-0.03 -0.14,-0.06 -0.24,-0.07 -0.1,-0.01 -0.19,-0.04 -0.25,-0.07 -0.1,-0.06 -0.18,-0.14 -0.23,-0.22 -0.06,-0.09 -0.13,-0.17 -0.24,-0.23 -0.09,-0.06 -0.2,-0.07 -0.33,-0.04 -0.13,0.03 -0.21,0.04 -0.26,0.05 -0.05,0.01 -0.13,-0.01 -0.24,-0.08 -0.11,-0.06 -0.18,-0.13 -0.2,-0.22 -0.06,-0.17 0.07,-0.3 0.36,-0.38 0.3,-0.08 0.54,-0.16 0.72,-0.24 0.23,-0.08 0.43,-0.14 0.61,-0.19 0.17,-0.05 0.34,-0.06 0.49,-0.05 0.09,0 0.22,0.01 0.38,0.02 0.15,0.01 0.29,0.05 0.4,0.12 0.07,0.04 0.12,0.09 0.14,0.17 0.03,0.08 0.08,0.14 0.15,0.19 0.06,0.04 0.17,0.11 0.36,0.19 0.18,0.09 0.3,0.15 0.37,0.19 0.31,0.22 0.6,0.43 0.86,0.65 0.26,0.21 0.59,0.44 0.97,0.7 0.36,0.24 0.7,0.48 1.03,0.72 0.33,0.24 0.64,0.47 0.95,0.7 0.52,-0.72 1.01,-1.34 1.47,-1.86 0.47,-0.52 0.91,-0.99 1.32,-1.41 0.08,-0.1 0.2,-0.19 0.35,-0.28 0.16,-0.09 0.31,-0.14 0.46,-0.17 0.15,-0.03 0.3,0 0.43,0.09 0.13,0.08 0.23,0.25 0.3,0.49 0.08,0.28 0.15,0.54 0.18,0.76 0.04,0.21 0.04,0.42 -0.01,0.62 -0.17,0.6 -0.35,1.28 -0.55,2.04 -0.21,0.76 -0.43,1.57 -0.67,2.42 0.35,0.33 0.61,0.58 0.76,0.73 0.15,0.15 0.38,0.42 0.69,0.8 0.09,0.03 0.18,0.02 0.26,-0.02 0.08,-0.04 0.14,-0.1 0.17,-0.18 0.06,-0.12 0.11,-0.23 0.16,-0.35 0.04,-0.11 0.09,-0.23 0.14,-0.34 0.12,-0.24 0.24,-0.47 0.39,-0.71 0.14,-0.23 0.27,-0.47 0.39,-0.72 0.02,-0.07 0.03,-0.12 0.02,-0.16 -0.01,-0.04 0,-0.09 0.03,-0.16 0.1,-0.2 0.21,-0.44 0.34,-0.72 0.13,-0.28 0.24,-0.52 0.33,-0.72 0.06,-0.15 0.13,-0.29 0.2,-0.43 0.07,-0.14 0.14,-0.29 0.21,-0.44 0.08,-0.18 0.17,-0.37 0.26,-0.58 0.09,-0.21 0.18,-0.41 0.25,-0.58 0.12,-0.27 0.25,-0.58 0.38,-0.94 0.13,-0.36 0.25,-0.68 0.36,-0.95 0.06,-0.16 0.14,-0.31 0.22,-0.47 0.09,-0.16 0.16,-0.31 0.23,-0.47 0.05,-0.12 0.1,-0.26 0.14,-0.41 0.03,-0.15 0.08,-0.29 0.13,-0.41 0.01,-0.04 0.03,-0.05 0.07,-0.04 0.04,0.01 0.07,0.05 0.11,0.1 0.03,0.05 0.09,0.17 0.17,0.36 0.09,0.19 0.16,0.34 0.2,0.44 0.06,0.16 0.12,0.38 0.19,0.68 0.07,0.3 0.08,0.49 0.05,0.57 -0.07,0.19 -0.14,0.38 -0.21,0.58 -0.07,0.21 -0.15,0.41 -0.23,0.61 -0.2,0.55 -0.43,1.08 -0.68,1.6 -0.25,0.52 -0.5,1.06 -0.74,1.62 -0.23,0.55 -0.48,1.1 -0.75,1.66 -0.27,0.55 -0.54,1.1 -0.81,1.65 -0.12,0.24 -0.24,0.48 -0.37,0.73 -0.12,0.25 -0.24,0.49 -0.36,0.73zm-4.03 -5.42c-0.06,0 -0.14,0.06 -0.26,0.19 -0.11,0.12 -0.25,0.28 -0.41,0.47 0.04,0.02 0.1,0.06 0.18,0.11 0.08,0.05 0.15,0.09 0.2,0.15 0.05,0.03 0.09,0.08 0.13,0.13 0.03,0.04 0.06,0.08 0.08,0.11 0.1,-0.34 0.15,-0.62 0.16,-0.84 0.01,-0.22 -0.02,-0.32 -0.08,-0.32zm1.94 6.34c-0.19,-0.26 -0.4,-0.53 -0.62,-0.81 -0.22,-0.28 -0.43,-0.54 -0.64,-0.76 -0.3,1.15 -0.58,2.26 -0.82,3.32 -0.24,1.06 -0.41,1.99 -0.52,2.79 0.16,-0.25 0.34,-0.57 0.55,-0.95 0.21,-0.38 0.41,-0.76 0.63,-1.14 0.07,-0.13 0.13,-0.27 0.2,-0.4 0.06,-0.14 0.13,-0.28 0.21,-0.41 0.08,-0.15 0.18,-0.28 0.29,-0.41 0.11,-0.11 0.21,-0.24 0.28,-0.39 0.04,-0.08 0.07,-0.18 0.08,-0.3 0.01,-0.13 0.03,-0.23 0.06,-0.3 0.04,-0.07 0.09,-0.11 0.16,-0.13 0.07,-0.01 0.11,-0.05 0.14,-0.11z"/>
  <path id="_1" class="fil1" d="M20.67 26.44c0.19,-0.2 0.5,-0.45 0.91,-0.74 0.4,-0.29 0.71,-0.53 0.9,-0.72 0.13,-0.15 0.29,-0.34 0.5,-0.55 0.2,-0.22 0.44,-0.47 0.72,-0.78 0.17,-0.15 0.34,-0.27 0.5,-0.35 0.16,-0.09 0.32,-0.13 0.48,-0.13 0.21,0 0.37,0.05 0.48,0.15 0.12,0.11 0.17,0.27 0.17,0.49 0,0.33 -0.12,0.87 -0.38,1.61 -0.25,0.74 -0.38,1.3 -0.38,1.68 0,0.09 0.02,0.15 0.06,0.18 0.04,0.04 0.08,0.05 0.13,0.05l0.06 -0.01c0.17,-0.1 0.36,-0.23 0.58,-0.39 0.21,-0.16 0.46,-0.35 0.73,-0.58 0.22,-0.21 0.5,-0.47 0.82,-0.8 0.33,-0.33 0.71,-0.72 1.16,-1.15 0.17,-0.14 0.36,-0.31 0.58,-0.53 0.22,-0.21 0.46,-0.46 0.73,-0.77 0.11,-0.15 0.27,-0.27 0.47,-0.35 0.2,-0.09 0.45,-0.13 0.73,-0.13 0.2,0 0.35,0.04 0.44,0.11 0.1,0.07 0.15,0.18 0.15,0.33 0,0.05 -0.01,0.11 -0.02,0.17 -0.01,0.05 -0.02,0.11 -0.03,0.16 -0.06,0.25 -0.15,0.57 -0.27,0.94 -0.12,0.37 -0.26,0.8 -0.43,1.3 -0.15,0.32 -0.3,0.7 -0.46,1.14 -0.15,0.43 -0.32,0.92 -0.5,1.45l0.09 0.11c0.18,-0.08 0.45,-0.29 0.79,-0.61 0.35,-0.32 0.8,-0.74 1.33,-1.28l0.52 1.18c-0.07,0.07 -0.15,0.15 -0.25,0.25 -0.09,0.1 -0.22,0.2 -0.38,0.31 -0.91,0.65 -1.7,1.29 -2.35,1.93 -0.65,0.63 -1.16,1.26 -1.54,1.89 -0.57,0.93 -1.05,1.7 -1.42,2.29 -0.38,0.59 -0.65,1 -0.82,1.24 -0.59,0.78 -1.15,1.36 -1.68,1.73 -0.52,0.38 -1.04,0.56 -1.54,0.56 -0.19,0 -0.32,-0.04 -0.41,-0.11 -0.08,-0.08 -0.13,-0.2 -0.13,-0.36 0,-0.09 0.03,-0.19 0.07,-0.32 0.04,-0.13 0.12,-0.27 0.23,-0.41 0.16,-0.23 0.31,-0.47 0.44,-0.72l0.38 -0.33c0.04,-0.11 0.05,-0.19 0.05,-0.23 0.03,-0.04 0.08,-0.09 0.15,-0.16 0.06,-0.06 0.13,-0.12 0.22,-0.2 0.06,-0.15 0.22,-0.41 0.48,-0.76 0.26,-0.36 0.62,-0.81 1.09,-1.36 0.35,-0.41 0.67,-0.78 0.95,-1.1 0.3,-0.32 0.54,-0.59 0.75,-0.81 0.03,-0.07 0.07,-0.15 0.11,-0.24 0.03,-0.1 0.06,-0.19 0.09,-0.29 0.11,-0.22 0.23,-0.49 0.37,-0.8 0.13,-0.32 0.29,-0.69 0.47,-1.12 0.09,-0.25 0.16,-0.53 0.22,-0.85 0.06,-0.32 0.12,-0.67 0.17,-1.04 -0.02,-0.04 -0.03,-0.08 -0.03,-0.14 -0.01,-0.05 -0.03,-0.13 -0.06,-0.23 -0.15,0.07 -0.32,0.19 -0.51,0.34 -0.18,0.15 -0.38,0.33 -0.59,0.54 -0.28,0.36 -0.57,0.67 -0.85,0.91 -0.3,0.24 -0.58,0.43 -0.86,0.56 -0.19,0.36 -0.43,0.63 -0.72,0.81 -0.3,0.17 -0.64,0.26 -1.02,0.26 -0.28,0 -0.49,-0.07 -0.64,-0.2 -0.14,-0.13 -0.21,-0.33 -0.21,-0.6 0,-0.06 0,-0.12 0.01,-0.2 0.02,-0.07 0.04,-0.16 0.06,-0.27 -0.03,-0.08 -0.07,-0.2 -0.13,-0.35 0.04,-0.15 0.07,-0.31 0.1,-0.49 0,-0.25 -0.03,-0.44 -0.07,-0.57 -0.03,-0.13 -0.09,-0.19 -0.18,-0.19l-0.05 0.02c-0.09,0.07 -0.22,0.18 -0.4,0.31 -0.17,0.14 -0.37,0.3 -0.61,0.5 -0.04,-0.11 -0.09,-0.25 -0.16,-0.4 -0.07,-0.15 -0.13,-0.33 -0.2,-0.53 -0.02,-0.06 -0.04,-0.11 -0.07,-0.15 -0.03,-0.04 -0.06,-0.07 -0.09,-0.1z"/>
  <path id="_2" class="fil1" d="M43.01 27.41c-0.06,0.07 -0.13,0.13 -0.2,0.2 -0.07,0.07 -0.14,0.13 -0.21,0.2 -0.18,0.16 -0.37,0.31 -0.57,0.46 -0.2,0.15 -0.39,0.27 -0.57,0.37 -0.13,0.08 -0.27,0.15 -0.41,0.22 -0.14,0.07 -0.27,0.12 -0.4,0.17 -0.13,0.05 -0.25,0.08 -0.37,0.11 -0.12,0.03 -0.23,0.04 -0.32,0.04 -0.16,0 -0.3,-0.02 -0.46,-0.06 -0.15,-0.04 -0.29,-0.08 -0.41,-0.15 -0.17,-0.07 -0.34,-0.17 -0.49,-0.3 -0.16,-0.13 -0.31,-0.27 -0.46,-0.42 -0.09,-0.1 -0.19,-0.22 -0.31,-0.34 -0.12,-0.13 -0.24,-0.27 -0.38,-0.45 -0.05,0.06 -0.11,0.14 -0.16,0.21 -0.06,0.07 -0.12,0.14 -0.17,0.21 -0.1,0.14 -0.2,0.26 -0.29,0.39 -0.1,0.12 -0.19,0.25 -0.3,0.37 -0.13,0.17 -0.23,0.29 -0.29,0.34 -0.07,0.06 -0.17,0.16 -0.3,0.3 -0.12,0.13 -0.23,0.27 -0.32,0.42 -0.09,0.15 -0.18,0.28 -0.28,0.39 -0.29,0.28 -0.53,0.49 -0.76,0.65 -0.23,0.15 -0.37,0.23 -0.43,0.23 -0.3,-0.07 -0.53,-0.19 -0.67,-0.36 -0.14,-0.17 -0.24,-0.39 -0.3,-0.66 -0.06,-0.27 -0.06,-0.56 -0.02,-0.87 0.05,-0.32 0.11,-0.62 0.18,-0.91 0.05,-0.21 0.11,-0.45 0.19,-0.7 0.09,-0.26 0.16,-0.5 0.24,-0.73 0.09,-0.3 0.16,-0.56 0.22,-0.78 0.06,-0.22 0.07,-0.34 0.02,-0.37 -0.04,-0.03 -0.12,0.04 -0.25,0.21 -0.13,0.16 -0.27,0.34 -0.41,0.54 -0.18,0.24 -0.36,0.48 -0.55,0.72 -0.19,0.24 -0.43,0.48 -0.73,0.72l-0.5 -1.16c0.33,-0.28 0.7,-0.66 1.12,-1.13 0.42,-0.48 0.95,-1.09 1.57,-1.83 0.63,-0.75 1.06,-1.27 1.29,-1.58 0.24,-0.32 0.52,-0.38 0.85,-0.18 0.06,0.04 0.12,0.09 0.19,0.15 0.07,0.07 0.11,0.16 0.13,0.26 0.01,0.08 0.02,0.18 0.04,0.3 0,0.12 0.01,0.24 0,0.34 -0.01,0.09 -0.05,0.19 -0.12,0.29 -0.07,0.09 -0.13,0.19 -0.16,0.28 -0.03,0.1 -0.04,0.22 -0.05,0.33 0,0.12 -0.02,0.24 -0.04,0.36 -0.04,0.15 -0.08,0.31 -0.13,0.48 -0.05,0.18 -0.1,0.35 -0.15,0.53 -0.06,0.19 -0.11,0.38 -0.18,0.58 -0.06,0.2 -0.12,0.4 -0.17,0.6 -0.04,0.12 -0.08,0.26 -0.12,0.4 -0.04,0.15 -0.08,0.29 -0.1,0.41 -0.03,0.15 -0.05,0.29 -0.07,0.43 -0.02,0.14 -0.04,0.27 -0.04,0.39 -0.05,0.26 -0.03,0.38 0.05,0.36 0.08,-0.01 0.2,-0.14 0.35,-0.4 0.1,-0.15 0.21,-0.33 0.33,-0.53 0.12,-0.21 0.24,-0.38 0.36,-0.53 0.08,-0.09 0.15,-0.17 0.21,-0.24 0.06,-0.06 0.12,-0.13 0.17,-0.22 -0.01,-0.06 -0.06,-0.13 -0.14,-0.22 -0.07,-0.09 -0.11,-0.16 -0.11,-0.21 0,-0.08 0.01,-0.17 0.05,-0.28 0.03,-0.11 0.06,-0.2 0.08,-0.27 0.02,-0.11 0.07,-0.23 0.14,-0.34 0.08,-0.13 0.17,-0.24 0.29,-0.36 0.15,-0.15 0.3,-0.26 0.43,-0.33 0.14,-0.06 0.26,-0.09 0.36,-0.08 0.54,-0.92 1,-1.7 1.37,-2.35 0.37,-0.65 0.6,-1.08 0.7,-1.3 0.08,-0.17 0.21,-0.29 0.39,-0.36 0.18,-0.08 0.34,-0.1 0.49,-0.08 0.17,0.03 0.32,0.12 0.43,0.29 0.12,0.17 0.15,0.41 0.1,0.73 -0.01,0.07 -0.04,0.16 -0.08,0.27 -0.05,0.11 -0.11,0.23 -0.19,0.37 -0.07,0.14 -0.17,0.3 -0.31,0.47 -0.14,0.17 -0.27,0.36 -0.39,0.55 -0.04,0.08 -0.08,0.17 -0.12,0.26 -0.03,0.09 -0.07,0.18 -0.12,0.25 -0.07,0.11 -0.17,0.29 -0.3,0.53 -0.14,0.24 -0.24,0.42 -0.31,0.53 -0.13,0.21 -0.24,0.36 -0.35,0.45 -0.1,0.09 -0.23,0.25 -0.38,0.46 0.06,0.14 0.12,0.27 0.18,0.39 0.07,0.13 0.14,0.25 0.21,0.38 0.08,0.13 0.17,0.26 0.26,0.38 0.09,0.12 0.18,0.22 0.27,0.29 0.09,0.1 0.19,0.17 0.29,0.23 0.11,0.05 0.22,0.09 0.33,0.11 0.13,0.02 0.27,0.02 0.41,-0.01 0.16,-0.03 0.31,-0.08 0.46,-0.16 0.11,-0.04 0.22,-0.1 0.33,-0.18 0.12,-0.07 0.24,-0.16 0.37,-0.25 0.07,-0.06 0.15,-0.13 0.23,-0.19 0.08,-0.07 0.16,-0.14 0.24,-0.21l0.5 1.18z"/>
  <path id="_3" class="fil1" d="M42.35 26.44c0.06,-0.06 0.12,-0.13 0.18,-0.23 0.06,-0.1 0.14,-0.21 0.23,-0.33l0.98 -0.67c0.12,-0.14 0.31,-0.33 0.55,-0.55 0.25,-0.22 0.56,-0.5 0.93,-0.81 0.04,-0.1 0.11,-0.21 0.21,-0.33 0.09,-0.12 0.21,-0.25 0.35,-0.37 0.12,-0.11 0.24,-0.21 0.36,-0.31 0.11,-0.1 0.23,-0.19 0.33,-0.28 0.12,-0.14 0.25,-0.26 0.36,-0.39 0.12,-0.12 0.23,-0.25 0.35,-0.37 0.14,-0.12 0.28,-0.21 0.42,-0.28 0.14,-0.07 0.31,-0.1 0.48,-0.1 0.18,0 0.32,0.02 0.42,0.07 0.1,0.04 0.15,0.11 0.16,0.19 -0.08,0.2 -0.17,0.4 -0.27,0.59l0.08 0.12c0.37,-0.15 0.67,-0.25 0.88,-0.32 0.21,-0.07 0.35,-0.1 0.41,-0.1 0.62,0 1.08,0.18 1.39,0.56 0.31,0.38 0.47,0.96 0.47,1.72 0,0.15 -0.02,0.32 -0.05,0.52 -0.04,0.19 -0.09,0.4 -0.17,0.63 -0.08,0.26 -0.17,0.47 -0.27,0.64 -0.1,0.17 -0.19,0.3 -0.28,0.37 0.04,0.1 0.08,0.17 0.12,0.22 0.04,0.04 0.1,0.07 0.17,0.07 0.06,0 0.13,-0.02 0.21,-0.07 0.07,-0.04 0.16,-0.1 0.26,-0.19 0.09,0.19 0.17,0.38 0.25,0.59 0.08,0.2 0.16,0.39 0.25,0.59 -0.16,0.13 -0.31,0.27 -0.45,0.4 -0.15,0.13 -0.3,0.25 -0.46,0.37 -0.2,0.17 -0.38,0.28 -0.56,0.35 -0.17,0.08 -0.34,0.11 -0.51,0.11 -0.2,0 -0.36,-0.04 -0.49,-0.14 -0.13,-0.09 -0.23,-0.22 -0.3,-0.4 -0.22,0.29 -0.47,0.55 -0.78,0.78 -0.3,0.24 -0.63,0.43 -0.99,0.59 -0.22,0.1 -0.41,0.18 -0.59,0.24 -0.17,0.05 -0.33,0.08 -0.47,0.08 -0.05,0 -0.13,0.02 -0.25,0.05 -0.13,0.04 -0.23,0.05 -0.3,0.05 -0.49,0 -0.93,-0.2 -1.32,-0.62 -0.39,-0.41 -0.58,-0.87 -0.58,-1.37 0,-0.21 0.04,-0.48 0.13,-0.82 0.1,-0.33 0.15,-0.53 0.15,-0.59 0,-0.06 -0.02,-0.11 -0.06,-0.15 -0.04,-0.03 -0.09,-0.06 -0.16,-0.06 -0.04,0 -0.14,0.07 -0.31,0.2 -0.16,0.12 -0.39,0.3 -0.68,0.54 -0.03,0.04 -0.06,0.09 -0.1,0.16 -0.03,0.07 -0.08,0.14 -0.16,0.23 -0.07,-0.2 -0.15,-0.39 -0.24,-0.59 -0.08,-0.21 -0.18,-0.4 -0.28,-0.59zm6.14 -2.31c-0.04,0 -0.1,0.05 -0.18,0.13 -0.08,0.08 -0.16,0.18 -0.23,0.3 -0.13,0.19 -0.26,0.41 -0.41,0.64 -0.1,0.1 -0.2,0.18 -0.3,0.23 -0.11,0.06 -0.23,0.1 -0.37,0.13 -0.08,0 -0.17,0.09 -0.27,0.24 -0.09,0.16 -0.18,0.39 -0.28,0.69 -0.09,0.26 -0.16,0.49 -0.2,0.67 -0.05,0.19 -0.06,0.35 -0.06,0.48 0,0.24 0.05,0.41 0.18,0.54 0.11,0.11 0.3,0.18 0.54,0.18 0.39,0 0.75,-0.11 1.08,-0.33 0.33,-0.22 0.64,-0.55 0.93,-0.98 0.13,-0.16 0.26,-0.31 0.38,-0.46 0.07,-0.05 0.12,-0.13 0.16,-0.25 0.05,-0.11 0.09,-0.26 0.13,-0.43l0.23 -0.73c-0.07,-0.25 -0.15,-0.45 -0.21,-0.6 -0.07,-0.15 -0.14,-0.24 -0.21,-0.28 -0.04,-0.02 -0.13,-0.05 -0.28,-0.08 -0.15,-0.03 -0.36,-0.06 -0.63,-0.09z"/>
  <path id="_4" class="fil1" d="M51.58 26.44c0.11,-0.12 0.23,-0.26 0.38,-0.43 0.15,-0.16 0.33,-0.36 0.56,-0.6 0.08,-0.23 0.16,-0.53 0.23,-0.88 0.07,-0.36 0.13,-0.78 0.18,-1.25 0.06,-0.49 0.13,-0.91 0.2,-1.27 0.07,-0.37 0.14,-0.66 0.2,-0.88 0.38,-1.2 0.68,-2.13 0.89,-2.79 0.21,-0.66 0.34,-1.05 0.37,-1.17 0.28,-0.78 0.58,-1.47 0.89,-2.08 0.31,-0.61 0.62,-1.14 0.94,-1.59 0.07,-0.08 0.16,-0.18 0.24,-0.28 0.09,-0.09 0.18,-0.2 0.29,-0.31 0.32,-0.14 0.61,-0.28 0.88,-0.42 0.15,-0.07 0.31,-0.13 0.47,-0.17 0.15,-0.04 0.31,-0.06 0.46,-0.06 0.24,0 0.42,0.11 0.55,0.34 0.13,0.22 0.19,0.56 0.19,1.02 0,0.27 -0.03,0.59 -0.11,0.93 -0.08,0.35 -0.19,0.73 -0.32,1.14 -0.21,0.57 -0.36,1.04 -0.47,1.38 -0.11,0.35 -0.18,0.56 -0.21,0.65 -0.03,0.18 -0.11,0.4 -0.24,0.68 -0.13,0.27 -0.3,0.6 -0.51,0.99 -0.26,0.51 -0.47,0.89 -0.62,1.16 -0.15,0.28 -0.24,0.44 -0.26,0.49 -0.06,0.06 -0.12,0.12 -0.18,0.19 -0.07,0.06 -0.14,0.13 -0.2,0.2l0 0.29c-0.04,0.1 -0.09,0.17 -0.13,0.22 -0.15,0.28 -0.34,0.63 -0.58,1.04 -0.24,0.42 -0.54,0.9 -0.9,1.44 -0.2,0.28 -0.36,0.52 -0.46,0.74 -0.1,0.21 -0.15,0.4 -0.15,0.55l0 1.12c0.04,0.23 0.09,0.44 0.14,0.66 0.05,0.22 0.1,0.43 0.15,0.63 0.04,0.27 0.12,0.48 0.25,0.62 0.11,0.14 0.25,0.21 0.4,0.21 0.34,0 0.62,-0.08 0.85,-0.25 0.23,-0.16 0.39,-0.41 0.51,-0.75 -0.23,-0.1 -0.41,-0.21 -0.53,-0.33 -0.13,-0.12 -0.19,-0.25 -0.19,-0.39 0.04,-0.09 0.08,-0.18 0.11,-0.28 0.03,-0.1 0.06,-0.21 0.09,-0.32 0.01,-0.06 0.03,-0.12 0.05,-0.18 0.02,-0.06 0.04,-0.14 0.04,-0.23 0.39,-0.72 0.75,-1.25 1.07,-1.62 0.32,-0.36 0.61,-0.54 0.87,-0.54 0.05,0 0.15,0.01 0.29,0.03 0.13,0.02 0.23,0.04 0.3,0.04 0.05,0 0.13,-0.02 0.24,-0.05 0.11,-0.03 0.2,-0.05 0.24,-0.05 0.15,0 0.25,0.05 0.31,0.15 0.06,0.1 0.09,0.23 0.09,0.4 0,0.36 -0.11,0.75 -0.32,1.18 -0.21,0.42 -0.32,0.66 -0.32,0.72 0,0.05 0.04,0.1 0.1,0.17 0.06,-0.02 0.11,-0.05 0.17,-0.08 0.05,-0.03 0.1,-0.08 0.15,-0.13 0.04,0.11 0.09,0.24 0.17,0.38 0.07,0.15 0.15,0.31 0.24,0.5 0.04,0.06 0.07,0.12 0.09,0.16 0.02,0.05 0.03,0.09 0.03,0.14 -0.36,0.36 -0.68,0.65 -0.95,0.85 -0.27,0.19 -0.5,0.3 -0.69,0.32 -0.06,0 -0.13,0 -0.21,-0.01 -0.09,0 -0.19,-0.01 -0.31,-0.02 -0.12,0.15 -0.26,0.31 -0.43,0.5 -0.16,0.19 -0.35,0.41 -0.55,0.67 -0.09,0.06 -0.19,0.14 -0.32,0.24 -0.13,0.1 -0.27,0.22 -0.43,0.37 -0.25,0.24 -0.5,0.43 -0.74,0.54 -0.24,0.12 -0.49,0.18 -0.73,0.18 -0.11,0 -0.22,-0.02 -0.33,-0.05 -0.1,-0.03 -0.22,-0.09 -0.36,-0.17 -0.1,-0.06 -0.21,-0.13 -0.33,-0.22 -0.11,-0.08 -0.24,-0.19 -0.37,-0.31 -0.17,-0.52 -0.3,-1.01 -0.37,-1.45 -0.08,-0.45 -0.11,-0.87 -0.11,-1.28 0,-0.06 -0.01,-0.12 -0.03,-0.17 -0.01,-0.04 -0.03,-0.08 -0.05,-0.12l-0.12 -0.04 -0.09 0.04 -0.12 0.13c-0.07,-0.19 -0.15,-0.38 -0.24,-0.58 -0.09,-0.19 -0.18,-0.39 -0.29,-0.6zm5.92 -10.37c0,-0.04 0,-0.08 -0.02,-0.11 -0.01,-0.03 -0.03,-0.06 -0.07,-0.08 -0.05,-0.01 -0.11,0.05 -0.18,0.17 -0.07,0.12 -0.13,0.3 -0.19,0.53 -0.03,0.17 -0.11,0.37 -0.23,0.6 -0.12,0.23 -0.27,0.5 -0.46,0.82 -0.16,0.27 -0.32,0.58 -0.47,0.91 -0.15,0.34 -0.3,0.7 -0.46,1.09 -0.19,0.47 -0.34,0.87 -0.43,1.22 -0.09,0.35 -0.14,0.63 -0.14,0.84l0.02 0.12c0.07,-0.03 0.18,-0.2 0.34,-0.5 0.16,-0.3 0.37,-0.73 0.62,-1.29 0.24,-0.49 0.41,-0.88 0.53,-1.16 0.11,-0.29 0.18,-0.47 0.21,-0.56 0.07,-0.24 0.15,-0.51 0.24,-0.81 0.1,-0.31 0.2,-0.65 0.32,-1.03 0.09,-0.14 0.16,-0.26 0.22,-0.37 0.05,-0.06 0.09,-0.13 0.11,-0.2 0.03,-0.07 0.04,-0.13 0.04,-0.19z"/>
  <path id="_5" class="fil1" d="M63.41 29.42c0,0.12 -0.03,0.23 -0.1,0.34 -0.06,0.12 -0.15,0.22 -0.28,0.33 -0.04,0.12 -0.1,0.22 -0.16,0.28 -0.07,0.07 -0.15,0.1 -0.25,0.1 -0.35,0 -0.65,-0.12 -0.89,-0.37 -0.24,-0.25 -0.44,-0.62 -0.58,-1.1l0.08 -0.1 -0.12 -0.33c0.04,-0.13 0.08,-0.27 0.11,-0.39 0.03,-0.13 0.07,-0.26 0.1,-0.39 0.04,-0.16 0.11,-0.28 0.21,-0.35 0.1,-0.07 0.21,-0.11 0.34,-0.11 0.22,0 0.43,0.06 0.62,0.18 0.19,0.12 0.36,0.3 0.51,0.55 0.15,0.22 0.25,0.45 0.31,0.67 0.07,0.23 0.1,0.46 0.1,0.69z"/>
  <path id="_6" class="fil1" d="M65.1 25.29c-0.03,-0.1 -0.04,-0.17 -0.05,-0.24 0,-0.06 0,-0.11 0,-0.15 0,-0.28 0.03,-0.52 0.1,-0.72 0.07,-0.2 0.17,-0.37 0.31,-0.51 0.03,-0.03 0.12,-0.08 0.26,-0.15 0.14,-0.07 0.33,-0.15 0.55,-0.24 0.17,-0.08 0.3,-0.17 0.4,-0.28 0.09,-0.1 0.15,-0.24 0.16,-0.39 0.02,-0.12 0.07,-0.25 0.15,-0.41 0.07,-0.15 0.17,-0.32 0.27,-0.5 0.03,-0.05 0.14,-0.34 0.31,-0.88 0.17,-0.53 0.41,-1.32 0.71,-2.36 0.09,-0.32 0.17,-0.59 0.26,-0.82 0.08,-0.23 0.15,-0.43 0.21,-0.59 0.28,-0.72 0.5,-1.2 0.67,-1.42 0.18,-0.23 0.31,-0.41 0.4,-0.56l0 -0.06 -0.4 -0.63 0.5 -0.58 0.64 -0.12c0.12,-0.02 0.24,-0.14 0.35,-0.36 0.11,-0.22 0.29,-0.47 0.55,-0.73 0.07,-0.02 0.16,-0.07 0.29,-0.16 0.13,-0.09 0.3,-0.21 0.51,-0.38 0.18,-0.14 0.33,-0.25 0.46,-0.32 0.13,-0.06 0.22,-0.1 0.29,-0.1 0.23,0 0.4,0.05 0.5,0.14 0.1,0.1 0.15,0.22 0.15,0.37 0,0.19 -0.09,0.46 -0.29,0.82 -0.2,0.36 -0.29,0.63 -0.29,0.82 0,0.08 0.02,0.15 0.05,0.21 0.04,0.06 0.09,0.09 0.14,0.11l1.53 0.83c0.08,0.03 0.16,0.17 0.22,0.4 0.07,0.24 0.12,0.56 0.17,0.97 0.05,0.34 0.09,0.63 0.12,0.85 0.03,0.22 0.04,0.41 0.04,0.54 -0.05,0.37 -0.11,0.74 -0.17,1.12 0.08,0.47 0.17,0.98 0.28,1.5 -0.05,0.51 -0.11,1.02 -0.17,1.54 0,0.05 0.01,0.09 0.03,0.13 0.03,0.04 0.06,0.07 0.1,0.07 0.14,0.01 0.25,0.05 0.32,0.12 0.08,0.07 0.11,0.16 0.11,0.28 0,0.15 -0.02,0.28 -0.07,0.37 -0.05,0.08 -0.11,0.15 -0.19,0.21 -0.11,0.07 -0.2,0.12 -0.27,0.18 -0.06,0.05 -0.11,0.09 -0.13,0.12l0.16 0.8 -0.22 1.81c0,0.16 -0.02,0.35 -0.04,0.59 -0.03,0.24 -0.06,0.52 -0.12,0.83 -0.08,0.23 -0.14,0.42 -0.19,0.58 -0.04,0.15 -0.06,0.25 -0.06,0.3 0.04,0.15 0.08,0.3 0.12,0.46 -0.06,0.24 -0.11,0.46 -0.17,0.69 -0.05,0.23 -0.1,0.46 -0.15,0.68 -0.09,0.3 -0.22,0.52 -0.37,0.66 -0.16,0.14 -0.33,0.21 -0.54,0.21 -0.1,0 -0.19,-0.05 -0.24,-0.15 -0.06,-0.09 -0.09,-0.24 -0.09,-0.44 0,-0.08 0.02,-0.21 0.05,-0.37 0.03,-0.16 0.04,-0.29 0.04,-0.37 0,-0.06 -0.01,-0.14 -0.03,-0.24 -0.01,-0.1 -0.02,-0.19 -0.02,-0.27 0,-0.24 0.02,-0.62 0.07,-1.15 0.05,-0.52 0.07,-0.92 0.07,-1.18 -0.04,-0.15 -0.09,-0.29 -0.13,-0.45 0.03,-0.16 0.04,-0.32 0.05,-0.49 0.01,-0.17 0.01,-0.32 -0.01,-0.47l0.19 -0.34 -0.16 -1.19 -0.09 -0.04c-0.05,0 -0.13,0.02 -0.23,0.06 -0.09,0.04 -0.22,0.1 -0.36,0.18 -0.1,0.04 -0.26,0.07 -0.48,0.11 -0.22,0.04 -0.51,0.06 -0.86,0.07 -0.16,0.08 -0.3,0.15 -0.44,0.21 -0.2,0.04 -0.44,0.12 -0.74,0.22 -0.3,0.11 -0.65,0.24 -1.04,0.39 -0.23,0.11 -0.44,0.2 -0.63,0.26 -0.19,0.06 -0.35,0.1 -0.48,0.1 -0.1,0 -0.19,0.03 -0.26,0.11 -0.06,0.08 -0.12,0.19 -0.16,0.33 -0.03,0.14 -0.09,0.33 -0.19,0.57 -0.1,0.24 -0.23,0.53 -0.39,0.89 -0.03,0.1 -0.08,0.24 -0.14,0.44 -0.06,0.19 -0.12,0.44 -0.2,0.73 -0.06,0.11 -0.11,0.24 -0.18,0.41 -0.07,0.17 -0.15,0.36 -0.23,0.58 0,0.1 -0.01,0.23 -0.03,0.38 -0.03,0.15 -0.06,0.32 -0.1,0.52 -0.04,0.12 -0.1,0.27 -0.17,0.45 -0.07,0.18 -0.17,0.39 -0.28,0.61 -0.06,0.13 -0.16,0.23 -0.29,0.3 -0.13,0.06 -0.3,0.09 -0.5,0.09 -0.15,0 -0.26,-0.04 -0.34,-0.14 -0.08,-0.1 -0.12,-0.25 -0.12,-0.46 0,-0.22 0.03,-0.47 0.08,-0.76 0.05,-0.28 0.13,-0.6 0.24,-0.94 0.12,-0.45 0.22,-0.82 0.31,-1.1 0.08,-0.28 0.13,-0.49 0.14,-0.62 0.02,-0.06 0.06,-0.17 0.11,-0.32 0.05,-0.16 0.11,-0.34 0.18,-0.57 0.08,-0.21 0.15,-0.45 0.22,-0.72l-0.06 -0.11 -0.41 0.07c-0.1,-0.01 -0.17,-0.05 -0.21,-0.12 -0.04,-0.07 -0.06,-0.16 -0.06,-0.27 0,-0.06 0,-0.12 0.02,-0.19 0.02,-0.08 0.05,-0.16 0.08,-0.26zm4.64 -2.36c0.2,0 0.49,-0.04 0.87,-0.13 0.39,-0.1 0.67,-0.14 0.87,-0.14 0.12,0.02 0.24,0.04 0.36,0.06 0.21,-0.04 0.42,-0.09 0.63,-0.15 0.2,-0.05 0.41,-0.1 0.62,-0.15 0.09,-0.01 0.15,-0.04 0.2,-0.09 0.03,-0.05 0.06,-0.11 0.06,-0.18 -0.02,-0.26 -0.03,-0.44 -0.03,-0.53 0,-0.16 0.01,-0.34 0.04,-0.54 0.02,-0.2 0.05,-0.41 0.09,-0.62l-0.15 -0.58 0.05 -0.52c-0.03,-0.19 -0.06,-0.36 -0.09,-0.53 -0.02,-0.17 -0.02,-0.3 0,-0.42 -0.02,-0.03 -0.05,-0.08 -0.09,-0.16 -0.05,-0.08 -0.09,-0.16 -0.14,-0.24 -0.09,-0.15 -0.18,-0.29 -0.26,-0.42 -0.09,-0.13 -0.18,-0.27 -0.26,-0.4 -0.13,-0.16 -0.25,-0.28 -0.39,-0.36 -0.14,-0.08 -0.28,-0.11 -0.42,-0.11 -0.17,0 -0.35,0.13 -0.52,0.4 -0.18,0.28 -0.35,0.69 -0.51,1.24 -0.02,0.07 -0.09,0.21 -0.21,0.42 -0.11,0.22 -0.27,0.5 -0.49,0.84 -0.03,0.32 -0.15,0.72 -0.34,1.2 -0.2,0.48 -0.47,1.05 -0.82,1.7 -0.04,0.05 -0.06,0.11 -0.07,0.15 0,0.04 -0.01,0.09 -0.01,0.14 0,0.05 0.02,0.1 0.05,0.13 0.03,0.03 0.08,0.05 0.13,0.05 0.09,0 0.22,-0.01 0.42,-0.03 0.19,-0.02 0.33,-0.03 0.41,-0.03z"/>
 </g>
</svg>
