<?xml version="1.0" encoding="UTF-8"?>
<!DOCTYPE svg PUBLIC "-//W3C//DTD SVG 1.1//EN" "http://www.w3.org/Graphics/SVG/1.1/DTD/svg11.dtd">
<!-- Creator: CorelDRAW -->
<svg xmlns="http://www.w3.org/2000/svg" xml:space="preserve" width="2954px" height="792px" version="1.1" style="shape-rendering:geometricPrecision; text-rendering:geometricPrecision; image-rendering:optimizeQuality; fill-rule:evenodd; clip-rule:evenodd"
viewBox="0 0 3249.26 870.47"
 xmlns:xlink="http://www.w3.org/1999/xlink"
 xmlns:xodm="http://www.corel.com/coreldraw/odm/2003">
 <defs>
  <style type="text/css">
   <![CDATA[
    .str0 {stroke:white;stroke-width:3.44;stroke-miterlimit:22.9256}
    .fil2 {fill:black;fill-rule:nonzero}
    .fil1 {fill:url(#id0);fill-rule:nonzero}
    .fil0 {fill:url(#id1);fill-rule:nonzero}
   ]]>
  </style>
  <linearGradient id="id0" gradientUnits="userSpaceOnUse" x1="411.77" y1="232.55" x2="625.12" y2="593.12">
   <stop offset="0" style="stop-opacity:1; stop-color:white"/>
   <stop offset="1" style="stop-opacity:1; stop-color:#F1E5FC"/>
  </linearGradient>
  <linearGradient id="id1" gradientUnits="userSpaceOnUse" x1="162.15" y1="21.34" x2="1115.83" y2="778.73">
   <stop offset="0" style="stop-opacity:1; stop-color:#9013FE"/>
   <stop offset="1" style="stop-opacity:1; stop-color:#6610F2"/>
  </linearGradient>
 </defs>
 <g id="Слой_x0020_1">
  <metadata id="CorelCorpID_0Corel-Layer"/>
  <g id="Bootstrap_logo.svg">
   <path class="fil0" d="M120.5 113.76c-2.06,-59.18 44.05,-113.76 106.38,-113.76l638.68 0c62.32,0 108.44,54.58 106.37,113.76 -1.97,56.85 0.6,130.5 19.13,190.54 18.59,60.24 49.95,98.31 101.3,103.2l0 55.47c-51.35,4.89 -82.71,42.97 -101.3,103.2 -18.53,60.05 -21.1,133.69 -19.13,190.55 2.07,59.18 -44.05,113.75 -106.37,113.75l-638.68 0c-62.33,0 -108.44,-54.57 -106.38,-113.75 1.98,-56.86 -0.59,-130.5 -19.12,-190.55 -18.6,-60.23 -50.03,-98.31 -101.38,-103.2l0 -55.47c51.35,-4.89 82.78,-42.96 101.38,-103.2 18.53,-60.04 21.1,-133.69 19.12,-190.54z"/>
   <path class="fil1 str0" d="M569.87 666.63c100.91,0 161.71,-49.41 161.71,-130.9 0,-61.6 -43.38,-106.2 -107.81,-113.26l0 -2.56c47.34,-7.7 84.48,-51.66 84.48,-100.75 0,-69.94 -55.22,-115.5 -139.37,-115.5l-189.33 0 0 462.97 190.32 0zm-116.69 -404.26l97.95 0c53.25,0 83.49,23.75 83.49,66.74 0,45.88 -35.17,71.55 -98.94,71.55l-82.5 0 0 -138.29zm0 345.55l0 -152.4 97.29 0c69.69,0 105.84,25.67 105.84,75.72 0,50.05 -35.17,76.68 -101.56,76.68l-101.57 0z" filter="url(#bs-logo-c)"/>
  </g>
  <path class="fil2" d="M1282.34 238.63l122.11 0c24.23,0 42.22,0.99 54.08,2.98 11.95,2.06 22.54,6.26 31.92,12.58 9.38,6.4 17.2,14.86 23.45,25.45 6.26,10.59 9.38,22.53 9.38,35.68 0,14.21 -3.83,27.36 -11.51,39.23 -7.68,11.94 -18.12,20.82 -31.27,26.79 18.55,5.48 32.76,14.72 42.78,27.8 9.95,13.07 14.93,28.43 14.93,46.12 0,13.93 -3.2,27.44 -9.67,40.59 -6.47,13.14 -15.28,23.66 -26.51,31.55 -11.16,7.82 -24.94,12.65 -41.36,14.5 -10.24,1.07 -35.04,1.78 -74.35,2.06l-103.98 0 0 -305.33zm61.84 50.74l0 70.37 40.37 0c23.95,0 38.87,-0.36 44.7,-1.07 10.52,-1.21 18.84,-4.83 24.88,-10.87 6.04,-6.04 9.02,-13.93 9.02,-23.74 0,-9.45 -2.62,-17.06 -7.81,-22.96 -5.19,-5.9 -12.94,-9.45 -23.17,-10.66 -6.12,-0.71 -23.67,-1.07 -52.6,-1.07l-35.39 0zm0 121.11l0 81.88 57.14 0c22.17,0 36.32,-0.64 42.29,-1.84 9.17,-1.71 16.63,-5.76 22.39,-12.23 5.75,-6.54 8.67,-15.14 8.67,-26.01 0,-9.24 -2.2,-16.99 -6.68,-23.39 -4.41,-6.39 -10.88,-11.08 -19.26,-14 -8.39,-2.91 -26.66,-4.41 -54.73,-4.41l-49.82 0z"/>
  <path id="_1" class="fil2" d="M1576.23 430.6c0,-19.47 4.77,-38.31 14.36,-56.51 9.6,-18.26 23.17,-32.12 40.73,-41.72 17.55,-9.59 37.1,-14.42 58.78,-14.42 33.47,0 60.84,10.87 82.23,32.62 21.39,21.82 32.05,49.25 32.05,82.52 0,33.54 -10.8,61.33 -32.34,83.37 -21.6,22.03 -48.75,33.05 -81.52,33.05 -20.25,0 -39.59,-4.62 -57.99,-13.79 -18.34,-9.17 -32.34,-22.6 -41.94,-40.37 -9.59,-17.7 -14.36,-39.31 -14.36,-64.75zm60.13 3.13c0,21.96 5.19,38.8 15.57,50.46 10.45,11.73 23.24,17.56 38.52,17.56 15.21,0 28.01,-5.83 38.31,-17.56 10.31,-11.66 15.49,-28.64 15.49,-50.89 0,-21.68 -5.18,-38.38 -15.49,-50.04 -10.3,-11.72 -23.1,-17.55 -38.31,-17.55 -15.28,0 -28.07,5.83 -38.52,17.55 -10.38,11.66 -15.57,28.5 -15.57,50.47z"/>
  <path id="_2" class="fil2" d="M1836.72 430.6c0,-19.47 4.77,-38.31 14.36,-56.51 9.6,-18.26 23.17,-32.12 40.73,-41.72 17.55,-9.59 37.1,-14.42 58.78,-14.42 33.47,0 60.83,10.87 82.23,32.62 21.39,21.82 32.05,49.25 32.05,82.52 0,33.54 -10.8,61.33 -32.34,83.37 -21.6,22.03 -48.75,33.05 -81.52,33.05 -20.25,0 -39.59,-4.62 -58,-13.79 -18.33,-9.17 -32.33,-22.6 -41.93,-40.37 -9.59,-17.7 -14.36,-39.31 -14.36,-64.75zm60.13 3.13c0,21.96 5.19,38.8 15.57,50.46 10.45,11.73 23.24,17.56 38.52,17.56 15.21,0 28,-5.83 38.31,-17.56 10.31,-11.66 15.49,-28.64 15.49,-50.89 0,-21.68 -5.18,-38.38 -15.49,-50.04 -10.31,-11.72 -23.1,-17.55 -38.31,-17.55 -15.28,0 -28.07,5.83 -38.52,17.55 -10.38,11.66 -15.57,28.5 -15.57,50.47z"/>
  <path id="_3" class="fil2" d="M2211.93 322.64l0 46.48 -40.09 0 0 89.62c0,18.2 0.36,28.79 1.14,31.78 0.78,2.98 2.48,5.47 5.26,7.46 2.7,1.92 5.97,2.91 9.88,2.91 5.47,0 13.29,-1.85 23.59,-5.61l4.91 45.49c-13.58,5.82 -28.93,8.74 -46.13,8.74 -10.52,0 -19.97,-1.78 -28.43,-5.33 -8.46,-3.56 -14.64,-8.18 -18.55,-13.79 -3.98,-5.69 -6.68,-13.29 -8.25,-22.96 -1.2,-6.82 -1.84,-20.61 -1.84,-41.44l0 -96.87 -26.87 0 0 -46.48 26.87 0 0 -43.93 58.42 -34.54 0 78.47 40.09 0z"/>
  <path id="_4" class="fil2" d="M2231.97 481.7l58.85 -8.95c2.49,11.3 7.53,19.9 15.21,25.73 7.6,5.9 18.34,8.81 32.05,8.81 15.14,0 26.52,-2.77 34.19,-8.32 5.12,-3.91 7.68,-9.16 7.68,-15.7 0,-4.41 -1.42,-8.11 -4.2,-11.02 -2.91,-2.77 -9.45,-5.4 -19.54,-7.75 -47.27,-10.45 -77.19,-19.97 -89.84,-28.57 -17.56,-12.01 -26.3,-28.64 -26.3,-49.89 0,-19.26 7.61,-35.4 22.75,-48.48 15.14,-13.07 38.59,-19.61 70.36,-19.61 30.28,0 52.81,4.97 67.52,14.85 14.71,9.95 24.88,24.59 30.42,44l-55.01 10.23c-2.35,-8.67 -6.9,-15.35 -13.5,-19.97 -6.62,-4.62 -16.07,-6.9 -28.36,-6.9 -15.5,0 -26.59,2.14 -33.34,6.47 -4.48,3.06 -6.68,7.04 -6.68,11.87 0,4.2 1.92,7.75 5.83,10.66 5.33,3.91 23.6,9.38 54.87,16.49 31.27,7.11 53.09,15.78 65.46,26.09 12.29,10.37 18.41,24.94 18.41,43.56 0,20.26 -8.46,37.75 -25.45,52.32 -16.91,14.57 -42,21.89 -75.27,21.89 -30.13,0 -54.01,-6.12 -71.64,-18.27 -17.55,-12.15 -29.07,-28.64 -34.47,-49.54z"/>
  <path id="_5" class="fil2" d="M2591.11 322.64l0 46.48 -40.09 0 0 89.62c0,18.2 0.36,28.79 1.14,31.78 0.78,2.98 2.49,5.47 5.26,7.46 2.7,1.92 5.97,2.91 9.88,2.91 5.47,0 13.29,-1.85 23.6,-5.61l4.9 45.49c-13.57,5.82 -28.93,8.74 -46.13,8.74 -10.52,0 -19.97,-1.78 -28.43,-5.33 -8.45,-3.56 -14.64,-8.18 -18.55,-13.79 -3.98,-5.69 -6.68,-13.29 -8.24,-22.96 -1.21,-6.82 -1.85,-20.61 -1.85,-41.44l0 -96.87 -26.86 0 0 -46.48 26.86 0 0 -43.93 58.42 -34.54 0 78.47 40.09 0z"/>
  <path id="_6" class="fil2" d="M2687.91 543.96l-58.42 0 0 -221.32 54.16 0 0 31.41c9.31,-14.85 17.7,-24.59 25.16,-29.21 7.46,-4.62 15.92,-6.89 25.37,-6.89 13.37,0 26.23,3.69 38.6,11.01l-18.13 51.03c-9.88,-6.39 -19.04,-9.59 -27.5,-9.59 -8.25,0 -15.21,2.27 -20.9,6.75 -5.68,4.55 -10.16,12.65 -13.43,24.45 -3.27,11.8 -4.91,36.53 -4.91,74.13l0 68.23z"/>
  <path id="_7" class="fil2" d="M2841.51 390.87l-52.88 -9.38c5.97,-21.61 16.27,-37.6 30.84,-47.98 14.57,-10.38 36.25,-15.56 64.97,-15.56 26.08,0 45.55,3.05 58.35,9.24 12.72,6.18 21.75,14 26.94,23.52 5.18,9.53 7.81,26.94 7.81,52.38l-0.85 68.23c0,19.41 0.92,33.77 2.77,43.01 1.85,9.23 5.33,19.11 10.45,29.63l-58 0c-1.49,-3.83 -3.41,-9.52 -5.61,-17.05 -0.92,-3.49 -1.64,-5.76 -2.06,-6.83 -9.95,9.81 -20.61,17.13 -31.99,22.04 -11.37,4.9 -23.45,7.39 -36.32,7.39 -22.67,0 -40.58,-6.19 -53.66,-18.55 -13.07,-12.3 -19.61,-27.94 -19.61,-46.84 0,-12.44 2.98,-23.6 8.95,-33.41 5.97,-9.73 14.29,-17.27 25.09,-22.46 10.73,-5.18 26.23,-9.73 46.48,-13.64 27.3,-5.12 46.27,-9.95 56.79,-14.36l0 -5.9c0,-11.37 -2.77,-19.47 -8.31,-24.38 -5.62,-4.83 -16.14,-7.25 -31.56,-7.25 -10.45,0 -18.55,2.06 -24.38,6.26 -5.9,4.12 -10.59,11.44 -14.21,21.89zm78.46 47.33c-7.46,2.49 -19.33,5.48 -35.61,8.96 -16.2,3.48 -26.86,6.89 -31.84,10.16 -7.6,5.48 -11.44,12.3 -11.44,20.62 0,8.24 3.06,15.28 9.17,21.25 6.11,5.97 13.86,8.95 23.31,8.95 10.52,0 20.61,-3.48 30.21,-10.37 7.03,-5.34 11.73,-11.73 13.93,-19.41 1.49,-4.97 2.27,-14.5 2.27,-28.5l0 -11.66z"/>
  <path id="_8" class="fil2" d="M3033.48 322.64l54.58 0 0 32.48c7.11,-11.09 16.64,-20.04 28.72,-26.94 12.08,-6.82 25.51,-10.23 40.23,-10.23 25.66,0 47.48,10.09 65.39,30.27 17.91,20.12 26.86,48.26 26.86,84.23 0,37.03 -9.02,65.74 -27.08,86.28 -18.05,20.54 -39.94,30.78 -65.67,30.78 -12.23,0 -23.31,-2.42 -33.26,-7.32 -9.88,-4.84 -20.4,-13.15 -31.35,-24.95l0 110.73 -58.42 0 0 -305.33zm57.57 107.25c0,24.95 4.9,43.35 14.78,55.29 9.81,11.87 21.82,17.84 35.9,17.84 13.57,0 24.87,-5.47 33.9,-16.41 9.03,-10.95 13.5,-28.86 13.5,-53.81 0,-23.31 -4.62,-40.58 -13.93,-51.88 -9.24,-11.3 -20.75,-16.92 -34.47,-16.92 -14.29,0 -26.15,5.55 -35.54,16.63 -9.45,11.09 -14.14,27.51 -14.14,49.26z"/>
 </g>
</svg>
