<?xml version="1.0" encoding="UTF-8"?>
<!DOCTYPE svg PUBLIC "-//W3C//DTD SVG 1.1//EN" "http://www.w3.org/Graphics/SVG/1.1/DTD/svg11.dtd">
<!-- Creator: CorelDRAW -->
<svg xmlns="http://www.w3.org/2000/svg" xml:space="preserve" width="1641px" height="802px" version="1.1" style="shape-rendering:geometricPrecision; text-rendering:geometricPrecision; image-rendering:optimizeQuality; fill-rule:evenodd; clip-rule:evenodd"
viewBox="0 0 724.7 353.99"
 xmlns:xlink="http://www.w3.org/1999/xlink"
 xmlns:xodm="http://www.corel.com/coreldraw/odm/2003">
 <defs>
  <style type="text/css">
   <![CDATA[
    .fil13 {fill:#97CC1A}
    .fil6 {fill:#00863F;fill-rule:nonzero}
    .fil2 {fill:#008A5A;fill-rule:nonzero}
    .fil3 {fill:#009550;fill-rule:nonzero}
    .fil4 {fill:#00983E;fill-rule:nonzero}
    .fil5 {fill:#009A37;fill-rule:nonzero}
    .fil7 {fill:#06CBF6;fill-rule:nonzero}
    .fil0 {fill:#1E120D;fill-rule:nonzero}
    .fil1 {fill:#2AC64B;fill-rule:nonzero}
    .fil9 {fill:#666565;fill-rule:nonzero}
    .fil18 {fill:url(#id0)}
    .fil11 {fill:url(#id1)}
    .fil14 {fill:url(#id2)}
    .fil10 {fill:url(#id3)}
    .fil17 {fill:url(#id4)}
    .fil15 {fill:url(#id5)}
    .fil19 {fill:url(#id6)}
    .fil12 {fill:url(#id7)}
    .fil16 {fill:url(#id8)}
    .fil8 {fill:url(#id9);fill-rule:nonzero}
   ]]>
  </style>
  <linearGradient id="id0" gradientUnits="userSpaceOnUse" x1="122.34" y1="316.53" x2="74.89" y2="236.58">
   <stop offset="0" style="stop-opacity:1; stop-color:#E1282B"/>
   <stop offset="0.388235" style="stop-opacity:1; stop-color:#E3402A"/>
   <stop offset="0.701961" style="stop-opacity:1; stop-color:#E76226"/>
   <stop offset="1" style="stop-opacity:1; stop-color:#F19A0A"/>
  </linearGradient>
  <linearGradient id="id1" gradientUnits="userSpaceOnUse" x1="63.47" y1="256.4" x2="25.09" y2="161.58">
   <stop offset="0" style="stop-opacity:1; stop-color:#CB1918"/>
   <stop offset="0.388235" style="stop-opacity:1; stop-color:#A2183D"/>
   <stop offset="0.74902" style="stop-opacity:1; stop-color:#902869"/>
   <stop offset="1" style="stop-opacity:1; stop-color:#73358A"/>
  </linearGradient>
  <linearGradient id="id2" gradientUnits="userSpaceOnUse" x1="192.97" y1="178.88" x2="137.37" y2="239.69">
   <stop offset="0" style="stop-opacity:1; stop-color:#ADD816"/>
   <stop offset="1" style="stop-opacity:1; stop-color:#DBD704"/>
  </linearGradient>
  <linearGradient id="id3" gradientUnits="userSpaceOnUse" xlink:href="#id1" x1="82.87" y1="248.59" x2="44.49" y2="153.69">
  </linearGradient>
  <linearGradient id="id4" gradientUnits="userSpaceOnUse" xlink:href="#id0" x1="148.46" y1="300.99" x2="101.01" y2="221.13">
  </linearGradient>
  <linearGradient id="id5" gradientUnits="userSpaceOnUse" xlink:href="#id0" x1="153.5" y1="298.05" x2="106.05" y2="218.1">
  </linearGradient>
  <linearGradient id="id6" gradientUnits="userSpaceOnUse" xlink:href="#id0" x1="113.52" y1="321.65" x2="66.15" y2="241.79">
  </linearGradient>
  <linearGradient id="id7" gradientUnits="userSpaceOnUse" xlink:href="#id1" x1="116.71" y1="234.9" x2="78.33" y2="140">
  </linearGradient>
  <linearGradient id="id8" gradientUnits="userSpaceOnUse" xlink:href="#id0" x1="156.52" y1="296.21" x2="109.07" y2="216.34">
  </linearGradient>
  <linearGradient id="id9" gradientUnits="userSpaceOnUse" x1="70.86" y1="20.07" x2="226.81" y2="24.86">
   <stop offset="0" style="stop-opacity:1; stop-color:#0288F7"/>
   <stop offset="1" style="stop-opacity:1; stop-color:#2EE2BD"/>
  </linearGradient>
 </defs>
 <g id="Слой_x0020_1">
  <metadata id="CorelCorpID_0Corel-Layer"/>
  <path class="fil0" d="M717.49 155.34l1.2 0c0.57,0 0.97,-0.09 1.18,-0.26 0.2,-0.17 0.31,-0.4 0.31,-0.68 0,-0.18 -0.05,-0.34 -0.15,-0.49 -0.1,-0.14 -0.24,-0.25 -0.42,-0.32 -0.18,-0.07 -0.51,-0.1 -1,-0.1l-1.12 0 0 1.85zm-1 3.46l0 -6.15 2.12 0c0.72,0 1.24,0.06 1.56,0.17 0.32,0.12 0.58,0.31 0.77,0.6 0.19,0.28 0.29,0.58 0.29,0.9 0,0.45 -0.16,0.84 -0.48,1.17 -0.32,0.33 -0.74,0.52 -1.28,0.56 0.22,0.09 0.4,0.2 0.53,0.33 0.25,0.24 0.55,0.64 0.9,1.21l0.75 1.21 -1.21 0 -0.54 -0.97c-0.43,-0.76 -0.77,-1.24 -1.04,-1.43 -0.18,-0.14 -0.45,-0.21 -0.79,-0.21l-0.58 0 0 2.61 -1 0zm2.51 -7.93c-0.81,0 -1.58,0.21 -2.34,0.62 -0.76,0.41 -1.35,1 -1.78,1.76 -0.43,0.77 -0.65,1.56 -0.65,2.39 0,0.82 0.21,1.61 0.63,2.36 0.43,0.76 1.02,1.35 1.77,1.77 0.76,0.42 1.54,0.63 2.37,0.63 0.82,0 1.61,-0.21 2.37,-0.63 0.75,-0.42 1.34,-1.01 1.76,-1.77 0.42,-0.75 0.63,-1.54 0.63,-2.36 0,-0.83 -0.21,-1.62 -0.64,-2.39 -0.43,-0.76 -1.02,-1.35 -1.78,-1.76 -0.77,-0.41 -1.55,-0.62 -2.34,-0.62l0 0zm0 -0.94c0.96,0 1.89,0.24 2.81,0.74 0.91,0.49 1.62,1.19 2.13,2.11 0.51,0.91 0.76,1.87 0.76,2.86 0,0.98 -0.25,1.93 -0.75,2.84 -0.5,0.91 -1.21,1.61 -2.11,2.11 -0.9,0.5 -1.85,0.75 -2.84,0.75 -0.99,0 -1.94,-0.25 -2.84,-0.75 -0.91,-0.5 -1.61,-1.2 -2.12,-2.11 -0.5,-0.91 -0.75,-1.86 -0.75,-2.84 0,-0.99 0.25,-1.95 0.77,-2.86 0.51,-0.92 1.22,-1.62 2.13,-2.11 0.91,-0.5 1.85,-0.74 2.81,-0.74l0 0zm-66.76 58.08l12.28 0.48 10.01 -45.45 10.39 45.45 12.48 0 11.12 -57.92 -9.48 0 -7.35 47.67 -1.74 0 -10.73 -47.67 -8.7 0 -10.55 47.67 -1.35 0 -7.83 -47.67 -10.25 0 11.7 57.44zm-24.19 -22.92l-7.33 -26.88 -2.04 0 -7.18 26.88 16.55 0zm2.01 7.35l-20.53 0 -4.29 16.05 -10.15 0 18.86 -57.92 11.79 0 19.15 57.92 -10.44 0 -4.39 -16.05zm-71.04 -14.6l12.28 0c5.29,0 9.57,-4.29 9.57,-9.58l0 -0.48c0,-5.29 -4.28,-9.57 -9.57,-9.57l-12.28 0 0 19.63zm21.85 30.65l-13.31 -23.4 -8.54 0 0 23.4 -10.25 0 0 -57.92 24.32 0c9.37,0 16.97,7.6 16.97,16.97l0 0.58c0,7.64 -5.05,14.1 -11.99,16.23l13.73 24.14 -10.93 0zm-49.21 -31.38l0 4.84c0,10.44 -8.46,18.9 -18.91,18.9l-5.85 0 0 -42.64 5.85 0c10.45,0 18.91,8.46 18.91,18.9zm-16.4 -26.54l-17.94 0 0 57.92 17.94 0c14.18,0 25.68,-11.49 25.68,-25.67l0 -6.58c0,-14.18 -11.5,-25.67 -25.68,-25.67l0 0zm-26.93 50.86l-1.35 0c-1.34,0 -2.42,-1.08 -2.42,-2.42l0 -48.35 -10.15 0 0 48.06c0,15.19 14.89,10.16 14.89,10.16l-0.97 -7.45zm-29.88 -18.76l-20.4 0c0,0 1.83,-11.6 10.2,-11.6 8.36,0 10.2,7.45 10.2,11.6zm-29.39 4.11c0,15.52 9.86,20.94 18.08,22.58 8.22,1.65 17.98,-4.25 17.98,-4.25 0,0 -1.93,-3.48 -3.77,-5.9 -1.16,0.77 -8.22,5.7 -15.47,2.22 -7.25,-3.48 -8.03,-12.28 -8.03,-12.28l28.53 0c1.84,-19.43 -8.51,-25.24 -17.41,-25.24 -8.41,0 -19.91,7.35 -19.91,22.87l0 0zm-2.81 -14.07c0,0 0.77,-3.19 1.84,-8.02 -9.58,-4.55 -18.47,9.18 -18.47,9.18l0 -9.18 -8.12 0 0 43.61 9.28 0 0 -26.59c6.96,-12.19 15.47,-9 15.47,-9l0 0zm-40.13 13.93c0,8.41 -5.07,15.23 -11.31,15.23 -6.25,0 -11.32,-6.82 -11.32,-15.23 0,-8.41 5.07,-15.23 11.32,-15.23 6.24,0 11.31,6.82 11.31,15.23zm-11.61 -22.73c-11.37,0 -20.59,10.18 -20.59,22.73 0,12.55 9.22,22.72 20.59,22.72 11.38,0 20.6,-10.17 20.6,-22.72 0,-12.55 -9.22,-22.73 -20.6,-22.73zm-24.12 37.38c-4.82,5.35 -11.4,8.65 -18.67,8.65 -14.76,0 -26.73,-13.64 -26.73,-30.46 0,-16.82 11.97,-30.46 26.73,-30.46 6.56,0 12.56,2.69 17.22,7.16l-5.34 6.81c-3.04,-3.28 -6.98,-5.27 -11.3,-5.27 -9.58,0 -17.35,9.74 -17.35,21.76 0,12.02 7.77,21.76 17.35,21.76 4.69,0 8.94,-2.34 12.07,-6.13l6.02 6.18z"/>
  <g id="_1663234211920">
   <path class="fil1" d="M12.63 119.45c-4.32,-1.96 -8.07,-3.48 -11.11,-4.63 -0.65,-4.81 -1.11,-9.62 -1.41,-14.45 -0.23,-3.97 -0.09,-7.9 0.39,-11.76 2.59,0.43 6.27,1.07 10.85,1.96 -0.45,5.46 -0.49,11.22 0,17.3 0.32,3.89 0.74,7.75 1.28,11.58l0 0zm42.75 25.24c-10.93,-8.02 -21.2,-14.24 -30.12,-19 -1.81,-11.12 -2.58,-22.13 -1.9,-32.61 8.25,1.82 18,4.17 28.73,7.15 -0.71,14.02 0.61,29.1 3.29,44.46l0 0zm112.28 5.85c-0.11,1.22 -0.25,2.44 -0.38,3.67 -14.94,7.8 -29.8,18.31 -43.16,32.48 -4.33,4.59 -8.26,9.18 -11.87,13.77 -4.03,-5.11 -8.35,-10.29 -12.93,-15.5 -2.06,-2.32 -4.11,-4.58 -6.19,-6.77 -3.43,-23 -5.62,-45.7 -6.02,-66.96 26.59,9.44 55.29,22.24 80.55,39.31l0 0z"/>
   <path class="fil2" d="M15.9 68.22c-2.24,6.78 -3.86,14.23 -4.54,22.35 -4.59,-0.89 -8.27,-1.53 -10.86,-1.96 0.29,-2.43 0.72,-4.83 1.27,-7.19 3.26,-3.5 7.97,-8.14 14.13,-13.2l0 0z"/>
   <path class="fil3" d="M67.92 38.91c-7.86,14.43 -14.17,33.86 -15.75,59.8 -0.03,0.5 -0.05,1.01 -0.08,1.52 -10.73,-2.99 -20.48,-5.33 -28.73,-7.15 0.01,-0.35 0.04,-0.69 0.06,-1.04 1.03,-13.59 5.04,-26.06 11.11,-37.14 9.39,-5.8 20.5,-11.43 33.39,-15.99z"/>
   <path class="fil4" d="M167.66 150.54c-25.26,-17.07 -53.96,-29.87 -80.55,-39.31 -0.51,-25.33 1.47,-48.62 6.71,-67.91 0.14,-0.53 0.28,-1.06 0.44,-1.58 21.08,12.46 48.55,26.35 74.63,32.46 2.28,22.99 1.59,49.12 -1.23,76.34l0 0z"/>
   <path class="fil5" d="M257.18 100.37c-0.65,10.7 -2.17,21.29 -4.54,31.88 -3.02,0.11 -6.48,0.31 -10.32,0.64 1.69,-8.16 2.93,-16.51 3.61,-25.02 2.29,-28.62 -6.96,-50.43 -17.66,-65.65 3.14,0.89 6.11,1.77 8.88,2.62 12.02,15.24 21.3,34.81 20.03,55.53zm-26.73 33.9c-8.37,1.2 -17.83,3.08 -27.81,5.93 2.29,-14.37 3.28,-28.4 2.48,-41.5 -1.82,-29.86 -9.9,-51.09 -19.41,-66 8.94,1.48 17.42,3.22 25.25,5.05 12.48,14.75 21.31,33.14 22.9,54.29 1.01,13.48 -0.44,27.85 -3.41,42.23z"/>
   <path class="fil6" d="M168.89 74.2c-26.08,-6.11 -53.55,-20 -74.63,-32.46 1.11,-3.86 2.36,-7.37 3.73,-10.56 3.86,-0.66 7.83,-1.2 11.93,-1.61 16.47,-1.68 32.92,-1.53 48.58,-0.24 1.85,4.08 3.54,8.72 4.97,13.99 2.56,9.41 4.34,19.78 5.42,30.88l0 0z"/>
   <path class="fil7" d="M56.3 15.43c-0.87,0.53 -28.88,17.78 -40.4,52.79 -6.16,5.06 -10.87,9.7 -14.12,13.2 7.61,-33.03 38.02,-60.01 54.52,-65.99l0 0zm17.72 13.62c-2.1,3 -4.15,6.28 -6.1,9.87 -12.89,4.55 -24,10.18 -33.39,15.98 7.18,-13.17 17.26,-24.39 28.64,-33.29 2.7,1.93 6.39,4.48 10.85,7.44l0 0z"/>
   <path class="fil8" d="M237.16 44.84c-2.78,-0.85 -5.75,-1.73 -8.89,-2.62 -12.64,-18 -27.3,-26.81 -27.3,-26.81 9.73,3.52 24.3,14.36 36.19,29.43zm-26.2 -7.09c-7.83,-1.83 -16.31,-3.57 -25.25,-5.05 -16.05,-25.2 -36.21,-32.35 -37.19,-32.69 21.61,4.33 45.42,17.65 62.44,37.74zm-52.46 -8.42c-15.66,-1.29 -32.11,-1.44 -48.58,0.24 -4.1,0.41 -8.07,0.95 -11.93,1.61 11.56,-27.28 30.39,-31.18 30.39,-31.18l0.53 0c0,0 17.97,3.72 29.59,29.33l0 0zm-49.73 -29.32c-0.93,0.33 -19.16,6.79 -34.75,29.04 -4.46,-2.96 -8.15,-5.51 -10.86,-7.44 14.22,-11.1 30.45,-18.56 45.61,-21.6z"/>
   <polygon class="fil9" points="128.64,353.99 147.99,353.99 155.15,322.76 102.14,322.76 109.3,353.99 "/>
   <path class="fil10" d="M55.57 214.18c3.72,7.7 7.27,14.57 10.33,20.3 5.24,9.81 10.23,18.15 15.37,25.74 1.48,-5.2 3.34,-10.69 5.65,-16.37 -3.99,-9.15 -7.99,-18.98 -11.8,-29.22 -8.27,-22.24 -15.62,-46.44 -19.74,-69.94 -10.93,-8.01 -21.2,-14.24 -30.12,-19 5.11,31.63 18.55,64.2 30.31,88.49z"/>
   <path class="fil11" d="M38.09 213.78c2.11,3.68 4.3,7.38 6.57,11.12 10.63,17.41 22.9,33.5 33.82,46.57 0.32,-1.59 0.7,-3.22 1.11,-4.88 -4.42,-6.07 -8.73,-12.24 -12.44,-17.97 -5.31,-8.18 -13.01,-20.04 -21.02,-34.65 -13.74,-25.04 -28.41,-58.15 -33.5,-94.52 -4.32,-1.96 -8.07,-3.48 -11.11,-4.63 4.39,32.61 16.86,64.62 36.57,98.96l0 0z"/>
   <path class="fil12" d="M95.06 190.32c1.38,8.24 2.99,16.6 4.73,24.87 0.17,0.79 0.34,1.57 0.51,2.36 3.48,-5.64 7.45,-11.36 11.95,-17.09 -4.13,-5.22 -8.51,-10.45 -12.94,-15.48 -2.05,-2.32 -4.11,-4.58 -6.18,-6.78 0.6,4.05 1.23,8.09 1.92,12.14l0.01 -0.02z"/>
   <path class="fil13" d="M242.32 132.89c-4.92,23.9 -13.59,46.04 -22.81,64.96 1.86,1.88 3.68,3.74 5.44,5.59 13.14,-24.42 22.48,-47.79 27.69,-71.19 -3.02,0.12 -6.48,0.3 -10.32,0.64zm-39.67 7.31c-1.81,11.41 -4.41,23.03 -7.55,34.55 5.43,4.9 11.37,10.39 17.21,16.02 7.3,-17.44 14.13,-36.99 18.15,-56.5 -8.39,1.21 -17.84,3.08 -27.81,5.93z"/>
   <path class="fil14" d="M124.12 186.69c-4.33,4.59 -8.26,9.18 -11.87,13.77 15.71,19.85 27.4,38.73 35.86,54.52 3.07,-11.88 6.26,-25.02 9.11,-38.49 1.85,-8.69 3.55,-17.49 5.01,-26.17 2.04,-12.11 3.75,-24.21 5.05,-36.11 -14.94,7.8 -29.8,18.31 -43.16,32.48l0 0zm95.39 11.16c-0.35,0.73 -0.71,1.45 -1.06,2.16 -10.43,21.05 -21.39,37.95 -28.32,48.61 -7.99,12.31 -18.76,26.73 -27.29,37.77 0.31,0.82 0.61,1.58 0.89,2.3 13.22,-14.4 32.92,-37.6 48.89,-63.79 4.01,-6.58 7.76,-13.06 11.25,-19.47 0.37,-0.66 0.73,-1.33 1.08,-1.99 -1.76,-1.85 -3.58,-3.72 -5.44,-5.59l0 0zm-24.41 -23.1l-0.42 1.5c-10.12,36.57 -25.55,72 -37.76,96.42 1.34,2.9 2.54,5.6 3.6,8.08 11.27,-13.42 20.56,-27 30.87,-46.27 5.66,-10.61 13,-25.08 20,-41.53l0.92 -2.18c-5.84,-5.63 -11.78,-11.12 -17.21,-16.02l0 0z"/>
   <path class="fil15" d="M138.82 304.49c8.24,-8.53 15.29,-16.11 21.7,-23.74 -1.06,-2.48 -2.26,-5.18 -3.6,-8.08 -8.64,17.3 -15.7,29.07 -18.1,31.82l0 0z"/>
   <path class="fil16" d="M148.93 303.99c0.44,-0.43 6.28,-6.04 14.8,-15.3 -0.28,-0.72 -0.58,-1.48 -0.89,-2.3 -7.63,9.88 -13.46,17.06 -13.91,17.6l0 0z"/>
   <path class="fil17" d="M100.3 217.55c9.73,45.54 23.08,87.3 23.08,87.3l10.53 0c0,0 6.77,-21.21 14.2,-49.87 -8.46,-15.79 -20.15,-34.67 -35.86,-54.52 -4.5,5.73 -8.47,11.45 -11.95,17.09z"/>
   <path class="fil18" d="M81.27 260.22c10.64,15.8 21.85,28.37 37.2,44.27 -3.58,-4.09 -17.42,-28.14 -31.55,-60.64 -2.31,5.68 -4.17,11.17 -5.65,16.37z"/>
   <path class="fil19" d="M78.48 271.47c16.06,19.22 29.22,31.87 29.89,32.52 -0.71,-0.88 -15.21,-18.7 -28.78,-37.4 -0.41,1.66 -0.79,3.29 -1.11,4.88z"/>
  </g>
 </g>
</svg>
