
<svg xmlns="http://www.w3.org/2000/svg" xml:space="preserve" width="658px" height="928px" version="1.1" style="shape-rendering:geometricPrecision; text-rendering:geometricPrecision; image-rendering:optimizeQuality; fill-rule:evenodd; clip-rule:evenodd"
viewBox="0 0 177.81 250.98"
 xmlns:xlink="http://www.w3.org/1999/xlink"
>
 <defs>
  <style type="text/css">
   <![CDATA[
    .fil0 {fill:#264DE4;fill-rule:nonzero}
    .fil1 {fill:#2965F1;fill-rule:nonzero}
    .fil2 {fill:#EBEBEB;fill-rule:nonzero}
    .fil4 {fill:white;fill-rule:nonzero}
    .fil3 {fill:white;fill-rule:nonzero}
   ]]>
  </style>
 </defs>
 <g id="Слой_x0020_1">
  <metadata id="CorelCorpID_0Corel-Layer"/>
  <g id="_1663564185584">
   <polygon id="polygon2989" class="fil0" points="177.81,49.32 161.61,230.8 88.8,250.98 16.18,230.82 0,49.32 "/>
   <polygon id="polygon2991" class="fil1" points="147.75,219.24 161.59,64.16 88.91,64.16 88.91,235.55 "/>
   <polygon id="polygon2993" class="fil2" points="37.1,131.48 39.09,153.74 88.91,153.74 88.91,131.48 "/>
   <polygon id="polygon2995" class="fil2" points="88.91,86.42 88.83,86.42 33.09,86.42 35.11,108.69 88.91,108.69 "/>
   <polygon id="polygon2997" class="fil2" points="88.91,212.45 88.91,189.29 88.81,189.32 64.02,182.62 62.43,164.87 50.39,164.87 40.09,164.87 43.21,199.82 88.8,212.48 "/>
   <polygon id="path2999" class="fil3" points="41.85,0 68.81,0 68.81,11.27 53.12,11.27 53.12,22.55 68.81,22.55 68.81,33.82 41.85,33.82 " />
   <polygon id="path3001" class="fil3" points="74.2,0 101.16,0 101.16,9.8 85.48,9.8 85.48,11.76 101.16,11.76 101.16,34.31 74.2,34.31 74.2,24.02 89.89,24.02 89.89,22.06 74.2,22.06 " />
   <polygon id="path3003" class="fil3" points="106.55,0 133.51,0 133.51,9.8 117.83,9.8 117.83,11.76 133.51,11.76 133.51,34.31 106.55,34.31 106.55,24.02 122.24,24.02 122.24,22.06 106.55,22.06 " />
   <polygon id="polygon3005" class="fil4" points="116.24,153.74 113.66,182.61 88.83,189.31 88.83,212.47 134.46,199.82 134.8,196.06 140.03,137.46 140.57,131.48 144.59,86.42 88.83,86.42 88.83,108.69 120.2,108.69 118.17,131.48 88.83,131.48 88.83,153.74 "/>
  </g>
 </g>
</svg>
