<?xml version="1.0" encoding="UTF-8"?>
<!DOCTYPE svg PUBLIC "-//W3C//DTD SVG 1.1//EN" "http://www.w3.org/Graphics/SVG/1.1/DTD/svg11.dtd">
<!-- Creator: CorelDRAW -->
<svg xmlns="http://www.w3.org/2000/svg" xml:space="preserve" width="654px" height="923px" version="1.1" style="shape-rendering:geometricPrecision; text-rendering:geometricPrecision; image-rendering:optimizeQuality; fill-rule:evenodd; clip-rule:evenodd"
viewBox="0 0 464.86 656.14"
 xmlns:xlink="http://www.w3.org/1999/xlink"
 xmlns:xodm="http://www.corel.com/coreldraw/odm/2003">
 <defs>
  <style type="text/css">
   <![CDATA[
    .fil0 {fill:#E44D26;fill-rule:nonzero}
    .fil2 {fill:#EBEBEB;fill-rule:nonzero}
    .fil1 {fill:#F16529;fill-rule:nonzero}
    .fil4 {fill:white;fill-rule:nonzero}
    .fil3 {fill:white;fill-rule:nonzero}
   ]]>
  </style>
 </defs>
 <g id="Слой_x0020_1">
  <metadata id="CorelCorpID_0Corel-Layer"/>
  <g id="html-5-logo.svg">
   <polygon class="fil0" points="464.86,128.95 422.51,603.37 232.14,656.14 42.31,603.44 0,128.95 "/>
   <polygon class="fil1" points="232.43,615.8 386.25,573.16 422.44,167.74 232.43,167.74 "/>
   <path class="fil2" d="M150.1 284.14l82.33 0 0 -58.2 -145.93 0 1.4 15.61 14.3 160.37 130.23 0 0 -58.19 -77.01 0 -5.32 -59.59zm13.12 146.88l-58.42 0 8.15 91.38 119.21 33.09 0.27 -0.08 0 -60.54 -0.26 0.06 -64.81 -17.5 -4.14 -46.41z"/>
   <path class="fil3" d="M43.25 0l29.57 0 0 29.22 27.06 0 0 -29.22 29.57 0 0 88.48 -29.57 0 0 -29.63 -27.05 0 0 29.63 -29.58 0 0 -88.48 0 0zm125.09 29.34l-26.03 0 0 -29.34 81.66 0 0 29.34 -26.05 0 0 59.14 -29.57 0 0 -59.14 0 0 -0.01 0zm68.59 -29.34l30.84 0 18.96 31.09 18.95 -31.09 30.85 0 0 88.48 -29.45 0 0 -43.86 -20.35 31.46 -0.51 0 -20.36 -31.46 0 43.86 -28.93 0 0 -88.48zm114.32 0l29.59 0 0 59.24 41.58 0 0 29.24 -71.17 0 0 -88.48 0 0z"/>
   <path class="fil4" d="M232.23 401.92l71.66 0 -6.76 75.48 -64.9 17.52 0 60.54 119.3 -33.06 0.87 -9.84 13.68 -153.21 1.42 -15.62 -135.27 0 0 58.19zm0 -117.93l0 0.15 140.57 0 1.16 -13.08 2.66 -29.51 1.39 -15.61 -145.78 0 0 58.05 0 0z"/>
  </g>
 </g>
</svg>
