<?xml version="1.0" encoding="UTF-8"?>
<!DOCTYPE svg PUBLIC "-//W3C//DTD SVG 1.1//EN" "http://www.w3.org/Graphics/SVG/1.1/DTD/svg11.dtd">
<!-- Creator: CorelDRAW -->
<svg xmlns="http://www.w3.org/2000/svg" xml:space="preserve" width="594px" height="837px" version="1.1" style="shape-rendering:geometricPrecision; text-rendering:geometricPrecision; image-rendering:optimizeQuality; fill-rule:evenodd; clip-rule:evenodd"
viewBox="0 0 533.33 751.03"
 xmlns:xlink="http://www.w3.org/1999/xlink"
 xmlns:xodm="http://www.corel.com/coreldraw/odm/2003"
 xmlns:dc="http://purl.org/dc/elements/1.1/"
 xmlns:cc="http://creativecommons.org/ns#"
 xmlns:rdf="http://www.w3.org/1999/02/22-rdf-syntax-ns#"
 xmlns:svg="http://www.w3.org/2000/svg"
 xmlns:sodipodi="http://sodipodi.sourceforge.net/DTD/sodipodi-0.dtd"
 xmlns:inkscape="http://www.inkscape.org/namespaces/inkscape"
 sodipodi:docname="Javascript-shield.svg"
 inkscape:version="0.92.2 2405546, 2018-03-11">
 <defs>
  <style type="text/css">
   <![CDATA[
    .fil3 {fill:#E4A126;fill-rule:nonzero}
    .fil1 {fill:#EAEBEC;fill-rule:nonzero}
    .fil2 {fill:#F0BE25;fill-rule:nonzero}
    .fil0 {fill:white;fill-rule:nonzero}
    .fil4 {fill:white;fill-rule:nonzero}
   ]]>
  </style>
 </defs>
 <g id="Слой_x0020_1">
  <metadata id="CorelCorpID_0Corel-Layer"/>
  <g id="Javascript-logo.svg">
   <sodipodi:namedview pagecolor="#ffffff" bordercolor="#666666" borderopacity="1" objecttolerance="10" gridtolerance="10" guidetolerance="10" inkscape:pageopacity="0" inkscape:pageshadow="2" inkscape:window-width="1920" inkscape:window-height="1016" id="namedview66" showgrid="false" fit-margin-top="0" fit-margin-left="0" fit-margin-right="0" fit-margin-bottom="0" inkscape:zoom="1.0628712" inkscape:cx="364.99449" inkscape:cy="300.83113" inkscape:window-x="0" inkscape:window-y="27" inkscape:window-maximized="1" inkscape:current-layer="svg64"/>
   <path id="path118" class="fil0" d="M1.79 146.76l0.08 6.71c0.05,3.69 10.74,125.91 23.77,271.6l23.68 264.88 106.44 29.81c58.54,16.39 107.65,29.88 109.13,29.98 1.47,0.11 51.23,-13.25 110.56,-29.68 95.13,-26.34 107.98,-30.31 108.66,-33.57 0.95,-4.54 47.53,-530.08 47.49,-535.7l-0.04 -4.03 -264.89 0 -264.88 0z" inkscape:connector-curvature="0"/>
   <path id="path88" class="fil1" d="M156.61 721.54l-107.39 -30.02 -1.4 -7.94c-1.25,-7.06 -47.82,-527.18 -47.82,-534.05 0,-2.49 27.19,-2.77 266.68,-2.77 252.79,0 266.67,0.16 266.65,3.13 -0.08,12.83 -48.29,539.83 -49.47,540.88 -1.5,1.32 -209.34,59.23 -216.29,60.26 -1.97,0.29 -51.9,-12.98 -110.97,-29.49l0.01 0zm177.78 -106.06c36.09,-9.96 66.14,-18.62 66.78,-19.24 0.64,-0.63 4.86,-43.43 9.39,-95.11 4.52,-51.68 8.68,-97.38 9.24,-101.56l1.01 -7.61 -77.96 0 -77.96 0 0 33.11 0 33.11 42.09 0 42.09 0 -0.83 4.03c-0.47,2.21 -2.26,21.25 -3.98,42.29 -1.83,22.31 -4,39.13 -5.2,40.33 -1.14,1.14 -18.29,6.39 -38.12,11.67l-36.05 9.61 0 33.74c0,23.02 0.61,33.73 1.93,33.73 1.07,0 31.48,-8.15 67.57,-18.1l0 0zm85.4 -265.13c-1.18,-8.77 -11.72,-126.4 -11.72,-130.84 0,-2.69 -6.2,-2.95 -70.7,-2.95l-70.69 0 0 34.63 0 34.62 31.76 1.22c17.48,0.68 35.86,1.7 40.87,2.28l9.09 1.05 2.21 27.09c1.21,14.89 2.66,30.1 3.21,33.79l1.01 6.71 32.99 0 32.99 0 -1.02 -7.6z" inkscape:connector-curvature="0" sodipodi:nodetypes="sccsssccsscsccccccccsscscssscsscccsccsscccc"/>
   <path id="path80" class="fil2" d="M155.76 719.76l-106.44 -29.81 -23.68 -264.88c-13.03,-145.69 -23.72,-267.91 -23.77,-271.6l-0.08 -6.71 264.89 0 264.88 0 0.04 4.03c0.04,5.62 -46.54,531.16 -47.49,535.7 -0.69,3.26 -13.53,7.23 -108.66,33.57 -59.33,16.43 -109.09,29.79 -110.56,29.68 -1.48,-0.1 -50.59,-13.59 -109.13,-29.98zm178.71 -103.02c36.79,-10.23 67.42,-19.44 68.06,-20.47 0.64,-1.04 5.03,-46.02 9.77,-99.96 4.73,-53.95 8.99,-99.5 9.46,-101.22 0.82,-2.96 -5.44,-3.13 -113.44,-3.13l-114.31 0 4.87 -51.46c2.68,-28.3 4.93,-51.53 5.01,-51.62 0.08,-0.09 16.86,-0.62 37.28,-1.18 33.49,-0.93 102.56,1.74 104.87,4.05 0.87,0.86 6.54,56.58 6.54,64.19 0,3.75 0.51,3.8 34.68,3.8l34.69 0 -0.82 -7.6c-0.45,-4.19 -3.39,-36.6 -6.53,-72.04l-5.71 -64.43 -133.75 -0.46c-106.4,-0.37 -133.75,0 -133.76,1.79 -0.01,1.24 -0.79,9.09 -1.74,17.46 -2.28,20.25 -19.73,215.88 -19.73,221.28l0 4.23 113.81 0 113.81 0 -1.02 6.71c-0.55,3.69 -2.32,22.42 -3.93,41.61 -1.6,19.2 -3.43,35.4 -4.06,36.01 -1.67,1.6 -68.62,19.48 -72.8,19.44 -1.93,-0.02 -19.22,-4.33 -38.42,-9.58l-34.9 -9.56 -1.28 -15.02c-0.7,-8.26 -1.77,-20.06 -2.38,-26.21l-1.1 -11.18 -33.86 0 -33.87 0 0.08 6.71c0.14,12.55 8.28,97.09 9.46,98.28 1.37,1.36 131.43,37.92 135.44,38.07 1.47,0.05 32.79,-8.28 69.58,-18.51l0 0z" inkscape:connector-curvature="0" sodipodi:nodetypes="ccsccccccscccccscscsccsssccscscssccccsccscsscccccccc"/>
   <path id="path78" class="fil3" d="M155.76 719.76l-106.44 -29.81 -23.68 -264.88c-13.03,-145.69 -23.72,-267.91 -23.77,-271.6l-0.08 -6.71 264.89 0 264.88 0 0.04 4.03c0.04,5.62 -46.54,531.16 -47.49,535.7 -0.69,3.26 -13.53,7.23 -108.66,33.57 -59.33,16.43 -109.09,29.79 -110.56,29.68 -1.48,-0.1 -50.59,-13.59 -109.13,-29.98zm198.5 -39.87c46.82,-12.92 86.01,-24.4 87.08,-25.51 1.68,-1.72 42.11,-444.92 41.95,-459.74l-0.05 -4.92 -108.28 0 -108.28 0 0 12.52 0 12.53 -62.65 0c-48.91,0 -62.64,0.49 -62.65,2.24 -0.01,1.23 -0.79,9.08 -1.74,17.45 -2.28,20.25 -19.73,215.88 -19.73,221.28l0 4.23 73.39 0 73.38 0 0 51.9c0,40.35 -0.5,51.9 -2.24,51.87 -1.23,-0.02 -17.94,-4.33 -37.14,-9.58l-34.9 -9.56 -1.28 -15.02c-0.7,-8.26 -1.77,-20.06 -2.38,-26.21l-1.1 -11.18 -33.86 0 -33.87 0 0.08 6.71c0.21,19.19 8.52,97.56 10.47,98.76 1.18,0.73 32.31,9.68 69.18,19.88l67.04 18.55 0 33.64c0,18.51 0.55,33.65 1.22,33.65 0.68,0 39.54,-10.57 86.36,-23.49l0 0zm-155.57 -338.91c2.57,-28.03 5.03,-51.29 5.46,-51.68 0.43,-0.38 14.67,-1.09 31.65,-1.56l30.88 -0.85 0 52.53 0 52.54 -36.34 0 -36.33 0 4.68 -50.98z" inkscape:connector-curvature="0" sodipodi:nodetypes="ccsccccccscccscccccccscsscccscscsscccccscsssscscccccs"/>
   <path id="path76" class="fil4" d="M170.03 83.22l0 -17 24.16 0 24.16 0 0 -33.11 0 -33.11 17 0 17.01 0 0 50.11 0 50.12 -41.17 0 -41.16 0 0 -17.01zm98.44 3.58l0 -13.42 22.37 0c12.3,0 22.37,-0.45 22.37,-1.01 0,-0.56 -10.07,-11.92 -22.37,-25.26l-22.37 -24.25 0 -11.43 0 -11.43 46.53 0 46.53 0 0 13.37 0 13.37 -21.84 0.5 -21.85 0.5 22.74 24.49 22.74 24.49 0 11.75 0 11.76 -47.43 0 -47.42 0 0 -13.43z" inkscape:connector-curvature="0"/>
  </g>
 </g>
</svg>
