<?xml version="1.0" encoding="UTF-8"?>
<!DOCTYPE svg PUBLIC "-//W3C//DTD SVG 1.1//EN" "http://www.w3.org/Graphics/SVG/1.1/DTD/svg11.dtd">
<!-- Creator: CorelDRAW -->
<svg xmlns="http://www.w3.org/2000/svg" xml:space="preserve" width="919px" height="418px" version="1.1" style="shape-rendering:geometricPrecision; text-rendering:geometricPrecision; image-rendering:optimizeQuality; fill-rule:evenodd; clip-rule:evenodd"
viewBox="0 0 2320.9 1054.62"
 xmlns:xlink="http://www.w3.org/1999/xlink"
 xmlns:xodm="http://www.corel.com/coreldraw/odm/2003">
 <defs>
  <style type="text/css">
   <![CDATA[
    .fil1 {fill:black;fill-rule:nonzero}
    .fil0 {fill:#764ABC;fill-rule:nonzero}
   ]]>
  </style>
 </defs>
 <g id="Слой_x0020_1">
  <metadata id="CorelCorpID_0Corel-Layer"/>
  <path class="fil0" d="M769.73 736.54c40.99,-4.25 72.09,-39.59 70.67,-82 -1.41,-42.41 -36.75,-76.34 -79.16,-76.34l-2.82 0c-43.83,1.42 -77.76,38.17 -76.34,82 1.41,21.2 9.89,39.58 22.62,52.3 -48.07,94.72 -121.58,163.99 -231.84,221.95 -74.93,39.59 -152.67,53.72 -230.42,43.83 -63.62,-8.48 -113.1,-36.75 -144.2,-83.41 -45.24,-69.27 -49.47,-144.2 -11.3,-219.12 26.85,-53.72 69.26,-93.31 96.12,-113.1 -5.65,-18.38 -14.14,-49.48 -18.37,-72.1 -204.99,148.44 -183.78,349.19 -121.58,443.9 46.65,70.69 141.37,114.52 245.98,114.52 28.27,0 56.54,-2.83 84.81,-9.9 180.95,-35.34 318.08,-142.79 395.83,-302.53zm248.8 -175.3c-107.44,-125.82 -265.77,-195.09 -446.71,-195.09l-22.62 0c-12.73,-25.45 -39.59,-42.41 -69.27,-42.41l-2.83 0c-43.82,1.41 -77.75,38.17 -76.34,81.99 1.42,42.41 36.76,76.34 79.17,76.34l2.82 0c31.1,-1.41 57.96,-21.2 69.27,-48.07l25.45 0c107.44,0 209.22,31.1 301.11,91.89 70.68,46.66 121.57,107.45 149.84,180.96 24.03,59.37 22.62,117.34 -2.83,166.82 -39.58,74.92 -106.02,115.92 -193.66,115.92 -56.55,0 -110.27,-16.97 -138.54,-29.69 -15.55,14.14 -43.83,36.75 -63.62,50.9 60.79,28.27 122.99,43.82 182.36,43.82 135.71,0 236.08,-74.93 274.25,-149.85 41,-82 38.17,-223.37 -67.85,-343.53l0 0zm-718.14 199.33c1.42,42.41 36.76,76.33 79.17,76.33l2.83 0c43.82,-1.41 77.75,-38.17 76.33,-81.99 -1.41,-42.41 -36.75,-76.34 -79.16,-76.34l-2.83 0c-2.83,0 -7.07,0 -9.89,1.41 -57.96,-96.13 -81.99,-200.74 -73.51,-313.84 5.65,-84.82 33.93,-158.33 83.4,-219.12 41,-52.31 120.16,-77.75 173.88,-79.17 149.84,-2.83 213.46,183.78 217.7,258.71 18.38,4.24 49.48,14.14 70.68,21.21 -16.96,-229.02 -158.33,-347.77 -294.03,-347.77 -127.23,0 -244.57,91.89 -291.22,227.6 -65.02,180.96 -22.62,354.84 56.55,491.97 -7.07,9.89 -11.31,25.45 -9.9,41l0 0z"/>
  <path class="fil1" d="M1300.24 459.66l0 -245.77 104.52 0c26.26,0 45.36,2.23 57.26,6.64 11.96,4.4 21.46,12.24 28.61,23.51 7.15,11.33 10.75,24.2 10.75,38.73 0,18.48 -5.38,33.7 -16.19,45.71 -10.81,12.02 -26.94,19.57 -48.46,22.71 10.7,6.24 19.52,13.1 26.44,20.6 6.97,7.49 16.36,20.82 28.14,39.93l29.98 47.94 -59.32 0 -35.59 -53.66c-12.76,-19.05 -21.51,-31.07 -26.26,-36.04 -4.69,-4.92 -9.67,-8.35 -14.93,-10.19 -5.32,-1.83 -13.67,-2.74 -25.11,-2.74l-10.07 0 0 102.63 -49.77 0zm49.77 -141.76l36.73 0c23.8,0 38.61,-1.03 44.56,-3.03 5.89,-2.01 10.58,-5.5 13.9,-10.42 3.38,-4.92 5.04,-11.1 5.04,-18.48 0,-8.29 -2.23,-14.93 -6.64,-20.08 -4.41,-5.09 -10.64,-8.29 -18.65,-9.61 -4.06,-0.57 -16.13,-0.85 -36.21,-0.85l-38.73 0 0 62.47z"/>
  <path id="_1" class="fil1" d="M1650.76 403.37l47.02 7.89c-6,17.22 -15.56,30.32 -28.54,39.36 -13.05,8.98 -29.35,13.5 -48.86,13.5 -30.95,0 -53.89,-10.12 -68.71,-30.38 -11.73,-16.24 -17.62,-36.72 -17.62,-61.5 0,-29.51 7.72,-52.68 23.11,-69.39 15.39,-16.76 34.9,-25.11 58.47,-25.11 26.43,0 47.31,8.75 62.64,26.26 15.28,17.5 22.6,44.33 21.92,80.49l-117.74 0c0.34,13.96 4.12,24.83 11.38,32.61 7.21,7.78 16.25,11.67 27.01,11.67 7.38,0 13.55,-2 18.53,-6.01 5.03,-4 8.81,-10.47 11.39,-19.39zm2.74 -47.71c-0.34,-13.68 -3.83,-24.09 -10.52,-31.18 -6.7,-7.15 -14.82,-10.7 -24.43,-10.7 -10.24,0 -18.71,3.77 -25.4,11.27 -6.7,7.49 -9.96,17.73 -9.84,30.61l70.19 0z"/>
  <path id="_2" class="fil1" d="M1773.7 336.43l-42.57 -7.55c4.81,-17.39 13.11,-30.26 24.83,-38.62 11.73,-8.35 29.18,-12.52 52.29,-12.52 21,0 36.67,2.46 46.97,7.43 10.24,4.98 17.5,11.27 21.68,18.94 4.18,7.67 6.29,21.68 6.29,42.16l-0.68 54.92c0,15.62 0.74,27.18 2.23,34.62 1.49,7.43 4.29,15.39 8.41,23.85l-46.68 0c-1.2,-3.09 -2.75,-7.67 -4.52,-13.73 -0.75,-2.8 -1.32,-4.63 -1.66,-5.49 -8.01,7.89 -16.59,13.78 -25.75,17.73 -9.15,3.95 -18.87,5.95 -29.23,5.95 -18.25,0 -32.67,-4.97 -43.19,-14.93 -10.53,-9.9 -15.79,-22.48 -15.79,-37.7 0,-10.01 2.4,-18.99 7.21,-26.89 4.8,-7.83 11.49,-13.9 20.19,-18.07 8.64,-4.18 21.11,-7.84 37.42,-10.99 21.97,-4.12 37.24,-8.01 45.7,-11.56l0 -4.74c0,-9.16 -2.23,-15.68 -6.69,-19.63 -4.52,-3.89 -12.98,-5.83 -25.4,-5.83 -8.41,0 -14.93,1.66 -19.62,5.03 -4.75,3.32 -8.52,9.21 -11.44,17.62zm63.15 38.1c-6,2.01 -15.55,4.41 -28.65,7.21 -13.05,2.81 -21.63,5.55 -25.63,8.18 -6.13,4.41 -9.22,9.9 -9.22,16.59 0,6.64 2.46,12.3 7.38,17.11 4.92,4.8 11.16,7.21 18.77,7.21 8.47,0 16.59,-2.8 24.31,-8.35 5.67,-4.3 9.44,-9.44 11.21,-15.62 1.21,-4.01 1.83,-11.67 1.83,-22.94l0 -9.39z"/>
  <path id="_3" class="fil1" d="M2084.74 334.37l-46.34 8.24c-1.54,-9.21 -5.09,-16.13 -10.64,-20.82 -5.55,-4.64 -12.7,-6.98 -21.51,-6.98 -11.73,0 -21.11,4.06 -28.09,12.18 -6.98,8.13 -10.47,21.69 -10.47,40.74 0,21.16 3.55,36.09 10.64,44.85 7.1,8.75 16.59,13.1 28.49,13.1 8.93,0 16.25,-2.57 21.92,-7.67 5.71,-5.09 9.72,-13.84 12.07,-26.31l46.33 7.89c-4.8,21.28 -14.01,37.36 -27.63,48.23 -13.61,10.87 -31.86,16.3 -54.8,16.3 -25.98,0 -46.74,-8.23 -62.19,-24.65 -15.5,-16.48 -23.23,-39.25 -23.23,-68.37 0,-29.46 7.78,-52.35 23.29,-68.76 15.5,-16.42 36.5,-24.6 62.99,-24.6 21.62,0 38.84,4.69 51.66,14.01 12.75,9.33 21.91,23.52 27.51,42.62z"/>
  <path id="_4" class="fil1" d="M2201.85 281.51l0 37.42 -32.27 0 0 72.14c0,14.64 0.29,23.17 0.92,25.57 0.63,2.4 2,4.4 4.23,6.01 2.17,1.54 4.81,2.34 7.95,2.34 4.41,0 10.7,-1.49 18.99,-4.52l3.95 36.62c-10.92,4.69 -23.28,7.03 -37.13,7.03 -8.46,0 -16.07,-1.43 -22.88,-4.29 -6.81,-2.86 -11.78,-6.58 -14.93,-11.09 -3.21,-4.58 -5.38,-10.7 -6.64,-18.48 -0.97,-5.5 -1.48,-16.6 -1.48,-33.36l0 -77.97 -21.63 0 0 -37.42 21.63 0 0 -35.35 47.02 -27.81 0 63.16 32.27 0z"/>
  <path id="_5" class="fil1" d="M1300.24 843.13l0 -245.77 104.52 0c26.26,0 45.36,2.23 57.26,6.64 11.96,4.4 21.46,12.24 28.61,23.51 7.15,11.33 10.75,24.2 10.75,38.73 0,18.48 -5.38,33.7 -16.19,45.71 -10.81,12.02 -26.94,19.57 -48.46,22.71 10.7,6.24 19.52,13.11 26.44,20.6 6.97,7.49 16.36,20.82 28.14,39.93l29.98 47.94 -59.32 0 -35.59 -53.66c-12.76,-19.05 -21.51,-31.06 -26.26,-36.04 -4.69,-4.92 -9.67,-8.35 -14.93,-10.18 -5.32,-1.83 -13.67,-2.75 -25.11,-2.75l-10.07 0 0 102.63 -49.77 0zm49.77 -141.76l36.73 0c23.8,0 38.61,-1.03 44.56,-3.03 5.89,-2.01 10.58,-5.5 13.9,-10.42 3.38,-4.92 5.04,-11.09 5.04,-18.47 0,-8.3 -2.23,-14.94 -6.64,-20.09 -4.41,-5.09 -10.64,-8.29 -18.65,-9.61 -4.06,-0.57 -16.13,-0.85 -36.21,-0.85l-38.73 0 0 62.47z"/>
  <path id="_6" class="fil1" d="M1650.76 786.84l47.02 7.89c-6,17.22 -15.56,30.33 -28.54,39.36 -13.05,8.99 -29.35,13.5 -48.86,13.5 -30.95,0 -53.89,-10.12 -68.71,-30.37 -11.73,-16.25 -17.62,-36.73 -17.62,-61.5 0,-29.52 7.72,-52.69 23.11,-69.4 15.39,-16.76 34.9,-25.11 58.47,-25.11 26.43,0 47.31,8.75 62.64,26.26 15.28,17.5 22.6,44.33 21.92,80.49l-117.74 0c0.34,13.96 4.12,24.83 11.38,32.61 7.21,7.78 16.25,11.67 27.01,11.67 7.38,0 13.55,-2 18.53,-6.01 5.03,-4 8.81,-10.47 11.39,-19.39zm2.74 -47.71c-0.34,-13.68 -3.83,-24.09 -10.52,-31.18 -6.7,-7.15 -14.82,-10.7 -24.43,-10.7 -10.24,0 -18.71,3.77 -25.4,11.27 -6.7,7.49 -9.96,17.73 -9.84,30.61l70.19 0z"/>
  <path id="_7" class="fil1" d="M1902.07 843.13l-43.59 0 0 -26.14c-7.26,10.18 -15.9,17.79 -25.8,22.94 -9.9,5.09 -19.91,7.66 -29.98,7.66 -20.53,0 -38.1,-8.23 -52.75,-24.77 -14.58,-16.53 -21.9,-39.53 -21.9,-69.1 0,-30.21 7.09,-53.21 21.33,-68.94 14.25,-15.73 32.21,-23.57 53.95,-23.57 19.91,0 37.19,8.29 51.72,24.83l0 -88.68 47.02 0 0 245.77zm-125.63 -92.5c0,19.05 2.64,32.83 7.84,41.36 7.61,12.36 18.19,18.54 31.81,18.54 10.81,0 20.02,-4.64 27.57,-13.91 7.61,-9.26 11.39,-23.05 11.39,-41.48 0,-20.53 -3.66,-35.29 -11.04,-44.33 -7.38,-9.04 -16.77,-13.56 -28.26,-13.56 -11.16,0 -20.48,4.46 -28.04,13.39 -7.49,8.92 -11.27,22.25 -11.27,39.99z"/>
  <path id="_8" class="fil1" d="M2066.09 843.13l0 -26.66c-6.52,9.5 -15.04,17.05 -25.63,22.71 -10.58,5.61 -21.74,8.41 -33.46,8.41 -12.02,0 -22.77,-2.63 -32.27,-7.89 -9.56,-5.26 -16.42,-12.7 -20.65,-22.2 -4.29,-9.55 -6.41,-22.71 -6.41,-39.53l0 -112.99 47.03 0 0 82.04c0,25.12 0.86,40.45 2.63,46.11 1.71,5.67 4.86,10.18 9.49,13.45 4.58,3.32 10.42,4.97 17.51,4.97 8.07,0 15.27,-2.23 21.68,-6.63 6.41,-4.41 10.76,-9.9 13.1,-16.48 2.35,-6.58 3.55,-22.6 3.55,-48.17l0 -75.29 47.03 0 0 178.15 -43.6 0z"/>
  <polygon id="_9" class="fil1" points="2135.2,843.13 2199.39,751.37 2137.95,664.98 2195.39,664.98 2226.85,713.95 2260.26,664.98 2315.41,664.98 2255.05,749.37 2320.9,843.13 2263.52,843.13 2226.85,787.92 2190.35,843.13 "/>
 </g>
</svg>
