<?xml version="1.0" encoding="UTF-8"?>
<!DOCTYPE svg PUBLIC "-//W3C//DTD SVG 1.1//EN" "http://www.w3.org/Graphics/SVG/1.1/DTD/svg11.dtd">
<!-- Creator: CorelDRAW -->
<svg xmlns="http://www.w3.org/2000/svg" xml:space="preserve" width="1054px" height="410px" version="1.1" style="shape-rendering:geometricPrecision; text-rendering:geometricPrecision; image-rendering:optimizeQuality; fill-rule:evenodd; clip-rule:evenodd"
viewBox="0 0 556.82 216.82"
 xmlns:xlink="http://www.w3.org/1999/xlink"
 xmlns:xodm="http://www.corel.com/coreldraw/odm/2003">
 <defs>
  <style type="text/css">
   <![CDATA[
    .fil1 {fill:black;fill-rule:nonzero}
    .fil0 {fill:#149ECA;fill-rule:nonzero}
   ]]>
  </style>
 </defs>
 <g id="Слой_x0020_1">
  <metadata id="CorelCorpID_0Corel-Layer"/>
  <g id="_1663222613472">
   <path class="fil0" d="M142.52 108.95c0,-12.54 -10.16,-22.7 -22.7,-22.7 -12.53,0 -22.7,10.16 -22.7,22.7 0,12.53 10.17,22.69 22.7,22.69 12.54,0 22.7,-10.16 22.7,-22.69z"/>
   <path class="fil0" d="M226.97 108.95c0,-11.38 -11.27,-22.15 -29.5,-30.35 -19.75,-8.89 -47.2,-14.39 -77.65,-14.39 -30.45,0 -57.89,5.5 -77.65,14.39 -18.23,8.2 -29.5,18.97 -29.5,30.35 0,11.38 11.27,22.14 29.5,30.34 19.76,8.89 47.2,14.39 77.65,14.39 30.45,0 57.9,-5.5 77.65,-14.39 18.23,-8.2 29.5,-18.96 29.5,-30.34zm-24.3 -41.88c22.84,10.28 36.97,25.05 36.97,41.88 0,16.82 -14.13,31.59 -36.97,41.87 -21.32,9.59 -50.62,15.53 -82.85,15.53 -32.23,0 -61.53,-5.94 -82.84,-15.53 -22.85,-10.28 -36.98,-25.05 -36.98,-41.87 0,-16.83 14.13,-31.6 36.98,-41.88 21.31,-9.59 50.61,-15.53 82.84,-15.53 32.23,0 61.53,5.94 82.85,15.53z"/>
   <path class="fil0" d="M173.4 201.76c9.86,-5.69 13.55,-20.85 11.53,-40.76 -2.17,-21.47 -11.05,-47.85 -26.14,-74.08l-0.01 0 -0.2 -0.34c-15.23,-26.38 -33.71,-47.4 -51.3,-60.07 -16.22,-11.68 -31.18,-16.07 -41.04,-10.38 -9.86,5.69 -13.54,20.85 -11.53,40.76 2.17,21.47 11.05,47.85 26.14,74.08l0.01 0 0.2 0.34c15.23,26.38 33.72,47.4 51.3,60.07 16.22,11.68 31.18,16.07 41.04,10.38zm24.1 -41.99c2.52,24.91 -3.2,44.52 -17.77,52.93 -14.57,8.41 -34.42,3.56 -54.75,-11.08 -18.88,-13.61 -38.58,-35.88 -54.65,-63.63l-0.01 0 -0.09 -0.15 -0.2 -0.39c-16.06,-27.87 -25.55,-56.14 -27.89,-79.33 -2.52,-24.91 3.21,-44.52 17.77,-52.93 14.57,-8.41 34.43,-3.56 54.75,11.08 18.88,13.61 38.58,35.88 54.66,63.63l0 0 0.1 0.15 0.19 0.39c16.07,27.87 25.55,56.14 27.89,79.33z"/>
   <path class="fil0" d="M66.24 200.69c9.86,5.69 24.82,1.3 41.04,-10.39 17.6,-12.67 36.09,-33.69 51.3,-60.04l0.2 -0.37 0.01 0.01c15.09,-26.23 23.97,-52.61 26.14,-74.09 2.02,-19.9 -1.67,-35.06 -11.53,-40.75 -9.86,-5.69 -24.82,-1.31 -41.04,10.38 -17.6,12.68 -36.09,33.69 -51.3,60.04l-0.2 0.37 -0.01 -0.01c-15.09,26.24 -23.97,52.62 -26.14,74.09 -2.01,19.91 1.67,35.06 11.53,40.76zm48.42 -0.14c-20.32,14.64 -40.18,19.49 -54.75,11.07 -14.56,-8.41 -20.29,-28.02 -17.77,-52.92 2.34,-23.2 11.83,-51.46 27.89,-79.34l0.2 -0.39 0.09 -0.15 0.02 0.01c16.09,-27.76 35.78,-50.04 54.65,-63.63 20.32,-14.64 40.17,-19.49 54.74,-11.08 14.57,8.41 20.29,28.02 17.77,52.93 -2.34,23.19 -11.82,51.46 -27.89,79.33l-0.19 0.39 -0.1 0.15 -0.01 -0.01c-16.09,27.77 -35.79,50.04 -54.65,63.64z"/>
  </g>
  <path class="fil1" d="M264.83 147.45l0 -79.26 33.71 0c8.47,0 14.63,0.72 18.47,2.14 3.85,1.42 6.91,3.94 9.22,7.58 2.31,3.65 3.47,7.8 3.47,12.49 0,5.96 -1.73,10.87 -5.22,14.74 -3.49,3.88 -8.69,6.31 -15.63,7.33 3.45,2.01 6.29,4.22 8.53,6.64 2.25,2.42 5.27,6.71 9.07,12.88l9.67 15.46 -19.13 0 -11.48 -17.31c-4.11,-6.14 -6.94,-10.02 -8.47,-11.62 -1.51,-1.59 -3.12,-2.7 -4.81,-3.29 -1.72,-0.59 -4.41,-0.88 -8.1,-0.88l-3.25 0 0 33.1 -16.05 0zm16.05 -45.72l11.85 0c7.67,0 12.45,-0.33 14.37,-0.98 1.9,-0.64 3.41,-1.77 4.48,-3.36 1.09,-1.58 1.63,-3.58 1.63,-5.96 0,-2.67 -0.72,-4.81 -2.14,-6.47 -1.43,-1.64 -3.44,-2.68 -6.02,-3.1 -1.31,-0.19 -5.2,-0.28 -11.68,-0.28l-12.49 0 0 20.15zm96.99 27.56l15.17 2.55c-1.94,5.55 -5.02,9.78 -9.21,12.69 -4.2,2.9 -9.46,4.36 -15.75,4.36 -9.99,0 -17.38,-3.27 -22.16,-9.8 -3.78,-5.24 -5.69,-11.84 -5.69,-19.83 0,-9.52 2.5,-17 7.46,-22.38 4.96,-5.41 11.25,-8.1 18.86,-8.1 8.52,0 15.25,2.82 20.2,8.46 4.92,5.65 7.29,14.3 7.06,25.96l-37.97 0c0.11,4.51 1.33,8.01 3.68,10.52 2.32,2.51 5.24,3.77 8.7,3.77 2.38,0 4.38,-0.65 5.98,-1.94 1.63,-1.29 2.84,-3.38 3.67,-6.26zm0.89 -15.38c-0.11,-4.41 -1.24,-7.77 -3.4,-10.06 -2.15,-2.31 -4.77,-3.45 -7.87,-3.45 -3.31,0 -6.04,1.22 -8.2,3.63 -2.15,2.42 -3.21,5.72 -3.17,9.88l22.64 0zm38.76 -6.2l-13.72 -2.44c1.55,-5.61 4.22,-9.76 8,-12.45 3.79,-2.7 9.41,-4.04 16.87,-4.04 6.77,0 11.82,0.79 15.15,2.39 3.3,1.61 5.64,3.64 6.99,6.11 1.35,2.47 2.03,6.99 2.03,13.6l-0.22 17.71c0,5.04 0.24,8.77 0.72,11.16 0.48,2.4 1.38,4.97 2.71,7.7l-15.06 0c-0.39,-1 -0.88,-2.47 -1.46,-4.43 -0.24,-0.9 -0.42,-1.49 -0.53,-1.77 -2.58,2.55 -5.35,4.45 -8.3,5.72 -2.95,1.27 -6.09,1.92 -9.43,1.92 -5.89,0 -10.54,-1.61 -13.93,-4.82 -3.4,-3.19 -5.09,-7.25 -5.09,-12.16 0,-3.23 0.77,-6.12 2.32,-8.67 1.55,-2.53 3.71,-4.48 6.51,-5.83 2.79,-1.35 6.81,-2.53 12.07,-3.54 7.09,-1.33 12.01,-2.58 14.74,-3.73l0 -1.53c0,-2.95 -0.72,-5.05 -2.16,-6.33 -1.45,-1.25 -4.18,-1.88 -8.19,-1.88 -2.71,0 -4.81,0.54 -6.33,1.62 -1.53,1.07 -2.75,2.97 -3.69,5.69zm20.37 12.28c-1.93,0.65 -5.02,1.43 -9.24,2.33 -4.21,0.9 -6.98,1.79 -8.27,2.64 -1.97,1.42 -2.97,3.19 -2.97,5.35 0,2.14 0.8,3.97 2.38,5.51 1.59,1.55 3.6,2.33 6.05,2.33 2.74,0 5.36,-0.9 7.85,-2.69 1.82,-1.39 3.04,-3.05 3.61,-5.04 0.39,-1.29 0.59,-3.76 0.59,-7.4l0 -3.03zm79.95 -12.95l-14.95 2.66c-0.5,-2.97 -1.64,-5.2 -3.43,-6.72 -1.79,-1.49 -4.09,-2.25 -6.94,-2.25 -3.78,0 -6.8,1.31 -9.06,3.93 -2.25,2.62 -3.37,6.99 -3.37,13.14 0,6.83 1.14,11.64 3.43,14.46 2.29,2.83 5.35,4.23 9.19,4.23 2.88,0 5.24,-0.83 7.06,-2.47 1.85,-1.65 3.14,-4.47 3.9,-8.49l14.94 2.55c-1.55,6.86 -4.52,12.04 -8.91,15.55 -4.39,3.5 -10.28,5.26 -17.67,5.26 -8.38,0 -15.08,-2.66 -20.06,-7.95 -5,-5.32 -7.49,-12.66 -7.49,-22.05 0,-9.5 2.51,-16.88 7.51,-22.18 5,-5.3 11.77,-7.93 20.31,-7.93 6.98,0 12.53,1.51 16.66,4.52 4.12,3 7.07,7.58 8.88,13.74zm37.77 -17.05l0 12.07 -10.41 0 0 23.27c0,4.72 0.09,7.47 0.29,8.24 0.21,0.78 0.65,1.42 1.37,1.94 0.7,0.5 1.55,0.76 2.56,0.76 1.43,0 3.45,-0.48 6.13,-1.46l1.27 11.81c-3.52,1.51 -7.51,2.27 -11.97,2.27 -2.73,0 -5.19,-0.46 -7.38,-1.39 -2.2,-0.92 -3.8,-2.12 -4.82,-3.58 -1.03,-1.47 -1.73,-3.45 -2.14,-5.96 -0.31,-1.77 -0.48,-5.35 -0.48,-10.75l0 -25.15 -6.97 0 0 -12.07 6.97 0 0 -11.4 15.17 -8.97 0 20.37 10.41 0z"/>
 </g>
</svg>
