<?xml version="1.0" encoding="UTF-8"?>
<!DOCTYPE svg PUBLIC "-//W3C//DTD SVG 1.1//EN" "http://www.w3.org/Graphics/SVG/1.1/DTD/svg11.dtd">
<!-- Creator: CorelDRAW -->
<svg xmlns="http://www.w3.org/2000/svg" xml:space="preserve" width="939px" height="418px" version="1.1" style="shape-rendering:geometricPrecision; text-rendering:geometricPrecision; image-rendering:optimizeQuality; fill-rule:evenodd; clip-rule:evenodd"
viewBox="0 0 2421.79 1077.57"
 xmlns:xlink="http://www.w3.org/1999/xlink"
 xmlns:xodm="http://www.corel.com/coreldraw/odm/2003">
 <defs>
  <style type="text/css">
   <![CDATA[
    .fil1 {fill:black;fill-rule:nonzero}
    .fil0 {fill:#764ABC;fill-rule:nonzero}
   ]]>
  </style>
 </defs>
 <g id="Слой_x0020_1">
  <metadata id="CorelCorpID_0Corel-Layer"/>
  <path class="fil0" d="M786.48 752.57c41.88,-4.34 73.66,-40.45 72.21,-83.78 -1.44,-43.34 -37.55,-78 -80.88,-78l-2.89 0c-44.78,1.44 -79.44,39 -78,83.77 1.45,21.67 10.11,40.45 23.11,53.45 -49.11,96.78 -124.22,167.56 -236.88,226.78 -76.56,40.44 -156,54.89 -235.44,44.78 -65,-8.67 -115.55,-37.55 -147.33,-85.23 -46.22,-70.77 -50.55,-147.33 -11.55,-223.89 27.44,-54.89 70.77,-95.33 98.22,-115.56 -5.78,-18.77 -14.45,-50.55 -18.78,-73.66 -209.44,151.67 -187.77,356.78 -124.22,453.56 47.66,72.22 144.44,117 251.33,117 28.88,0 57.77,-2.89 86.66,-10.11 184.89,-36.11 325,-145.89 404.44,-309.11zm254.22 -179.12c-109.78,-128.56 -271.56,-199.33 -456.44,-199.33l-23.11 0c-13,-26 -40.44,-43.34 -70.78,-43.34l-2.89 0c-44.77,1.45 -79.44,39 -77.99,83.78 1.44,43.33 37.55,78 80.88,78l2.89 0c31.78,-1.44 59.22,-21.66 70.77,-49.11l26.01 0c109.77,0 213.77,31.78 307.66,93.89 72.22,47.67 124.22,109.78 153.1,184.89 24.56,60.67 23.11,119.89 -2.89,170.45 -40.44,76.55 -108.33,118.45 -197.88,118.45 -57.78,0 -112.66,-17.34 -141.55,-30.34 -15.89,14.44 -44.78,37.55 -65,52 62.11,28.89 125.66,44.78 186.33,44.78 138.66,0 241.22,-76.56 280.22,-153.11 41.88,-83.79 38.99,-228.23 -69.33,-351.01l0 0zm-733.77 203.67c1.45,43.33 37.56,78 80.89,78l2.89 0c44.77,-1.44 79.44,-39 77.99,-83.78 -1.44,-43.34 -37.55,-78 -80.88,-78l-2.89 0c-2.89,0 -7.23,0 -10.11,1.44 -59.22,-98.22 -83.77,-205.11 -75.11,-320.67 5.78,-86.67 34.67,-161.78 85.22,-223.89 41.89,-53.45 122.77,-79.45 177.66,-80.89 153.11,-2.89 218.1,187.78 222.44,264.34 18.78,4.33 50.56,14.44 72.22,21.66 -17.33,-233.99 -161.77,-355.33 -300.43,-355.33 -130,0 -249.89,93.89 -297.56,232.56 -66.44,184.89 -23.11,362.56 57.78,502.67 -7.22,10.11 -11.55,26 -10.11,41.89l0 0z"/>
  <path class="fil1" d="M1328.53 469.66l0 -251.11 106.8 0c26.83,0 46.35,2.27 58.51,6.78 12.22,4.5 21.92,12.5 29.23,24.02 7.3,11.57 10.99,24.73 10.99,39.57 0,18.89 -5.5,34.43 -16.55,46.71 -11.04,12.28 -27.53,19.99 -49.51,23.2 10.93,6.38 19.94,13.39 27.01,21.05 7.13,7.66 16.72,21.28 28.76,40.8l30.63 48.98 -60.62 0 -36.36 -54.83c-13.03,-19.46 -21.98,-31.74 -26.83,-36.82 -4.79,-5.03 -9.88,-8.54 -15.25,-10.41 -5.44,-1.87 -13.97,-2.8 -25.66,-2.8l-10.29 0 0 104.86 -50.86 0zm50.86 -144.84l37.53 0c24.31,0 39.45,-1.06 45.53,-3.1 6.02,-2.05 10.81,-5.61 14.21,-10.64 3.44,-5.03 5.14,-11.34 5.14,-18.88 0,-8.48 -2.28,-15.26 -6.78,-20.52 -4.5,-5.2 -10.88,-8.47 -19.06,-9.82 -4.15,-0.59 -16.48,-0.88 -37,-0.88l-39.57 0 0 63.84z"/>
  <path id="_1" class="fil1" d="M1686.68 412.15l48.05 8.06c-6.14,17.6 -15.9,30.98 -29.17,40.22 -13.33,9.18 -29.98,13.79 -49.92,13.79 -31.62,0 -55.06,-10.34 -70.2,-31.04 -11.98,-16.6 -18,-37.52 -18,-62.83 0,-30.17 7.88,-53.84 23.61,-70.91 15.72,-17.12 35.66,-25.66 59.74,-25.66 27.01,0 48.34,8.94 64.01,26.83 15.6,17.89 23.09,45.3 22.39,82.25l-120.3 0c0.35,14.26 4.2,25.36 11.63,33.31 7.36,7.96 16.6,11.93 27.59,11.93 7.54,0 13.85,-2.05 18.94,-6.14 5.14,-4.09 9,-10.69 11.63,-19.81zm2.81 -48.75c-0.35,-13.98 -3.92,-24.61 -10.76,-31.86 -6.84,-7.31 -15.14,-10.93 -24.96,-10.93 -10.46,0 -19.11,3.85 -25.95,11.51 -6.84,7.66 -10.17,18.12 -10.06,31.28l71.73 0z"/>
  <path id="_2" class="fil1" d="M1943.47 469.66l-44.54 0 0 -26.71c-7.43,10.4 -16.25,18.18 -26.37,23.44 -10.11,5.2 -20.34,7.83 -30.63,7.83 -20.98,0 -38.93,-8.41 -53.89,-25.31 -14.91,-16.89 -22.39,-40.39 -22.39,-70.61 0,-30.86 7.25,-54.36 21.81,-70.44 14.55,-16.07 32.91,-24.08 55.12,-24.08 20.34,0 37.99,8.48 52.84,25.37l0 -90.6 48.05 0 0 251.11zm-128.37 -94.52c0,19.47 2.69,33.56 8.01,42.27 7.78,12.62 18.59,18.94 32.5,18.94 11.05,0 20.46,-4.74 28.18,-14.21 7.77,-9.47 11.63,-23.56 11.63,-42.38 0,-20.98 -3.74,-36.06 -11.28,-45.3 -7.54,-9.23 -17.13,-13.85 -28.88,-13.85 -11.4,0 -20.92,4.56 -28.64,13.68 -7.66,9.11 -11.52,22.74 -11.52,40.85z"/>
  <path id="_3" class="fil1" d="M2111.06 469.66l0 -27.23c-6.67,9.7 -15.38,17.41 -26.19,23.2 -10.81,5.73 -22.21,8.59 -34.2,8.59 -12.27,0 -23.26,-2.68 -32.97,-8.06 -9.76,-5.38 -16.77,-12.98 -21.1,-22.68 -4.38,-9.77 -6.54,-23.21 -6.54,-40.4l0 -115.44 48.05 0 0 83.82c0,25.66 0.87,41.33 2.68,47.11 1.76,5.79 4.97,10.41 9.71,13.74 4.67,3.39 10.64,5.09 17.89,5.09 8.24,0 15.6,-2.28 22.15,-6.78 6.54,-4.5 10.99,-10.12 13.38,-16.84 2.4,-6.72 3.63,-23.09 3.63,-49.22l0 -76.92 48.05 0 0 182.02 -44.54 0z"/>
  <polygon id="_4" class="fil1" points="2181.67,469.66 2247.26,375.9 2184.47,287.64 2243.16,287.64 2275.31,337.67 2309.45,287.64 2365.8,287.64 2304.13,373.86 2371.41,469.66 2312.78,469.66 2275.31,413.25 2238.02,469.66 "/>
  <polygon id="_5" class="fil1" points="1385,861.48 1385,652.8 1310.64,652.8 1310.64,610.36 1509.86,610.36 1509.86,652.8 1435.85,652.8 1435.85,861.48 "/>
  <path id="_6" class="fil1" d="M1505.18 768.25c0,-16.02 3.92,-31.51 11.81,-46.47 7.89,-15.03 19.05,-26.43 33.49,-34.32 14.44,-7.89 30.52,-11.86 48.35,-11.86 27.53,0 50.03,8.94 67.63,26.83 17.59,17.94 26.36,40.51 26.36,67.86 0,27.59 -8.89,50.45 -26.6,68.57 -17.77,18.12 -40.1,27.18 -67.04,27.18 -16.66,0 -32.56,-3.8 -47.7,-11.34 -15.08,-7.54 -26.6,-18.59 -34.49,-33.2 -7.89,-14.56 -11.81,-32.33 -11.81,-53.25zm49.45 2.57c0,18.06 4.27,31.92 12.8,41.5 8.6,9.65 19.12,14.44 31.69,14.44 12.51,0 23.03,-4.79 31.5,-14.44 8.48,-9.58 12.75,-23.55 12.75,-41.85 0,-17.83 -4.27,-31.57 -12.75,-41.15 -8.47,-9.65 -18.99,-14.44 -31.5,-14.44 -12.57,0 -23.09,4.79 -31.69,14.44 -8.53,9.58 -12.8,23.44 -12.8,41.5z"/>
  <path id="_7" class="fil1" d="M1719.41 768.25c0,-16.02 3.92,-31.51 11.81,-46.47 7.89,-15.03 19.06,-26.43 33.5,-34.32 14.43,-7.89 30.51,-11.86 48.34,-11.86 27.53,0 50.03,8.94 67.63,26.83 17.59,17.94 26.36,40.51 26.36,67.86 0,27.59 -8.88,50.45 -26.59,68.57 -17.77,18.12 -40.1,27.18 -67.05,27.18 -16.66,0 -32.56,-3.8 -47.7,-11.34 -15.08,-7.54 -26.6,-18.59 -34.49,-33.2 -7.89,-14.56 -11.81,-32.33 -11.81,-53.25zm49.46 2.57c0,18.06 4.26,31.92 12.8,41.5 8.59,9.65 19.11,14.44 31.68,14.44 12.51,0 23.03,-4.79 31.51,-14.44 8.47,-9.58 12.74,-23.55 12.74,-41.85 0,-17.83 -4.27,-31.57 -12.74,-41.15 -8.48,-9.65 -19,-14.44 -31.51,-14.44 -12.57,0 -23.09,4.79 -31.68,14.44 -8.54,9.58 -12.8,23.44 -12.8,41.5z"/>
  <polygon id="_8" class="fil1" points="1944.87,861.48 1944.87,610.36 1992.92,610.36 1992.92,861.48 "/>
  <polygon id="_9" class="fil1" points="2040.56,861.48 2040.56,610.36 2088.61,610.36 2088.61,743.58 2144.9,679.46 2204.17,679.46 2142.1,745.98 2208.73,861.48 2156.82,861.48 2110.88,779.35 2088.61,803.2 2088.61,861.48 "/>
  <path id="_10" class="fil1" d="M2237.37 654.9l0 -44.54 48.05 0 0 44.54 -48.05 0zm0 206.58l0 -182.02 48.05 0 0 182.02 -48.05 0z"/>
  <path id="_11" class="fil1" d="M2417.94 679.46l0 38.23 -32.97 0 0 73.7c0,14.97 0.29,23.68 0.94,26.13 0.64,2.46 2.04,4.5 4.32,6.14 2.22,1.58 4.91,2.4 8.13,2.4 4.5,0 10.93,-1.52 19.4,-4.62l4.03 37.41c-11.16,4.8 -23.79,7.19 -37.93,7.19 -8.65,0 -16.43,-1.46 -23.38,-4.38 -6.96,-2.93 -12.04,-6.73 -15.26,-11.34 -3.27,-4.68 -5.5,-10.93 -6.78,-18.88 -0.99,-5.62 -1.52,-16.96 -1.52,-34.08l0 -79.67 -22.09 0 0 -38.23 22.09 0 0 -36.13 48.05 -28.41 0 64.54 32.97 0z"/>
 </g>
</svg>
