<?xml version="1.0" encoding="UTF-8"?>
<!DOCTYPE svg PUBLIC "-//W3C//DTD SVG 1.1//EN" "http://www.w3.org/Graphics/SVG/1.1/DTD/svg11.dtd">
<!-- Creator: CorelDRAW -->
<svg xmlns="http://www.w3.org/2000/svg" xml:space="preserve" width="919px" height="418px" version="1.1" style="shape-rendering:geometricPrecision; text-rendering:geometricPrecision; image-rendering:optimizeQuality; fill-rule:evenodd; clip-rule:evenodd"
viewBox="0 0 2320.9 1054.62"
 xmlns:xlink="http://www.w3.org/1999/xlink"
 xmlns:xodm="http://www.corel.com/coreldraw/odm/2003">
 <defs>
  <style type="text/css">
   <![CDATA[
    .fil1 {fill:black;fill-rule:nonzero}
    .fil0 {fill:#764ABC;fill-rule:nonzero}
   ]]>
  </style>
 </defs>
 <g id="Слой_x0020_1">
  <metadata id="CorelCorpID_0Corel-Layer"/>
  <path class="fil0" d="M769.73 736.54c40.99,-4.25 72.09,-39.59 70.67,-82 -1.41,-42.41 -36.75,-76.34 -79.16,-76.34l-2.82 0c-43.83,1.42 -77.76,38.17 -76.34,82 1.41,21.2 9.89,39.58 22.62,52.3 -48.07,94.72 -121.58,163.99 -231.84,221.95 -74.93,39.59 -152.67,53.72 -230.42,43.83 -63.62,-8.48 -113.1,-36.75 -144.2,-83.41 -45.24,-69.27 -49.47,-144.2 -11.3,-219.12 26.85,-53.72 69.26,-93.31 96.12,-113.1 -5.65,-18.38 -14.14,-49.48 -18.37,-72.1 -204.99,148.44 -183.78,349.19 -121.58,443.9 46.65,70.69 141.37,114.52 245.98,114.52 28.27,0 56.54,-2.83 84.81,-9.9 180.95,-35.34 318.08,-142.79 395.83,-302.53zm248.8 -175.3c-107.44,-125.82 -265.77,-195.09 -446.71,-195.09l-22.62 0c-12.73,-25.45 -39.59,-42.41 -69.27,-42.41l-2.83 0c-43.82,1.41 -77.75,38.17 -76.34,81.99 1.42,42.41 36.76,76.34 79.17,76.34l2.82 0c31.1,-1.41 57.96,-21.2 69.27,-48.07l25.45 0c107.44,0 209.22,31.1 301.11,91.89 70.68,46.66 121.57,107.45 149.84,180.96 24.03,59.37 22.62,117.34 -2.83,166.82 -39.58,74.92 -106.02,115.92 -193.66,115.92 -56.55,0 -110.27,-16.97 -138.54,-29.69 -15.55,14.14 -43.83,36.75 -63.62,50.9 60.79,28.27 122.99,43.82 182.36,43.82 135.71,0 236.08,-74.93 274.25,-149.85 41,-82 38.17,-223.37 -67.85,-343.53l0 0zm-718.14 199.33c1.42,42.41 36.76,76.33 79.17,76.33l2.83 0c43.82,-1.41 77.75,-38.17 76.33,-81.99 -1.41,-42.41 -36.75,-76.34 -79.16,-76.34l-2.83 0c-2.83,0 -7.07,0 -9.89,1.41 -57.96,-96.13 -81.99,-200.74 -73.51,-313.84 5.65,-84.82 33.93,-158.33 83.4,-219.12 41,-52.31 120.16,-77.75 173.88,-79.17 149.84,-2.83 213.46,183.78 217.7,258.71 18.38,4.24 49.48,14.14 70.68,21.21 -16.96,-229.02 -158.33,-347.77 -294.03,-347.77 -127.23,0 -244.57,91.89 -291.22,227.6 -65.02,180.96 -22.62,354.84 56.55,491.97 -7.07,9.89 -11.31,25.45 -9.9,41l0 0z"/>
  <path class="fil1" d="M1300.24 459.66l0 -245.77 104.52 0c26.26,0 45.36,2.23 57.26,6.64 11.96,4.4 21.46,12.24 28.61,23.51 7.15,11.33 10.75,24.2 10.75,38.73 0,18.48 -5.38,33.7 -16.19,45.71 -10.81,12.02 -26.94,19.57 -48.46,22.71 10.7,6.24 19.52,13.1 26.44,20.6 6.97,7.49 16.36,20.82 28.14,39.93l29.98 47.94 -59.32 0 -35.59 -53.66c-12.76,-19.05 -21.51,-31.07 -26.26,-36.04 -4.69,-4.92 -9.67,-8.35 -14.93,-10.19 -5.32,-1.83 -13.67,-2.74 -25.11,-2.74l-10.07 0 0 102.63 -49.77 0zm49.77 -141.76l36.73 0c23.8,0 38.61,-1.03 44.56,-3.03 5.89,-2.01 10.58,-5.5 13.9,-10.42 3.38,-4.92 5.04,-11.1 5.04,-18.48 0,-8.29 -2.23,-14.93 -6.64,-20.08 -4.41,-5.09 -10.64,-8.29 -18.65,-9.61 -4.06,-0.57 -16.13,-0.85 -36.21,-0.85l-38.73 0 0 62.47z"/>
  <polygon id="_1" class="fil1" points="2135.2,459.66 2199.39,367.9 2137.95,281.51 2195.39,281.51 2226.85,330.48 2260.26,281.51 2315.41,281.51 2255.05,365.9 2320.9,459.66 2263.52,459.66 2226.85,404.45 2190.35,459.66 "/>
  <path id="_2" class="fil1" d="M1650.76 403.37l47.02 7.89c-6,17.22 -15.56,30.32 -28.54,39.36 -13.05,8.98 -29.35,13.5 -48.86,13.5 -30.95,0 -53.89,-10.12 -68.71,-30.38 -11.73,-16.24 -17.62,-36.72 -17.62,-61.5 0,-29.51 7.72,-52.68 23.11,-69.39 15.39,-16.76 34.9,-25.11 58.47,-25.11 26.43,0 47.31,8.75 62.64,26.26 15.28,17.5 22.6,44.33 21.92,80.49l-117.74 0c0.34,13.96 4.12,24.83 11.38,32.61 7.21,7.78 16.25,11.67 27.01,11.67 7.38,0 13.55,-2 18.53,-6.01 5.03,-4 8.81,-10.47 11.39,-19.39zm2.74 -47.71c-0.34,-13.68 -3.83,-24.09 -10.52,-31.18 -6.7,-7.15 -14.82,-10.7 -24.43,-10.7 -10.24,0 -18.71,3.77 -25.4,11.27 -6.7,7.49 -9.96,17.73 -9.84,30.61l70.19 0z"/>
  <path id="_3" class="fil1" d="M1902.07 459.66l-43.59 0 0 -26.14c-7.26,10.18 -15.9,17.79 -25.8,22.94 -9.9,5.09 -19.91,7.66 -29.98,7.66 -20.53,0 -38.1,-8.23 -52.75,-24.77 -14.58,-16.53 -21.9,-39.53 -21.9,-69.11 0,-30.2 7.09,-53.2 21.33,-68.93 14.25,-15.74 32.21,-23.57 53.95,-23.57 19.91,0 37.19,8.29 51.72,24.83l0 -88.68 47.02 0 0 245.77zm-125.63 -92.51c0,19.05 2.64,32.84 7.84,41.37 7.61,12.35 18.19,18.53 31.81,18.53 10.81,0 20.02,-4.63 27.57,-13.9 7.61,-9.27 11.39,-23.06 11.39,-41.48 0,-20.53 -3.66,-35.3 -11.04,-44.33 -7.38,-9.04 -16.77,-13.56 -28.26,-13.56 -11.16,0 -20.48,4.46 -28.04,13.39 -7.49,8.92 -11.27,22.25 -11.27,39.98z"/>
  <path id="_4" class="fil1" d="M2066.09 459.66l0 -26.66c-6.52,9.5 -15.04,17.05 -25.63,22.71 -10.58,5.61 -21.74,8.41 -33.46,8.41 -12.02,0 -22.77,-2.63 -32.27,-7.89 -9.56,-5.26 -16.42,-12.7 -20.65,-22.2 -4.29,-9.55 -6.41,-22.71 -6.41,-39.53l0 -112.99 47.03 0 0 82.04c0,25.11 0.86,40.45 2.63,46.11 1.71,5.67 4.86,10.18 9.49,13.45 4.58,3.31 10.42,4.97 17.51,4.97 8.07,0 15.27,-2.23 21.68,-6.64 6.41,-4.4 10.76,-9.89 13.1,-16.47 2.35,-6.58 3.55,-22.6 3.55,-48.17l0 -75.29 47.03 0 0 178.15 -43.6 0z"/>
  <polygon id="_5" class="fil1" points="1355.5,843.13 1355.5,638.9 1282.73,638.9 1282.73,597.36 1477.7,597.36 1477.7,638.9 1405.27,638.9 1405.27,843.13 "/>
  <path id="_6" class="fil1" d="M1555.9 597.36l0 91.08c15.28,-18.14 33.58,-27.23 54.81,-27.23 10.92,0 20.77,2 29.52,6 8.75,4.07 15.33,9.16 19.79,15.45 4.47,6.24 7.5,13.16 9.1,20.77 1.66,7.61 2.46,19.39 2.46,35.35l0 104.35 -47.03 0 0 -93.94c0,-18.64 -0.91,-30.49 -2.69,-35.52 -1.83,-5.04 -5.03,-9.04 -9.61,-11.96 -4.57,-2.97 -10.29,-4.46 -17.22,-4.46 -7.89,0 -14.93,1.89 -21.16,5.72 -6.24,3.78 -10.76,9.5 -13.62,17.16 -2.92,7.61 -4.35,18.94 -4.35,33.87l0 89.13 -47.02 0 0 -245.77 47.02 0z"/>
  <path id="_7" class="fil1" d="M1836.97 843.13l0 -26.66c-6.52,9.5 -15.05,17.05 -25.63,22.71 -10.58,5.61 -21.74,8.41 -33.47,8.41 -12.01,0 -22.77,-2.63 -32.26,-7.89 -9.56,-5.26 -16.42,-12.7 -20.66,-22.2 -4.28,-9.55 -6.4,-22.71 -6.4,-39.53l0 -112.99 47.02 0 0 82.04c0,25.12 0.86,40.45 2.63,46.11 1.72,5.67 4.87,10.18 9.5,13.45 4.58,3.32 10.41,4.97 17.51,4.97 8.07,0 15.27,-2.23 21.68,-6.63 6.41,-4.41 10.75,-9.9 13.1,-16.48 2.35,-6.58 3.55,-22.6 3.55,-48.17l0 -75.29 47.02 0 0 178.15 -43.59 0z"/>
  <path id="_8" class="fil1" d="M2090.92 843.13l-47.02 0 0 -90.79c0,-19.22 -1.04,-31.63 -3.04,-37.24 -2.06,-5.66 -5.32,-10.01 -9.89,-13.16 -4.58,-3.15 -10.07,-4.69 -16.48,-4.69 -8.24,0 -15.62,2.23 -22.14,6.69 -6.58,4.46 -11.04,10.42 -13.44,17.74 -2.46,7.38 -3.67,20.99 -3.67,40.9l0 80.55 -47.02 0 0 -178.15 43.59 0 0 26.15c15.62,-19.97 35.24,-29.92 58.98,-29.92 10.42,0 19.97,1.89 28.61,5.61 8.69,3.77 15.22,8.52 19.62,14.3 4.46,5.83 7.55,12.41 9.27,19.79 1.77,7.38 2.63,17.91 2.63,31.64l0 110.58z"/>
  <polygon id="_9" class="fil1" points="2136.86,843.13 2136.86,597.36 2183.88,597.36 2183.88,727.74 2238.98,664.98 2296.99,664.98 2236.23,730.09 2301.45,843.13 2250.65,843.13 2205.68,762.75 2183.88,786.1 2183.88,843.13 "/>
 </g>
</svg>
