<?xml version="1.0" encoding="UTF-8"?>
<!DOCTYPE svg PUBLIC "-//W3C//DTD SVG 1.1//EN" "http://www.w3.org/Graphics/SVG/1.1/DTD/svg11.dtd">
<!-- Creator: CorelDRAW -->
<svg xmlns="http://www.w3.org/2000/svg" xml:space="preserve" width="1135px" height="418px" version="1.1" style="shape-rendering:geometricPrecision; text-rendering:geometricPrecision; image-rendering:optimizeQuality; fill-rule:evenodd; clip-rule:evenodd"
viewBox="0 0 648.45 238.72"
 xmlns:xlink="http://www.w3.org/1999/xlink"
 xmlns:xodm="http://www.corel.com/coreldraw/odm/2003">
 <defs>
  <style type="text/css">
   <![CDATA[
    .fil1 {fill:black;fill-rule:nonzero}
    .fil0 {fill:#764ABC;fill-rule:nonzero}
   ]]>
  </style>
 </defs>
 <g id="Слой_x0020_1">
  <metadata id="CorelCorpID_0Corel-Layer"/>
  <path class="fil0" d="M174.24 166.72c9.28,-0.96 16.32,-8.96 15.99,-18.56 -0.31,-9.6 -8.31,-17.28 -17.91,-17.28l-0.64 0c-9.92,0.32 -17.6,8.64 -17.28,18.56 0.32,4.8 2.24,8.96 5.12,11.84 -10.88,21.44 -27.52,37.12 -52.48,50.24 -16.96,8.96 -34.56,12.16 -52.16,9.92 -14.4,-1.92 -25.6,-8.32 -32.64,-18.88 -10.24,-15.68 -11.2,-32.64 -2.56,-49.6 6.08,-12.16 15.68,-21.12 21.76,-25.6 -1.28,-4.16 -3.2,-11.2 -4.16,-16.32 -46.4,33.6 -41.6,79.04 -27.52,100.48 10.56,16 32,25.92 55.68,25.92 6.4,0 12.8,-0.64 19.2,-2.23 40.96,-8.01 72,-32.33 89.6,-68.49zm56.32 -39.68c-24.33,-28.48 -60.16,-44.16 -101.12,-44.16l-5.12 0c-2.88,-5.76 -8.96,-9.6 -15.68,-9.6l-0.64 0c-9.92,0.32 -17.6,8.64 -17.28,18.56 0.32,9.6 8.32,17.28 17.92,17.28l0.64 0c7.04,-0.32 13.12,-4.8 15.68,-10.88l5.76 0c24.32,0 47.36,7.04 68.16,20.8 15.99,10.56 27.52,24.32 33.91,40.96 5.44,13.44 5.12,26.56 -0.64,37.76 -8.95,16.96 -23.99,26.24 -43.83,26.24 -12.8,0 -24.96,-3.84 -31.36,-6.72 -3.52,3.2 -9.92,8.32 -14.4,11.52 13.76,6.4 27.84,9.92 41.28,9.92 30.72,0 53.43,-16.96 62.07,-33.92 9.28,-18.56 8.64,-50.56 -15.35,-77.76l0 0zm-162.56 45.12c0.32,9.6 8.32,17.28 17.92,17.28l0.64 0c9.92,-0.32 17.6,-8.64 17.28,-18.56 -0.32,-9.6 -8.32,-17.28 -17.92,-17.28l-0.64 0c-0.64,0 -1.6,0 -2.24,0.32 -13.12,-21.76 -18.56,-45.44 -16.64,-71.04 1.28,-19.2 7.68,-35.84 18.88,-49.6 9.28,-11.84 27.2,-17.6 39.36,-17.92 33.92,-0.64 48.31,41.6 49.28,58.56 4.16,0.96 11.2,3.2 16,4.8 -3.85,-51.84 -35.84,-78.72 -66.56,-78.72 -28.8,0 -55.36,20.8 -65.92,51.52 -14.72,40.96 -5.12,80.32 12.8,111.36 -1.6,2.24 -2.56,5.76 -2.24,9.28l0 0z"/>
  <path class="fil1" d="M292.04 168.01l0 -85.82 36.5 0c9.17,0 15.84,0.78 19.99,2.32 4.18,1.54 7.5,4.27 9.99,8.21 2.5,3.95 3.76,8.45 3.76,13.52 0,6.46 -1.88,11.77 -5.66,15.97 -3.77,4.19 -9.41,6.83 -16.92,7.93 3.74,2.17 6.82,4.57 9.23,7.19 2.44,2.62 5.72,7.27 9.83,13.94l10.47 16.74 -20.72 0 -12.42 -18.73c-4.46,-6.66 -7.51,-10.85 -9.17,-12.59 -1.64,-1.72 -3.38,-2.92 -5.22,-3.56 -1.85,-0.64 -4.77,-0.96 -8.77,-0.96l-3.51 0 0 35.84 -17.38 0zm17.38 -49.5l12.82 0c8.31,0 13.49,-0.36 15.57,-1.06 2.05,-0.7 3.69,-1.92 4.85,-3.63 1.18,-1.72 1.76,-3.88 1.76,-6.46 0,-2.89 -0.78,-5.21 -2.32,-7.01 -1.54,-1.78 -3.72,-2.9 -6.51,-3.36 -1.42,-0.19 -5.64,-0.29 -12.65,-0.29l-13.52 0 0 21.81z"/>
  <path id="_1" class="fil1" d="M414.44 148.36l16.42 2.75c-2.1,6.02 -5.43,10.59 -9.97,13.75 -4.55,3.13 -10.25,4.71 -17.06,4.71 -10.81,0 -18.82,-3.53 -23.99,-10.61 -4.1,-5.67 -6.16,-12.82 -6.16,-21.47 0,-10.31 2.7,-18.4 8.08,-24.23 5.37,-5.86 12.18,-8.77 20.41,-8.77 9.23,0 16.52,3.05 21.88,9.17 5.33,6.11 7.89,15.48 7.65,28.1l-41.11 0c0.12,4.88 1.43,8.67 3.97,11.39 2.52,2.72 5.67,4.08 9.43,4.08 2.58,0 4.74,-0.7 6.47,-2.1 1.76,-1.4 3.08,-3.66 3.98,-6.77zm0.96 -16.66c-0.12,-4.78 -1.34,-8.42 -3.68,-10.89 -2.34,-2.5 -5.17,-3.74 -8.53,-3.74 -3.57,0 -6.53,1.32 -8.87,3.94 -2.34,2.61 -3.47,6.19 -3.43,10.69l24.51 0z"/>
  <path id="_2" class="fil1" d="M502.2 168.01l-15.22 0 0 -9.12c-2.54,3.55 -5.56,6.21 -9.01,8.01 -3.46,1.77 -6.96,2.67 -10.47,2.67 -7.17,0 -13.31,-2.87 -18.42,-8.65 -5.09,-5.77 -7.65,-13.8 -7.65,-24.13 0,-10.55 2.48,-18.58 7.45,-24.07 4.97,-5.5 11.25,-8.23 18.84,-8.23 6.95,0 12.98,2.89 18.06,8.67l0 -30.97 16.42 0 0 85.82zm-43.87 -32.3c0,6.65 0.92,11.47 2.74,14.44 2.65,4.32 6.35,6.48 11.1,6.48 3.78,0 7,-1.62 9.63,-4.86 2.66,-3.23 3.98,-8.05 3.98,-14.48 0,-7.17 -1.28,-12.33 -3.86,-15.48 -2.58,-3.16 -5.85,-4.74 -9.87,-4.74 -3.89,0 -7.15,1.56 -9.79,4.68 -2.61,3.11 -3.93,7.77 -3.93,13.96z"/>
  <path id="_3" class="fil1" d="M559.47 168.01l0 -9.31c-2.27,3.32 -5.25,5.96 -8.95,7.94 -3.69,1.95 -7.59,2.93 -11.68,2.93 -4.2,0 -7.95,-0.92 -11.27,-2.75 -3.34,-1.84 -5.73,-4.44 -7.21,-7.76 -1.5,-3.33 -2.24,-7.93 -2.24,-13.8l0 -39.46 16.42 0 0 28.65c0,8.77 0.3,14.13 0.92,16.1 0.6,1.98 1.7,3.56 3.32,4.7 1.6,1.16 3.63,1.74 6.11,1.74 2.82,0 5.33,-0.78 7.57,-2.32 2.24,-1.54 3.76,-3.46 4.58,-5.75 0.82,-2.3 1.24,-7.89 1.24,-16.83l0 -26.29 16.42 0 0 62.21 -15.23 0z"/>
  <polygon id="_4" class="fil1" points="583.61,168.01 606.02,135.97 584.57,105.8 604.62,105.8 615.61,122.91 627.28,105.8 646.54,105.8 625.46,135.27 648.45,168.01 628.42,168.01 615.61,148.74 602.87,168.01 "/>
 </g>
</svg>
