<?xml version="1.0" encoding="UTF-8"?>
<!DOCTYPE svg PUBLIC "-//W3C//DTD SVG 1.1//EN" "http://www.w3.org/Graphics/SVG/1.1/DTD/svg11.dtd">
<!-- Creator: CorelDRAW -->
<svg xmlns="http://www.w3.org/2000/svg" xml:space="preserve" width="1244px" height="411px" version="1.1" style="shape-rendering:geometricPrecision; text-rendering:geometricPrecision; image-rendering:optimizeQuality; fill-rule:evenodd; clip-rule:evenodd"
viewBox="0 0 3401.83 1123.7"
 xmlns:xlink="http://www.w3.org/1999/xlink"
 xmlns:xodm="http://www.corel.com/coreldraw/odm/2003">
 <defs>
  <style type="text/css">
   <![CDATA[
    .fil0 {fill:#2B3A42}
    .fil3 {fill:#1C78C0;fill-rule:nonzero}
    .fil2 {fill:#8ED6FB;fill-rule:nonzero}
    .fil4 {fill:#F5FAFA;fill-rule:nonzero}
    .fil1 {fill:white;fill-rule:nonzero}
   ]]>
  </style>
 </defs>
 <g id="Слой_x0020_1">
  <metadata id="CorelCorpID_0Corel-Layer"/>
  <rect class="fil0" width="3401.83" height="1123.7" rx="226.66" ry="226.66"/>
  <g id="webpack.svg">
   <polygon class="fil1" points="519.15,115.75 914.33,339.28 914.33,786.43 519.15,1009.96 123.97,786.43 123.97,339.28 "/>
   <path class="fil2" d="M843.77 771.01l-311.55 176.25 0 -137.24 194.12 -106.81 117.43 67.8zm21.34 -19.3l0 -368.52 -113.96 65.86 0 236.9 113.96 65.76zm-671.81 19.3l311.55 176.25 0 -137.24 -194.22 -106.81 -117.33 67.8zm-21.34 -19.3l0 -368.52 113.96 65.86 0 236.9 -113.96 65.76zm13.38 -392.42l319.51 -180.74 0 132.65 -204.74 112.63 -1.63 0.92 -113.14 -65.46zm666.39 0l-319.51 -180.74 0 132.65 204.73 112.53 1.64 0.91 113.14 -65.35z"/>
   <path class="fil3" d="M504.85 778.77l-191.57 -105.38 0 -208.61 191.57 110.58 0 203.41zm27.37 0l191.56 -105.27 0 -208.72 -191.56 110.58 0 203.41zm-205.97 -338.09l192.28 -105.69 192.28 105.69 -192.28 110.99 -192.28 -110.99z"/>
   <path class="fil4" d="M1312.88 704.23l84.24 0 85.88 -286.12 -82.1 0 -50.86 203 -54.22 -203 -71.07 0 -54.73 203 -50.34 -203 -82.1 0 85.36 286.12 84.25 0 53.1 -183.29 52.59 183.29zm174.51 -142.24c0,85.88 58.51,149.39 150.52,149.39 71.17,0 109.46,-42.68 120.39,-62.9l-49.84 -37.79c-8.17,12.06 -30.63,35.03 -69.53,35.03 -42.18,0 -72.81,-27.37 -74.45,-65.66l201.47 0c0.51,-5.51 0.51,-10.93 0.51,-16.44 0,-93.53 -50.34,-152.66 -138.97,-152.66 -81.59,0 -140.1,64.54 -140.1,151.03zm79.34 -31.25c3.27,-32.78 26.24,-58 61.88,-58 34.52,0 59.64,22.98 61.27,58l-123.15 0zm228.22 173.49l71.18 0 0 -29.51c7.66,9.29 36.15,36.66 84.85,36.66 82.1,0 140.1,-61.78 140.1,-149.9 0,-88.64 -53.61,-150.41 -135.71,-150.41 -49.21,0 -77.7,27.36 -84.85,37.16l0 -139.59 -75.46 0 0 395.59 -0.11 0zm73.32 -142.24c0,-53.61 31.76,-84.25 73.32,-84.25 43.81,0 73.32,34.52 73.32,84.25 0,50.85 -30.64,82.61 -73.32,82.61 -45.95,0 -73.32,-37.27 -73.32,-82.61zm252.22 244.56l75.46 0 0 -131.93c7.15,9.29 35.54,36.66 84.86,36.66 82.1,0 135.71,-61.78 135.71,-150.42 0,-87.51 -58,-149.9 -140.1,-149.9 -48.71,0 -77.2,27.37 -84.86,37.17l0 -30.12 -71.17 0 0 388.54 0.1 0zm73.32 -246.2c0,-45.44 27.37,-82.61 73.32,-82.61 42.68,0 73.31,31.76 73.31,82.61 0,49.83 -29.51,84.25 -73.31,84.25 -41.56,0 -73.32,-30.64 -73.32,-84.25zm236.39 55.25c0,60.14 49.22,95.78 107.22,95.78 32.88,0 54.73,-9.8 69.54,-25.73l4.9 18.58 66.79 0 0 -181.15c0,-64.02 -27.37,-112.12 -119.27,-112.12 -43.81,0 -87,16.44 -112.74,33.9l28.49 51.47c23.37,-12.63 49.51,-19.59 76.08,-20.23 33.39,0 51.97,16.95 51.97,42.17l0 18.59c-10.41,-7.15 -32.88,-15.83 -61.88,-15.83 -66.78,-0.1 -111.1,38.19 -111.1,94.56l0 0.01zm75.46 -2.25c0,-23.49 20.23,-39.93 49.22,-39.93 29,0 49.84,14.81 49.84,39.93 0,24.1 -20.84,39.42 -49.22,39.42 -28.39,0 -49.84,-15.83 -49.84,-39.42zm356.28 31.25c-47.59,0 -81.49,-34.52 -81.49,-83.12 0,-45.95 30.13,-83.74 78.83,-83.74 24.95,0.2 48.86,10.03 66.78,27.37l21.34 -63.52c-25.54,-19.84 -56.99,-30.63 -89.34,-30.63 -0.31,0 -0.63,0 -0.93,0 -87,0 -152.15,64.02 -152.15,151.03 0,87 63.52,149.39 152.66,149.39 0.12,0 0.26,0 0.37,0 32.18,0 63.46,-10.79 88.79,-30.64l-20.23 -61.78c-12.66,10.32 -35.63,25.63 -64.63,25.63l0 0.01zm113.24 59.63l75.47 0 0 -147.76 95.78 147.76 88.63 0 -108.34 -156.54 100.68 -129.68 -84.85 0 -91.9 120.39 0 -229.76 -75.47 0 0 395.59z"/>
  </g>
 </g>
</svg>
