
<svg xmlns="http://www.w3.org/2000/svg"   version="1.1" style="shape-rendering:geometricPrecision; text-rendering:geometricPrecision; image-rendering:optimizeQuality; fill-rule:evenodd; clip-rule:evenodd"
viewBox="0 0 306.83 115.2"
>
  <path fill="white"  d="M58.8 48.23c1.35,1.78 2.65,3.58 3.91,5.41 1.24,1.84 2.39,3.62 3.45,5.36 0.87,1.47 1.69,2.91 2.45,4.36 0.78,1.45 1.45,2.84 2.02,4.14 0.56,1.32 0.89,2.71 1.02,4.23 0.11,1.5 0.13,2.89 0.02,4.15 -0.04,0.76 -0.13,1.47 -0.28,2.14 -0.13,0.64 -0.26,1.16 -0.37,1.57 -0.17,0.58 -0.39,1.13 -0.61,1.65 -0.24,0.54 -0.48,1 -0.72,1.39 -0.38,0.54 -0.78,0.97 -1.28,1.28 -0.49,0.32 -1.04,0.47 -1.69,0.47 -0.34,0 -0.63,-0.13 -0.93,-0.39 -0.3,-0.24 -0.63,-0.5 -0.98,-0.76 -0.34,-0.21 -0.73,-0.43 -1.15,-0.62 -0.45,-0.2 -0.76,-0.46 -0.99,-0.79 -0.29,-0.41 -0.42,-0.89 -0.38,-1.45 0.03,-0.56 -0.04,-1.11 -0.23,-1.65 -0.11,-0.45 -0.37,-0.87 -0.81,-1.32 -0.43,-0.42 -0.65,-0.87 -0.65,-1.3 0,-1.42 -0.22,-3 -0.67,-4.73 -0.43,-1.72 -1.06,-3.52 -1.86,-5.41 -0.53,-1.26 -1.18,-2.58 -1.91,-3.95 -0.72,-1.36 -1.54,-2.75 -2.41,-4.16 -3.26,5.9 -6.03,10.82 -8.33,14.75 -2.28,3.93 -4.13,7.07 -5.54,9.42 -0.91,1.52 -1.48,2.78 -1.71,3.75 -0.24,0.98 -0.37,1.82 -0.41,2.5 -0.03,0.61 -0.07,1.32 -0.09,2.12 -0.02,0.79 -0.2,1.63 -0.56,2.5 -0.11,0.3 -0.31,0.65 -0.63,1.06 -0.31,0.42 -0.53,0.81 -0.68,1.22 -0.11,0.34 -0.13,0.67 -0.08,1.04 0.06,0.35 0.02,0.69 -0.09,0.97 -0.09,0.29 -0.17,0.63 -0.2,1.02 -0.04,0.37 -0.11,0.66 -0.23,0.89 -0.22,0.27 -0.51,0.46 -0.89,0.53 -0.39,0.08 -0.7,0.12 -0.98,0.12 -0.98,0 -1.84,-0.78 -2.54,-2.34 -0.7,-1.56 -1.26,-2.8 -1.65,-3.75 -0.74,-1.67 -1.34,-3.17 -1.8,-4.49 -0.48,-1.31 -0.59,-2.5 -0.33,-3.56 0.18,-0.69 0.5,-1.63 0.98,-2.86 0.46,-1.2 0.85,-2.57 1.13,-4.09 0.58,-3.19 1.32,-6.44 2.21,-9.78 0.89,-3.34 1.7,-6.64 2.46,-9.9 0.95,-3.9 1.86,-7.63 2.73,-11.13 0.87,-3.53 1.58,-6.42 2.12,-8.7 -0.99,-1.02 -1.73,-1.8 -2.23,-2.34 -0.52,-0.54 -1.26,-1.24 -2.24,-2.11 -0.93,1.41 -1.99,2.98 -3.16,4.69 -1.15,1.72 -2.35,3.56 -3.58,5.47 -1.13,1.78 -2.3,3.64 -3.54,5.58 -1.22,1.93 -2.45,3.86 -3.64,5.79 -1.33,2.25 -2.69,4.51 -4.02,6.77 -1.34,2.26 -2.62,4.43 -3.8,6.51 -1.47,2.6 -2.79,5.06 -4.01,7.38 -1.2,2.32 -2.19,4.31 -2.91,5.94 -0.19,0.39 -0.43,0.48 -0.73,0.28 -0.31,-0.23 -0.63,-0.65 -0.96,-1.26 -0.28,-0.54 -0.89,-1.45 -1.78,-2.75 -0.91,-1.28 -1.3,-2.11 -1.15,-2.52 0.33,-0.99 0.78,-1.99 1.34,-2.99 0.55,-1.02 1.05,-2.08 1.48,-3.15 0.44,-0.98 1,-1.91 1.69,-2.78 0.68,-0.87 1.28,-1.82 1.74,-2.82 0.52,-1.1 1.08,-2.1 1.69,-3.03 0.61,-0.92 1.22,-1.94 1.8,-3.08 0.65,-1.22 1.33,-2.5 2.04,-3.84 0.7,-1.31 1.39,-2.59 2.09,-3.82 0.54,-0.98 1.15,-2 1.84,-3.06 0.69,-1.03 1.34,-2.05 1.91,-3.04 0.58,-0.98 1.24,-1.91 2,-2.8 0.76,-0.89 1.45,-1.82 2.03,-2.8 0.53,-0.95 1.15,-1.8 1.81,-2.58 0.67,-0.78 1.32,-1.63 1.93,-2.54 0.45,-0.65 0.86,-1.33 1.26,-2.06 0.39,-0.72 0.82,-1.41 1.25,-2.08 -1.82,-1.52 -3.56,-2.93 -5.27,-4.24 -1.71,-1.3 -3.47,-2.58 -5.32,-3.81 -1.75,-1.16 -3.29,-2.24 -4.64,-3.26 -1.36,-1.02 -2.99,-2.08 -4.86,-3.15 -0.26,-0.15 -0.6,-0.26 -1.04,-0.32 -0.43,-0.05 -0.78,-0.15 -1.04,-0.3 -0.43,-0.24 -0.76,-0.57 -1,-0.94 -0.22,-0.39 -0.56,-0.71 -1,-0.97 -0.39,-0.24 -0.87,-0.31 -1.41,-0.18 -0.54,0.13 -0.91,0.2 -1.1,0.24 -0.2,0.04 -0.55,-0.07 -1.02,-0.35 -0.46,-0.26 -0.76,-0.58 -0.87,-0.95 -0.22,-0.72 0.3,-1.26 1.54,-1.59 1.26,-0.36 2.28,-0.69 3.08,-1.02 0.98,-0.36 1.84,-0.63 2.58,-0.84 0.74,-0.2 1.45,-0.26 2.1,-0.18 0.38,0 0.92,0.01 1.59,0.07 0.67,0.06 1.24,0.22 1.73,0.52 0.27,0.15 0.48,0.37 0.59,0.7 0.11,0.34 0.31,0.6 0.65,0.82 0.22,0.19 0.72,0.45 1.5,0.82 0.78,0.35 1.3,0.63 1.6,0.81 1.29,0.91 2.52,1.82 3.63,2.73 1.13,0.91 2.5,1.89 4.14,2.99 1.52,1.02 2.98,2.04 4.37,3.06 1.4,1.02 2.75,2 4.05,2.98 2.21,-3.08 4.3,-5.71 6.27,-7.9 1.98,-2.21 3.84,-4.21 5.58,-6.01 0.35,-0.41 0.85,-0.8 1.52,-1.17 0.65,-0.39 1.3,-0.63 1.95,-0.74 0.65,-0.11 1.26,0.02 1.82,0.39 0.55,0.35 0.98,1.04 1.28,2.06 0.35,1.22 0.63,2.32 0.78,3.25 0.16,0.9 0.14,1.79 -0.08,2.63 -0.68,2.58 -1.46,5.47 -2.34,8.7 -0.87,3.23 -1.81,6.66 -2.82,10.29 1.49,1.41 2.57,2.45 3.21,3.1 0.65,0.65 1.64,1.78 2.93,3.38 0.41,0.13 0.78,0.11 1.12,-0.06 0.35,-0.19 0.59,-0.45 0.74,-0.76 0.26,-0.52 0.46,-1 0.65,-1.5 0.18,-0.48 0.39,-0.97 0.59,-1.43 0.52,-1.02 1.06,-2.02 1.67,-3.02 0.59,-1.01 1.15,-2.03 1.65,-3.08 0.11,-0.28 0.15,-0.5 0.11,-0.67 -0.03,-0.17 0,-0.39 0.11,-0.69 0.43,-0.87 0.91,-1.89 1.47,-3.06 0.54,-1.18 1,-2.2 1.41,-3.08 0.24,-0.61 0.54,-1.22 0.83,-1.82 0.32,-0.59 0.62,-1.22 0.9,-1.87 0.33,-0.76 0.7,-1.57 1.09,-2.47 0.39,-0.89 0.76,-1.72 1.09,-2.48 0.5,-1.11 1.04,-2.45 1.6,-3.99 0.56,-1.54 1.08,-2.89 1.54,-4.04 0.26,-0.65 0.57,-1.32 0.93,-1.99 0.37,-0.66 0.68,-1.33 0.98,-1.98 0.22,-0.54 0.41,-1.13 0.57,-1.76 0.15,-0.63 0.36,-1.23 0.56,-1.76 0.04,-0.15 0.15,-0.21 0.3,-0.15 0.16,0.05 0.31,0.2 0.46,0.4 0.15,0.23 0.41,0.75 0.76,1.56 0.37,0.82 0.65,1.45 0.82,1.88 0.26,0.65 0.54,1.61 0.81,2.87 0.3,1.28 0.37,2.08 0.23,2.45 -0.3,0.8 -0.6,1.61 -0.89,2.47 -0.32,0.85 -0.63,1.72 -0.97,2.57 -0.85,2.32 -1.83,4.59 -2.89,6.81 -1.08,2.21 -2.13,4.51 -3.17,6.9 -0.99,2.32 -2.04,4.66 -3.19,7.03 -1.14,2.38 -2.29,4.71 -3.45,7.03 -0.5,1.02 -1.02,2.06 -1.54,3.1 -0.52,1.06 -1.04,2.08 -1.56,3.1zm-17.12 -23.06c-0.26,0 -0.63,0.26 -1.11,0.82 -0.49,0.53 -1.08,1.2 -1.77,2 0.19,0.11 0.45,0.26 0.78,0.46 0.35,0.21 0.63,0.41 0.86,0.63 0.2,0.17 0.38,0.38 0.53,0.56 0.15,0.2 0.28,0.35 0.37,0.46 0.41,-1.44 0.63,-2.63 0.67,-3.56 0.04,-0.91 -0.07,-1.37 -0.33,-1.37zm8.22 26.97c-0.8,-1.09 -1.67,-2.23 -2.62,-3.43 -0.93,-1.19 -1.84,-2.28 -2.71,-3.25 -1.3,4.92 -2.47,9.65 -3.5,14.16 -1.02,4.5 -1.77,8.45 -2.19,11.87 0.65,-1.1 1.41,-2.43 2.3,-4.05 0.89,-1.61 1.78,-3.24 2.69,-4.88 0.29,-0.53 0.57,-1.11 0.85,-1.7 0.26,-0.6 0.56,-1.17 0.89,-1.71 0.35,-0.65 0.78,-1.22 1.24,-1.74 0.48,-0.5 0.87,-1.06 1.21,-1.69 0.17,-0.32 0.28,-0.74 0.31,-1.26 0.04,-0.54 0.13,-0.97 0.28,-1.28 0.15,-0.3 0.35,-0.48 0.65,-0.56 0.3,-0.05 0.48,-0.22 0.6,-0.48z"/>
  <path fill="white" d="M72.15 66.79c0.84,-0.87 2.12,-1.93 3.86,-3.15 1.73,-1.22 3.02,-2.24 3.86,-3.04 0.54,-0.65 1.24,-1.45 2.11,-2.36 0.86,-0.92 1.89,-2.02 3.08,-3.3 0.73,-0.65 1.43,-1.15 2.12,-1.52 0.68,-0.35 1.37,-0.54 2.06,-0.54 0.87,0 1.54,0.23 2.04,0.65 0.48,0.45 0.72,1.13 0.72,2.06 0,1.43 -0.54,3.71 -1.63,6.86 -1.08,3.14 -1.62,5.53 -1.62,7.16 0,0.37 0.08,0.61 0.24,0.76 0.17,0.15 0.36,0.23 0.58,0.23l0.26 -0.06c0.69,-0.45 1.5,-0.98 2.43,-1.65 0.91,-0.69 1.96,-1.5 3.12,-2.49 0.94,-0.87 2.11,-2 3.5,-3.41 1.39,-1.41 3.02,-3.04 4.92,-4.9 0.72,-0.57 1.54,-1.31 2.46,-2.22 0.93,-0.91 1.97,-1.99 3.14,-3.27 0.46,-0.65 1.13,-1.15 1.98,-1.52 0.84,-0.35 1.89,-0.54 3.12,-0.54 0.83,0 1.46,0.15 1.87,0.47 0.43,0.3 0.63,0.76 0.63,1.39 0,0.24 -0.03,0.48 -0.09,0.72 -0.06,0.24 -0.09,0.47 -0.13,0.69 -0.26,1.07 -0.63,2.41 -1.13,3.99 -0.52,1.57 -1.13,3.43 -1.86,5.56 -0.61,1.36 -1.26,2.95 -1.93,4.82 -0.66,1.86 -1.37,3.92 -2.13,6.16l0.37 0.48c0.76,-0.35 1.89,-1.22 3.38,-2.57 1.48,-1.36 3.37,-3.18 5.64,-5.46l2.22 5.01c-0.29,0.3 -0.65,0.65 -1.05,1.06 -0.41,0.43 -0.97,0.87 -1.65,1.33 -3.88,2.77 -7.2,5.49 -9.97,8.2 -2.76,2.71 -4.95,5.38 -6.58,8.03 -2.41,3.99 -4.43,7.26 -6.05,9.76 -1.59,2.5 -2.76,4.27 -3.48,5.27 -2.51,3.32 -4.86,5.77 -7.11,7.36 -2.24,1.6 -4.43,2.39 -6.56,2.39 -0.8,0 -1.38,-0.16 -1.75,-0.48 -0.35,-0.33 -0.54,-0.83 -0.54,-1.54 0,-0.35 0.1,-0.81 0.28,-1.35 0.17,-0.54 0.5,-1.13 0.97,-1.74 0.68,-0.99 1.31,-2.01 1.89,-3.05l1.61 -1.43c0.15,-0.46 0.22,-0.79 0.22,-0.98 0.13,-0.17 0.34,-0.39 0.62,-0.65 0.26,-0.26 0.57,-0.54 0.93,-0.87 0.25,-0.65 0.94,-1.72 2.04,-3.23 1.11,-1.52 2.65,-3.45 4.65,-5.8 1.49,-1.75 2.84,-3.3 4.06,-4.66 1.25,-1.37 2.28,-2.52 3.16,-3.47 0.14,-0.27 0.29,-0.63 0.46,-1.02 0.17,-0.4 0.3,-0.79 0.41,-1.2 0.48,-0.95 0.98,-2.1 1.56,-3.43 0.55,-1.34 1.22,-2.93 2.02,-4.73 0.37,-1.06 0.68,-2.27 0.92,-3.64 0.26,-1.35 0.51,-2.84 0.71,-4.43 -0.07,-0.15 -0.11,-0.34 -0.13,-0.58 -0.02,-0.22 -0.09,-0.57 -0.24,-1 -0.65,0.32 -1.37,0.82 -2.15,1.47 -0.78,0.65 -1.62,1.41 -2.53,2.28 -1.2,1.56 -2.41,2.85 -3.63,3.89 -1.24,1.02 -2.45,1.82 -3.65,2.36 -0.8,1.56 -1.82,2.71 -3.07,3.45 -1.26,0.74 -2.68,1.11 -4.32,1.11 -1.18,0 -2.09,-0.28 -2.71,-0.83 -0.63,-0.58 -0.92,-1.43 -0.92,-2.58 0,-0.22 0.02,-0.5 0.07,-0.82 0.06,-0.33 0.15,-0.7 0.24,-1.15 -0.13,-0.35 -0.31,-0.85 -0.54,-1.5 0.15,-0.63 0.28,-1.32 0.4,-2.08 0,-1.07 -0.1,-1.89 -0.27,-2.43 -0.14,-0.55 -0.4,-0.81 -0.77,-0.81l-0.23 0.09c-0.39,0.3 -0.94,0.74 -1.68,1.32 -0.73,0.57 -1.58,1.28 -2.6,2.11 -0.19,-0.46 -0.41,-1.04 -0.69,-1.69 -0.28,-0.65 -0.57,-1.41 -0.87,-2.28 -0.07,-0.22 -0.17,-0.43 -0.28,-0.61 -0.11,-0.17 -0.24,-0.32 -0.39,-0.43z"/>
  <path fill="white" d="M167.18 70.91c-0.26,0.3 -0.54,0.58 -0.84,0.87 -0.31,0.28 -0.61,0.56 -0.91,0.82 -0.76,0.69 -1.56,1.33 -2.41,1.96 -0.85,0.64 -1.65,1.17 -2.41,1.6 -0.58,0.33 -1.17,0.63 -1.76,0.93 -0.6,0.29 -1.17,0.52 -1.71,0.7 -0.56,0.23 -1.07,0.37 -1.58,0.48 -0.52,0.12 -0.96,0.17 -1.35,0.17 -0.67,0 -1.3,-0.07 -1.95,-0.24 -0.63,-0.17 -1.22,-0.37 -1.76,-0.63 -0.72,-0.32 -1.43,-0.76 -2.09,-1.3 -0.67,-0.54 -1.32,-1.15 -1.93,-1.8 -0.39,-0.42 -0.84,-0.91 -1.34,-1.43 -0.48,-0.53 -1.02,-1.16 -1.59,-1.92 -0.23,0.27 -0.47,0.59 -0.71,0.89 -0.26,0.31 -0.5,0.61 -0.7,0.89 -0.45,0.59 -0.86,1.13 -1.25,1.66 -0.41,0.52 -0.81,1.06 -1.26,1.6 -0.57,0.72 -1,1.21 -1.26,1.45 -0.28,0.22 -0.71,0.65 -1.28,1.26 -0.5,0.55 -0.95,1.15 -1.34,1.78 -0.37,0.63 -0.77,1.19 -1.2,1.65 -1.21,1.19 -2.26,2.11 -3.23,2.76 -0.96,0.65 -1.56,0.99 -1.82,0.99 -1.29,-0.3 -2.24,-0.8 -2.83,-1.52 -0.62,-0.73 -1.04,-1.67 -1.28,-2.82 -0.26,-1.14 -0.28,-2.36 -0.1,-3.69 0.21,-1.36 0.45,-2.64 0.75,-3.86 0.22,-0.91 0.5,-1.91 0.83,-2.99 0.35,-1.09 0.69,-2.13 1.02,-3.1 0.35,-1.28 0.67,-2.37 0.91,-3.32 0.26,-0.94 0.3,-1.46 0.11,-1.57 -0.18,-0.12 -0.54,0.18 -1.08,0.87 -0.55,0.7 -1.13,1.46 -1.74,2.3 -0.76,1.02 -1.54,2.04 -2.34,3.08 -0.79,1.04 -1.83,2.06 -3.09,3.04l-2.12 -4.9c1.37,-1.2 2.97,-2.82 4.75,-4.84 1.8,-2.02 4.02,-4.62 6.66,-7.75 2.69,-3.19 4.52,-5.44 5.51,-6.75 1,-1.34 2.2,-1.58 3.62,-0.75 0.25,0.15 0.51,0.38 0.81,0.65 0.3,0.3 0.46,0.65 0.54,1.1 0.04,0.31 0.09,0.74 0.15,1.28 0.03,0.52 0.05,1 0.02,1.43 -0.04,0.4 -0.21,0.81 -0.52,1.22 -0.3,0.41 -0.54,0.82 -0.67,1.22 -0.11,0.43 -0.19,0.91 -0.21,1.41 -0.01,0.51 -0.07,1.02 -0.18,1.53 -0.15,0.61 -0.34,1.29 -0.56,2.04 -0.2,0.74 -0.42,1.48 -0.65,2.24 -0.22,0.8 -0.46,1.63 -0.74,2.47 -0.28,0.85 -0.52,1.7 -0.74,2.54 -0.15,0.54 -0.32,1.11 -0.48,1.72 -0.19,0.63 -0.34,1.21 -0.45,1.75 -0.11,0.61 -0.2,1.22 -0.29,1.81 -0.1,0.62 -0.15,1.15 -0.19,1.67 -0.19,1.08 -0.11,1.6 0.24,1.54 0.35,-0.05 0.84,-0.63 1.5,-1.7 0.39,-0.65 0.86,-1.41 1.38,-2.28 0.52,-0.88 1.04,-1.62 1.54,-2.23 0.33,-0.41 0.63,-0.74 0.9,-1.02 0.26,-0.26 0.51,-0.58 0.73,-0.95 -0.08,-0.24 -0.28,-0.57 -0.6,-0.94 -0.33,-0.37 -0.48,-0.69 -0.48,-0.89 0,-0.34 0.06,-0.73 0.21,-1.21 0.14,-0.46 0.26,-0.85 0.33,-1.13 0.11,-0.48 0.32,-0.96 0.61,-1.47 0.32,-0.52 0.73,-1.02 1.23,-1.52 0.65,-0.65 1.26,-1.11 1.83,-1.39 0.6,-0.28 1.1,-0.39 1.52,-0.35 2.32,-3.91 4.27,-7.23 5.83,-10 1.57,-2.74 2.58,-4.6 3,-5.53 0.34,-0.7 0.87,-1.2 1.63,-1.52 0.77,-0.33 1.47,-0.44 2.12,-0.33 0.72,0.11 1.34,0.52 1.82,1.22 0.5,0.71 0.63,1.75 0.41,3.12 -0.04,0.3 -0.15,0.67 -0.36,1.15 -0.2,0.46 -0.46,0.98 -0.78,1.58 -0.29,0.57 -0.74,1.24 -1.33,1.98 -0.6,0.74 -1.15,1.52 -1.65,2.36 -0.19,0.31 -0.36,0.68 -0.5,1.07 -0.13,0.41 -0.32,0.78 -0.54,1.1 -0.28,0.46 -0.71,1.2 -1.26,2.22 -0.58,1.02 -1,1.78 -1.34,2.28 -0.54,0.88 -1.02,1.51 -1.46,1.92 -0.43,0.38 -0.97,1.03 -1.64,1.94 0.26,0.58 0.52,1.13 0.8,1.65 0.26,0.54 0.56,1.06 0.89,1.62 0.34,0.57 0.69,1.11 1.08,1.63 0.41,0.5 0.78,0.91 1.15,1.24 0.39,0.39 0.81,0.71 1.26,0.95 0.46,0.24 0.91,0.39 1.39,0.46 0.54,0.11 1.13,0.09 1.76,-0.04 0.65,-0.11 1.3,-0.33 1.95,-0.66 0.44,-0.19 0.91,-0.43 1.39,-0.76 0.5,-0.32 1.02,-0.69 1.56,-1.08 0.33,-0.26 0.67,-0.54 1,-0.81 0.35,-0.3 0.69,-0.58 1.02,-0.88l2.12 5.01z"/>
  <path fill="white" d="M164.36 66.79c0.26,-0.26 0.52,-0.57 0.79,-1 0.26,-0.41 0.58,-0.87 0.95,-1.37l4.19 -2.86c0.52,-0.61 1.3,-1.39 2.36,-2.33 1.05,-0.95 2.35,-2.12 3.91,-3.47 0.19,-0.41 0.48,-0.88 0.91,-1.39 0.41,-0.52 0.91,-1.04 1.48,-1.56 0.5,-0.47 1.02,-0.91 1.53,-1.32 0.5,-0.43 0.98,-0.83 1.4,-1.22 0.54,-0.56 1.06,-1.1 1.54,-1.64 0.5,-0.53 0.99,-1.07 1.51,-1.57 0.57,-0.5 1.16,-0.91 1.78,-1.21 0.61,-0.28 1.3,-0.42 2.02,-0.42 0.8,0 1.39,0.09 1.82,0.29 0.4,0.21 0.63,0.48 0.66,0.84 -0.35,0.83 -0.74,1.67 -1.13,2.5l0.32 0.5c1.59,-0.63 2.84,-1.07 3.75,-1.37 0.9,-0.28 1.48,-0.43 1.74,-0.43 2.63,0 4.62,0.8 5.93,2.41 1.32,1.62 1.99,4.07 1.99,7.31 0,0.63 -0.08,1.36 -0.22,2.19 -0.15,0.82 -0.37,1.73 -0.71,2.71 -0.35,1.09 -0.74,1.98 -1.17,2.71 -0.41,0.74 -0.8,1.26 -1.17,1.57 0.15,0.41 0.32,0.73 0.5,0.93 0.17,0.19 0.41,0.3 0.71,0.3 0.28,0 0.58,-0.09 0.89,-0.28 0.31,-0.19 0.69,-0.45 1.11,-0.82 0.37,0.8 0.73,1.63 1.06,2.49 0.35,0.85 0.71,1.69 1.06,2.52 -0.65,0.58 -1.28,1.15 -1.9,1.71 -0.62,0.54 -1.27,1.07 -1.96,1.57 -0.83,0.71 -1.61,1.21 -2.36,1.51 -0.74,0.31 -1.46,0.46 -2.19,0.46 -0.83,0 -1.52,-0.18 -2.07,-0.59 -0.54,-0.41 -0.97,-0.97 -1.3,-1.71 -0.91,1.21 -2,2.32 -3.28,3.32 -1.28,1 -2.71,1.84 -4.25,2.49 -0.91,0.44 -1.74,0.78 -2.49,1.02 -0.74,0.24 -1.41,0.35 -2.02,0.35 -0.18,0 -0.54,0.07 -1.06,0.22 -0.53,0.15 -0.96,0.22 -1.28,0.22 -2.05,0 -3.93,-0.87 -5.58,-2.63 -1.67,-1.74 -2.5,-3.71 -2.5,-5.86 0,-0.87 0.2,-2.02 0.59,-3.47 0.41,-1.43 0.61,-2.26 0.61,-2.52 0,-0.26 -0.09,-0.47 -0.26,-0.63 -0.15,-0.15 -0.39,-0.24 -0.67,-0.24 -0.18,0 -0.61,0.27 -1.31,0.81 -0.69,0.54 -1.65,1.32 -2.91,2.34 -0.12,0.15 -0.25,0.37 -0.39,0.65 -0.15,0.3 -0.37,0.61 -0.71,0.98 -0.29,-0.83 -0.63,-1.67 -1,-2.52 -0.37,-0.86 -0.78,-1.69 -1.22,-2.49zm26.15 -9.85c-0.19,0.04 -0.45,0.23 -0.78,0.58 -0.35,0.33 -0.69,0.76 -1,1.28 -0.52,0.82 -1.1,1.72 -1.74,2.71 -0.41,0.44 -0.82,0.78 -1.28,1 -0.45,0.24 -0.97,0.41 -1.54,0.52 -0.38,0.03 -0.75,0.39 -1.15,1.05 -0.39,0.67 -0.78,1.66 -1.19,2.92 -0.39,1.13 -0.69,2.07 -0.87,2.87 -0.19,0.8 -0.26,1.47 -0.26,2.02 0,1.01 0.24,1.77 0.76,2.29 0.5,0.5 1.28,0.76 2.32,0.76 1.67,0 3.19,-0.47 4.6,-1.4 1.39,-0.92 2.69,-2.31 3.93,-4.15 0.57,-0.69 1.11,-1.34 1.61,-1.97 0.3,-0.2 0.54,-0.55 0.71,-1.05 0.18,-0.49 0.37,-1.1 0.55,-1.82l0.97 -3.1c-0.32,-1.07 -0.63,-1.95 -0.91,-2.58 -0.3,-0.63 -0.59,-1.02 -0.87,-1.17 -0.19,-0.11 -0.58,-0.22 -1.21,-0.35 -0.61,-0.13 -1.5,-0.26 -2.65,-0.41z"/>
  <path fill="white" d="M203.64 66.79c0.45,-0.5 0.97,-1.09 1.6,-1.81 0.63,-0.71 1.41,-1.56 2.37,-2.56 0.35,-1.01 0.69,-2.27 1,-3.77 0.3,-1.5 0.56,-3.28 0.78,-5.3 0.26,-2.08 0.54,-3.88 0.83,-5.42 0.32,-1.54 0.6,-2.78 0.86,-3.73 1.63,-5.1 2.89,-9.07 3.8,-11.87 0.89,-2.82 1.43,-4.47 1.56,-4.97 1.21,-3.3 2.45,-6.25 3.78,-8.85 1.32,-2.58 2.64,-4.84 3.99,-6.77 0.32,-0.35 0.67,-0.74 1.02,-1.17 0.37,-0.41 0.78,-0.85 1.24,-1.31 1.36,-0.63 2.6,-1.23 3.75,-1.8 0.65,-0.3 1.32,-0.54 1.99,-0.71 0.66,-0.18 1.33,-0.28 1.98,-0.28 1,0 1.78,0.49 2.34,1.45 0.53,0.95 0.79,2.39 0.79,4.32 0,1.19 -0.14,2.53 -0.48,3.99 -0.31,1.47 -0.78,3.08 -1.35,4.82 -0.87,2.45 -1.54,4.44 -2,5.9 -0.49,1.47 -0.77,2.38 -0.88,2.75 -0.14,0.76 -0.48,1.72 -1.04,2.87 -0.53,1.17 -1.26,2.58 -2.17,4.25 -1.11,2.13 -1.98,3.78 -2.61,4.93 -0.65,1.17 -1.02,1.86 -1.11,2.08 -0.26,0.26 -0.52,0.52 -0.8,0.78 -0.26,0.28 -0.56,0.56 -0.84,0.85l0 1.24c-0.18,0.45 -0.37,0.75 -0.53,0.93 -0.63,1.21 -1.45,2.69 -2.47,4.45 -1.04,1.78 -2.32,3.82 -3.84,6.11 -0.85,1.18 -1.52,2.24 -1.95,3.15 -0.42,0.91 -0.65,1.69 -0.65,2.34l0 4.78c0.19,0.95 0.37,1.88 0.6,2.8 0.22,0.93 0.42,1.82 0.65,2.69 0.18,1.15 0.51,2.04 1.03,2.64 0.5,0.59 1.08,0.89 1.73,0.89 1.45,0 2.65,-0.35 3.62,-1.06 0.96,-0.71 1.67,-1.78 2.15,-3.23 -0.99,-0.41 -1.75,-0.87 -2.26,-1.39 -0.52,-0.52 -0.78,-1.07 -0.78,-1.65 0.16,-0.37 0.33,-0.76 0.44,-1.2 0.13,-0.43 0.26,-0.9 0.41,-1.36 0.04,-0.26 0.11,-0.5 0.18,-0.76 0.1,-0.26 0.17,-0.58 0.21,-0.98 1.65,-3.04 3.17,-5.33 4.53,-6.87 1.37,-1.53 2.59,-2.31 3.69,-2.31 0.24,0 0.66,0.03 1.24,0.13 0.57,0.09 1,0.14 1.3,0.14 0.2,0 0.55,-0.07 1.02,-0.2 0.46,-0.13 0.81,-0.19 1.02,-0.19 0.61,0 1.06,0.21 1.3,0.62 0.26,0.42 0.38,0.98 0.38,1.7 0,1.54 -0.46,3.21 -1.35,5.01 -0.91,1.8 -1.35,2.82 -1.35,3.08 0,0.22 0.15,0.44 0.42,0.71 0.23,-0.08 0.45,-0.19 0.69,-0.34 0.22,-0.13 0.44,-0.31 0.67,-0.54 0.15,0.47 0.39,1.02 0.7,1.63 0.32,0.62 0.65,1.32 1.02,2.12 0.19,0.26 0.32,0.48 0.39,0.69 0.08,0.2 0.11,0.39 0.11,0.57 -1.52,1.56 -2.85,2.76 -4,3.62 -1.17,0.83 -2.14,1.28 -2.93,1.35 -0.26,0 -0.58,0 -0.93,-0.02 -0.37,-0.02 -0.8,-0.05 -1.3,-0.09 -0.52,0.63 -1.11,1.34 -1.82,2.13 -0.7,0.8 -1.5,1.75 -2.37,2.84 -0.35,0.26 -0.8,0.6 -1.36,1.02 -0.53,0.43 -1.15,0.95 -1.83,1.56 -1.06,1.06 -2.1,1.84 -3.12,2.32 -1.04,0.5 -2.07,0.74 -3.11,0.74 -0.49,0 -0.95,-0.06 -1.4,-0.19 -0.44,-0.13 -0.96,-0.37 -1.53,-0.74 -0.45,-0.22 -0.91,-0.52 -1.4,-0.91 -0.48,-0.37 -1.02,-0.81 -1.59,-1.33 -0.72,-2.23 -1.26,-4.29 -1.58,-6.18 -0.33,-1.89 -0.48,-3.69 -0.48,-5.41 0,-0.28 -0.04,-0.54 -0.09,-0.73 -0.06,-0.2 -0.13,-0.37 -0.24,-0.52l-0.49 -0.16 -0.38 0.16 -0.54 0.54c-0.3,-0.8 -0.63,-1.61 -1.01,-2.45 -0.37,-0.83 -0.77,-1.68 -1.22,-2.56zm25.17 -44.11c0,-0.18 -0.02,-0.33 -0.07,-0.46 -0.06,-0.13 -0.15,-0.26 -0.3,-0.35 -0.22,-0.04 -0.48,0.2 -0.76,0.72 -0.3,0.52 -0.56,1.28 -0.82,2.26 -0.15,0.73 -0.46,1.58 -0.98,2.57 -0.5,0.96 -1.15,2.13 -1.95,3.46 -0.68,1.17 -1.35,2.47 -2,3.9 -0.65,1.43 -1.3,2.97 -1.95,4.64 -0.83,1.96 -1.46,3.69 -1.85,5.17 -0.39,1.48 -0.6,2.69 -0.6,3.58l0.12 0.5c0.27,-0.15 0.75,-0.85 1.42,-2.13 0.67,-1.26 1.56,-3.1 2.64,-5.49 1.02,-2.1 1.76,-3.75 2.24,-4.94 0.5,-1.2 0.8,-2 0.91,-2.39 0.28,-0.98 0.63,-2.13 1.02,-3.43 0.41,-1.3 0.85,-2.76 1.35,-4.36 0.38,-0.61 0.69,-1.13 0.93,-1.58 0.22,-0.27 0.39,-0.57 0.5,-0.85 0.1,-0.3 0.15,-0.57 0.15,-0.82z"/>
  <path fill="white" d="M253.94 79.46c0,0.5 -0.13,1 -0.4,1.47 -0.26,0.48 -0.67,0.92 -1.21,1.37 -0.18,0.54 -0.41,0.95 -0.69,1.22 -0.27,0.28 -0.63,0.41 -1.05,0.41 -1.49,0 -2.75,-0.52 -3.79,-1.57 -1.03,-1.06 -1.87,-2.62 -2.48,-4.7l0.37 -0.39 -0.54 -1.41c0.19,-0.57 0.35,-1.15 0.48,-1.68 0.15,-0.54 0.3,-1.1 0.45,-1.64 0.17,-0.68 0.46,-1.18 0.89,-1.5 0.41,-0.31 0.89,-0.46 1.43,-0.46 0.94,0 1.81,0.26 2.63,0.76 0.8,0.52 1.54,1.3 2.19,2.35 0.61,0.93 1.06,1.89 1.32,2.86 0.27,0.96 0.4,1.93 0.4,2.91z"/>
  <path fill="white" d="M261.14 61.88c-0.11,-0.41 -0.18,-0.73 -0.2,-0.99 -0.02,-0.25 -0.02,-0.48 -0.02,-0.64 0,-1.21 0.15,-2.23 0.43,-3.08 0.29,-0.86 0.72,-1.56 1.31,-2.16 0.15,-0.13 0.52,-0.35 1.12,-0.64 0.59,-0.28 1.39,-0.64 2.35,-1.02 0.71,-0.34 1.24,-0.73 1.67,-1.17 0.41,-0.47 0.65,-1.02 0.69,-1.67 0.09,-0.5 0.31,-1.08 0.65,-1.75 0.31,-0.64 0.7,-1.35 1.13,-2.11 0.15,-0.22 0.59,-1.47 1.31,-3.75 0.73,-2.28 1.75,-5.64 3.05,-10.07 0.37,-1.33 0.72,-2.48 1.09,-3.47 0.35,-0.98 0.67,-1.82 0.91,-2.5 1.17,-3.08 2.11,-5.1 2.86,-6.07 0.74,-0.96 1.29,-1.74 1.67,-2.35l0 -0.28 -1.69 -2.67 2.11 -2.45 2.73 -0.54c0.54,-0.07 1.04,-0.57 1.5,-1.52 0.45,-0.95 1.24,-1.98 2.36,-3.1 0.26,-0.07 0.66,-0.29 1.22,-0.68 0.56,-0.37 1.28,-0.91 2.15,-1.6 0.76,-0.63 1.41,-1.07 1.97,-1.37 0.54,-0.28 0.94,-0.43 1.24,-0.43 0.99,0 1.69,0.21 2.12,0.6 0.42,0.4 0.64,0.92 0.64,1.57 0,0.8 -0.4,1.97 -1.24,3.49 -0.83,1.52 -1.24,2.69 -1.24,3.49 0,0.35 0.07,0.65 0.24,0.89 0.17,0.24 0.35,0.39 0.56,0.46l6.51 3.54c0.35,0.13 0.68,0.71 0.96,1.71 0.3,1 0.52,2.38 0.71,4.1 0.22,1.47 0.39,2.67 0.52,3.62 0.13,0.96 0.18,1.74 0.18,2.32 -0.24,1.55 -0.5,3.13 -0.76,4.72 0.37,2.05 0.76,4.18 1.21,6.42 -0.23,2.15 -0.47,4.32 -0.71,6.53 0,0.22 0.04,0.41 0.13,0.58 0.09,0.16 0.22,0.26 0.41,0.29 0.61,0.04 1.08,0.21 1.37,0.49 0.32,0.29 0.47,0.7 0.47,1.2 0,0.65 -0.1,1.17 -0.3,1.56 -0.2,0.37 -0.48,0.67 -0.84,0.89 -0.46,0.3 -0.83,0.54 -1.11,0.76 -0.26,0.22 -0.46,0.39 -0.57,0.54l0.7 3.37 -0.96 7.74c0,0.65 -0.06,1.48 -0.17,2.48 -0.11,1.02 -0.26,2.21 -0.48,3.55 -0.37,0.98 -0.63,1.8 -0.82,2.45 -0.18,0.64 -0.26,1.09 -0.26,1.29 0.17,0.63 0.34,1.28 0.48,1.97 -0.22,0.98 -0.44,1.95 -0.68,2.93 -0.22,0.98 -0.45,1.95 -0.67,2.89 -0.39,1.27 -0.93,2.19 -1.58,2.8 -0.64,0.6 -1.39,0.89 -2.26,0.89 -0.46,0 -0.83,-0.2 -1.06,-0.62 -0.24,-0.41 -0.35,-1.04 -0.35,-1.88 0,-0.35 0.06,-0.89 0.19,-1.58 0.13,-0.68 0.18,-1.22 0.18,-1.57 0,-0.26 -0.03,-0.6 -0.11,-1.04 -0.07,-0.43 -0.09,-0.82 -0.09,-1.13 0,-1.02 0.09,-2.65 0.29,-4.88 0.19,-2.23 0.3,-3.91 0.3,-5.03 -0.18,-0.63 -0.37,-1.26 -0.54,-1.91 0.1,-0.68 0.17,-1.39 0.21,-2.09 0.03,-0.71 0.02,-1.38 -0.06,-1.99l0.82 -1.46 -0.71 -5.07 -0.37 -0.16c-0.22,0 -0.54,0.09 -0.96,0.26 -0.41,0.14 -0.93,0.4 -1.54,0.77 -0.45,0.15 -1.11,0.3 -2.04,0.47 -0.93,0.17 -2.15,0.26 -3.67,0.3 -0.67,0.33 -1.28,0.61 -1.86,0.87 -0.83,0.18 -1.89,0.5 -3.15,0.94 -1.28,0.47 -2.75,1 -4.42,1.67 -0.98,0.47 -1.87,0.84 -2.69,1.11 -0.81,0.26 -1.5,0.41 -2.04,0.41 -0.42,0 -0.79,0.15 -1.09,0.49 -0.28,0.33 -0.52,0.79 -0.71,1.4 -0.11,0.58 -0.37,1.38 -0.77,2.4 -0.43,1.02 -0.99,2.28 -1.67,3.8 -0.15,0.41 -0.34,1.02 -0.6,1.85 -0.26,0.84 -0.54,1.88 -0.87,3.1 -0.22,0.48 -0.46,1.06 -0.76,1.77 -0.3,0.7 -0.61,1.53 -0.98,2.48 0,0.43 -0.04,0.96 -0.13,1.6 -0.1,0.63 -0.23,1.37 -0.41,2.2 -0.19,0.5 -0.43,1.15 -0.74,1.93 -0.3,0.78 -0.69,1.63 -1.17,2.58 -0.28,0.58 -0.71,1 -1.24,1.28 -0.56,0.28 -1.27,0.41 -2.14,0.41 -0.61,0 -1.09,-0.21 -1.43,-0.63 -0.35,-0.41 -0.51,-1.06 -0.51,-1.93 0,-0.95 0.11,-2.02 0.33,-3.23 0.2,-1.22 0.56,-2.56 1.02,-4.01 0.52,-1.91 0.95,-3.48 1.32,-4.67 0.35,-1.21 0.55,-2.08 0.59,-2.67 0.11,-0.24 0.28,-0.71 0.48,-1.35 0.22,-0.65 0.48,-1.45 0.76,-2.4 0.34,-0.91 0.65,-1.94 0.93,-3.09l-0.26 -0.45 -1.74 0.28c-0.41,-0.04 -0.69,-0.21 -0.88,-0.48 -0.18,-0.3 -0.27,-0.69 -0.27,-1.15 0,-0.26 0.03,-0.54 0.11,-0.84 0.07,-0.31 0.18,-0.69 0.33,-1.11zm19.76 -10c0.83,0 2.05,-0.2 3.69,-0.59 1.63,-0.41 2.85,-0.6 3.69,-0.6 0.5,0.11 1.02,0.19 1.52,0.26 0.91,-0.16 1.8,-0.39 2.67,-0.61 0.87,-0.24 1.76,-0.44 2.67,-0.63 0.35,-0.07 0.63,-0.2 0.82,-0.41 0.16,-0.2 0.26,-0.46 0.26,-0.78 -0.08,-1.09 -0.11,-1.83 -0.11,-2.22 0,-0.69 0.05,-1.47 0.14,-2.32 0.1,-0.85 0.23,-1.73 0.41,-2.64l-0.65 -2.44 0.21 -2.23c-0.13,-0.8 -0.26,-1.54 -0.36,-2.24 -0.09,-0.73 -0.09,-1.3 -0.01,-1.78 -0.08,-0.15 -0.21,-0.38 -0.39,-0.71 -0.19,-0.31 -0.37,-0.67 -0.6,-1.02 -0.37,-0.63 -0.74,-1.21 -1.11,-1.78 -0.39,-0.56 -0.76,-1.13 -1.11,-1.71 -0.52,-0.68 -1.06,-1.18 -1.64,-1.52 -0.59,-0.33 -1.18,-0.48 -1.79,-0.48 -0.73,0 -1.47,0.58 -2.23,1.73 -0.76,1.16 -1.47,2.93 -2.13,5.28 -0.1,0.28 -0.41,0.87 -0.89,1.78 -0.49,0.91 -1.19,2.1 -2.1,3.55 -0.13,1.37 -0.63,3.07 -1.46,5.13 -0.84,2.04 -1.99,4.44 -3.47,7.2 -0.19,0.24 -0.28,0.46 -0.3,0.65 -0.02,0.17 -0.04,0.37 -0.04,0.59 0,0.24 0.08,0.45 0.19,0.56 0.13,0.13 0.33,0.2 0.57,0.2 0.37,0 0.95,-0.03 1.77,-0.11 0.81,-0.07 1.4,-0.11 1.78,-0.11z"/>

</svg>
